<svg version="1.1" xmlns="http://www.w3.org/2000/svg" xmlns:xlink="http://www.w3.org/1999/xlink" stroke-linecap="round" stroke-linejoin="round" stroke-width="0" fill-rule="evenodd" clip-rule="evenodd" id="zXnU3rqSayR-txS4FrFJ_top" viewBox="393.701 393.701 3937.008 984.252" width="3.9370079999999996in" height="0.9842519999999999in" class="w-100 h-100"><defs><style>.zXnU3rqSayR-txS4FrFJ_fr4 {color: #666666;}
.zXnU3rqSayR-txS4FrFJ_cu {color: #cccccc;}
.zXnU3rqSayR-txS4FrFJ_cf {color: #cc9933;}
.zXnU3rqSayR-txS4FrFJ_sm {color: #004200; opacity: 0.75;}
.zXnU3rqSayR-txS4FrFJ_ss {color: #ffffff;}
.zXnU3rqSayR-txS4FrFJ_sp {color: #999999;}
.zXnU3rqSayR-txS4FrFJ_out {color: #000000;}</style><rect x="-39.37" y="-35.433" width="78.74" height="70.866" id="B9A_u0i5lSfprMbDdPAR_pad-42"/><circle cx="0" cy="0" r="59.055" id="B9A_u0i5lSfprMbDdPAR_pad-35"/><rect x="-66.5355" y="-28.937" width="133.071" height="57.874" id="B9A_u0i5lSfprMbDdPAR_pad-40"/><circle cx="0" cy="0" r="47.244" id="B9A_u0i5lSfprMbDdPAR_pad-38"/><rect x="-22.335" y="-21.8685" width="44.67" height="43.737" rx="21.8685" ry="21.8685" id="F5Jk0dCWxhS5Ehg7sBe9_pad-17"/><circle cx="0" cy="0" r="7.792" id="F5Jk0dCWxhS5Ehg7sBe9_pad-19"/><circle cx="0" cy="0" r="16.3885" id="F5Jk0dCWxhS5Ehg7sBe9_pad-20"/><circle cx="0" cy="0" r="6.2555" id="F5Jk0dCWxhS5Ehg7sBe9_pad-21"/><circle cx="0" cy="0" r="6.2555" id="F5Jk0dCWxhS5Ehg7sBe9_pad-22"/><circle cx="0" cy="0" r="6.219" id="F5Jk0dCWxhS5Ehg7sBe9_pad-23"/><circle cx="0" cy="0" r="6.219" id="F5Jk0dCWxhS5Ehg7sBe9_pad-24"/><circle cx="0" cy="0" r="6.987" id="F5Jk0dCWxhS5Ehg7sBe9_pad-25"/><rect x="-7.792" y="-7.022" width="15.584" height="14.044" rx="7.022" ry="7.022" id="F5Jk0dCWxhS5Ehg7sBe9_pad-26"/><rect x="-13.2425" y="-16.3815" width="26.485" height="32.763" rx="13.2425" ry="13.2425" id="F5Jk0dCWxhS5Ehg7sBe9_pad-27"/><rect x="-3.9145" y="-3.1235" width="7.829" height="6.247" rx="3.1235" ry="3.1235" id="F5Jk0dCWxhS5Ehg7sBe9_pad-28"/><circle cx="0" cy="0" r="7.0235" id="F5Jk0dCWxhS5Ehg7sBe9_pad-29"/><rect x="-7.8285" y="-7.022" width="15.657" height="14.044" rx="7.022" ry="7.022" id="F5Jk0dCWxhS5Ehg7sBe9_pad-30"/><rect x="-6.219" y="-7.022" width="12.438" height="14.044" rx="6.219" ry="6.219" id="F5Jk0dCWxhS5Ehg7sBe9_pad-31"/><rect x="-6.219" y="-5.4605" width="12.438" height="10.921" rx="5.4605" ry="5.4605" id="F5Jk0dCWxhS5Ehg7sBe9_pad-32"/><rect x="-35.433" y="-31.496" width="70.866" height="62.992" id="iI7JwFn_KPWzL1GYoE5o_pad-16"/><rect x="-62.5985" y="-25" width="125.197" height="50" id="iI7JwFn_KPWzL1GYoE5o_pad-18"/><circle cx="0" cy="0" r="43.307" id="iI7JwFn_KPWzL1GYoE5o_pad-34"/><circle cx="0" cy="0" r="23.6" id="k47VFCh31aC8ef3sNSIJ_pad-1"/><circle cx="0" cy="0" r="59.05" id="k47VFCh31aC8ef3sNSIJ_pad-2"/><g id="zXnU3rqSayR-txS4FrFJ_top_soldermask"><use xlink:href="#B9A_u0i5lSfprMbDdPAR_pad-42" x="1000.06" y="802.215"/><use xlink:href="#B9A_u0i5lSfprMbDdPAR_pad-42" x="1000.06" y="691.979"/><use xlink:href="#B9A_u0i5lSfprMbDdPAR_pad-42" x="1756.092" y="802.215"/><use xlink:href="#B9A_u0i5lSfprMbDdPAR_pad-42" x="1756.092" y="691.979"/><use xlink:href="#B9A_u0i5lSfprMbDdPAR_pad-42" x="2743.581" y="802.215"/><use xlink:href="#B9A_u0i5lSfprMbDdPAR_pad-42" x="2743.581" y="691.979"/><use xlink:href="#B9A_u0i5lSfprMbDdPAR_pad-42" x="3727.961" y="802.215"/><use xlink:href="#B9A_u0i5lSfprMbDdPAR_pad-42" x="3727.961" y="691.979"/><use xlink:href="#B9A_u0i5lSfprMbDdPAR_pad-35" x="511.811" y="511.811"/><use xlink:href="#B9A_u0i5lSfprMbDdPAR_pad-35" x="511.811" y="1259.843"/><use xlink:href="#B9A_u0i5lSfprMbDdPAR_pad-35" x="4212.598" y="1259.843"/><use xlink:href="#B9A_u0i5lSfprMbDdPAR_pad-35" x="4212.598" y="511.811"/><use xlink:href="#B9A_u0i5lSfprMbDdPAR_pad-40" x="1276.041" y="635.827"/><use xlink:href="#B9A_u0i5lSfprMbDdPAR_pad-40" x="1401.238" y="735.827"/><use xlink:href="#B9A_u0i5lSfprMbDdPAR_pad-40" x="1276.041" y="835.827"/><use xlink:href="#B9A_u0i5lSfprMbDdPAR_pad-40" x="1401.238" y="935.827"/><use xlink:href="#B9A_u0i5lSfprMbDdPAR_pad-40" x="1276.041" y="1035.827"/><use xlink:href="#B9A_u0i5lSfprMbDdPAR_pad-40" x="1401.238" y="1135.827"/><use xlink:href="#B9A_u0i5lSfprMbDdPAR_pad-38" x="885.827" y="692.126"/><use xlink:href="#B9A_u0i5lSfprMbDdPAR_pad-38" x="885.827" y="1018.898"/><use xlink:href="#B9A_u0i5lSfprMbDdPAR_pad-38" x="885.827" y="1140.945"/><use xlink:href="#B9A_u0i5lSfprMbDdPAR_pad-38" x="1870.079" y="692.126"/><use xlink:href="#B9A_u0i5lSfprMbDdPAR_pad-38" x="1870.079" y="1018.898"/><use xlink:href="#B9A_u0i5lSfprMbDdPAR_pad-38" x="1870.079" y="1140.945"/><use xlink:href="#B9A_u0i5lSfprMbDdPAR_pad-38" x="2854.331" y="692.126"/><use xlink:href="#B9A_u0i5lSfprMbDdPAR_pad-38" x="2854.331" y="1018.898"/><use xlink:href="#B9A_u0i5lSfprMbDdPAR_pad-38" x="2854.331" y="1140.945"/><use xlink:href="#B9A_u0i5lSfprMbDdPAR_pad-38" x="3838.583" y="692.126"/><use xlink:href="#B9A_u0i5lSfprMbDdPAR_pad-38" x="3838.583" y="1018.898"/><use xlink:href="#B9A_u0i5lSfprMbDdPAR_pad-38" x="3838.583" y="1140.945"/></g><g id="zXnU3rqSayR-txS4FrFJ_top_silkscreen"><path d="M 1045.06 843.097 955.06 843.097 955.06 651.097 1045.06 651.097 1045.06 843.097 M 1801.092 843.097 1711.092 843.097 1711.092 651.097 1801.092 651.097 1801.092 843.097 M 2788.581 843.097 2698.581 843.097 2698.581 651.097 2788.581 651.097 2788.581 843.097 M 3772.961 843.097 3682.961 843.097 3682.961 651.097 3772.961 651.097 3772.961 843.097" fill="none" stroke-width="9.843"/><use xlink:href="#F5Jk0dCWxhS5Ehg7sBe9_pad-17" x="1435.967" y="1213.958"/><path d="M 1289.612 680.238 1289.612 790.524 M 1289.612 585.94 1289.612 593.673 M 1289.612 585.94 1387.666 585.94 1387.666 692.131 M 1387.666 778.696 1387.666 892.816 M 1289.612 880.274 1289.612 990.559 M 1387.666 978.666 1387.666 1092.852 M 1289.612 1080.374 1289.612 1185.85 M 1387.666 1178.832 1387.666 1185.85 1289.612 1185.85" fill="none" stroke-width="9.843"/><use xlink:href="#F5Jk0dCWxhS5Ehg7sBe9_pad-19" x="3159.05" y="1033.347"/><path d="M 2992.126 1062.987 3076.484 1206.753 3142.112 1062.987 2992.126 1062.987"/><path d="M 3155.94 1200.262 3215.203 1200.262 3223.032 1198.712 3233.933 1194.038 3241.762 1189.363 3249.517 1183.117 3254.2 1176.87 3258.882 1167.522 3260.419 1159.702 3262.028 1148.803 3260.419 1139.433 3255.736 1128.512 3249.517 1122.265 3241.762 1116.04 3232.397 1111.344 3224.568 1108.243 3272.93 1062.987 3155.94 1062.987 3155.94 1200.262"/><path d="M 3254.2 1200.262 3397.747 1200.262 3377.481 1161.275 3349.386 1156.601 3340.021 1064.559 3313.462 1064.559 3304.097 1156.601 3276.076 1161.275 3254.2 1200.262"/><path d="M 3411.795 1142.556 3432.061 1142.556 3452.328 1062.987 3393.065 1062.987 3411.795 1142.556"/><path d="M 3569.317 1089.502 3500.689 1126.961 3569.317 1162.825 3559.952 1173.746 3550.587 1179.993 3538.149 1186.24 3525.638 1189.363 3511.591 1189.363 3499.153 1186.24 3486.642 1181.544 3475.74 1173.746 3466.375 1162.825 3460.156 1151.905 3457.01 1139.433 3455.474 1126.961 3457.01 1112.917 3460.156 1100.423 3467.912 1087.952 3477.277 1078.604 3488.178 1070.784 3500.689 1066.11 3511.591 1062.987 3525.638 1062.987 3538.149 1066.11 3552.197 1072.357 3569.317 1089.502"/><path d="M 3570.854 1064.559 3634.872 1209.633 3723.766 1062.987 3570.854 1064.559"/><use xlink:href="#F5Jk0dCWxhS5Ehg7sBe9_pad-20" x="3421.892" y="1185.454"/><path d="M 3074.801 1033.347 3087.312 1033.347 3087.312 995.91 3074.801 995.91 3074.801 1033.347"/><use xlink:href="#F5Jk0dCWxhS5Ehg7sBe9_pad-21" x="3081.057" y="1034.909"/><use xlink:href="#F5Jk0dCWxhS5Ehg7sBe9_pad-22" x="3081.057" y="995.91"/><path d="M 3091.995 1033.347 3104.433 1033.347 3104.433 995.91 3091.995 995.91 3091.995 1033.347"/><use xlink:href="#F5Jk0dCWxhS5Ehg7sBe9_pad-23" x="3098.214" y="1034.909"/><use xlink:href="#F5Jk0dCWxhS5Ehg7sBe9_pad-24" x="3098.214" y="995.91"/><path d="M 3132.528 1033.347 3145.039 1033.347 3145.039 995.91 3132.528 995.91 3132.528 1033.347"/><use xlink:href="#F5Jk0dCWxhS5Ehg7sBe9_pad-21" x="3138.783" y="1034.909"/><use xlink:href="#F5Jk0dCWxhS5Ehg7sBe9_pad-22" x="3138.783" y="995.91"/><path d="M 3224.568 1031.797 3237.079 1031.797 3237.079 994.36 3224.568 994.36 3224.568 1031.797"/><use xlink:href="#F5Jk0dCWxhS5Ehg7sBe9_pad-21" x="3230.824" y="1033.358"/><use xlink:href="#F5Jk0dCWxhS5Ehg7sBe9_pad-21" x="3230.824" y="994.349"/><use xlink:href="#F5Jk0dCWxhS5Ehg7sBe9_pad-25" x="3195.705" y="1015.404"/><use xlink:href="#F5Jk0dCWxhS5Ehg7sBe9_pad-26" x="3194.9" y="998.258"/><use xlink:href="#F5Jk0dCWxhS5Ehg7sBe9_pad-19" x="3605.204" y="1033.347"/><path d="M 3212.057 1041.145 3249.517 1041.145 3249.517 1028.673 3212.057 1028.673 3212.057 1041.145"/><use xlink:href="#F5Jk0dCWxhS5Ehg7sBe9_pad-21" x="3213.63" y="1034.909"/><use xlink:href="#F5Jk0dCWxhS5Ehg7sBe9_pad-23" x="3247.981" y="1034.909"/><path d="M 3262.028 1033.347 3274.466 1033.347 3274.466 995.91 3262.028 995.91 3262.028 1033.347"/><use xlink:href="#F5Jk0dCWxhS5Ehg7sBe9_pad-23" x="3268.247" y="1034.909"/><use xlink:href="#F5Jk0dCWxhS5Ehg7sBe9_pad-24" x="3268.247" y="995.91"/><path d="M 3316.609 1033.347 3329.12 1033.347 3329.12 1014.629 3316.609 1014.629 3316.609 1033.347"/><use xlink:href="#F5Jk0dCWxhS5Ehg7sBe9_pad-21" x="3322.864" y="1034.909"/><path d="M 3268.247 1041.145 3302.561 1041.145 3302.561 1008.382 3268.247 1008.382 3268.247 1041.145"/><path d="M 3357.141 1033.347 3369.652 1033.347 3369.652 1019.303 3357.141 1019.303 3357.141 1033.347"/><use xlink:href="#F5Jk0dCWxhS5Ehg7sBe9_pad-21" x="3363.397" y="1034.909"/><use xlink:href="#F5Jk0dCWxhS5Ehg7sBe9_pad-27" x="3300.22" y="1024.763"/><path d="M 3563.098 1031.797 3575.536 1031.797 3575.536 994.36 3563.098 994.36 3563.098 1031.797"/><use xlink:href="#F5Jk0dCWxhS5Ehg7sBe9_pad-23" x="3569.317" y="1033.358"/><use xlink:href="#F5Jk0dCWxhS5Ehg7sBe9_pad-23" x="3569.317" y="994.349"/><path d="M 3550.587 1041.145 3588.047 1041.145 3588.047 1028.673 3550.587 1028.673 3550.587 1041.145"/><use xlink:href="#F5Jk0dCWxhS5Ehg7sBe9_pad-21" x="3552.16" y="1034.909"/><use xlink:href="#F5Jk0dCWxhS5Ehg7sBe9_pad-21" x="3586.474" y="1034.909"/><path d="M 3430.452 1033.347 3442.963 1033.347 3442.963 995.91 3430.452 995.91 3430.452 1033.347"/><use xlink:href="#F5Jk0dCWxhS5Ehg7sBe9_pad-21" x="3436.707" y="1034.909"/><use xlink:href="#F5Jk0dCWxhS5Ehg7sBe9_pad-22" x="3436.707" y="995.91"/><path d="M 3413.331 1033.347 3425.842 1033.347 3425.842 995.91 3413.331 995.91 3413.331 1033.347"/><use xlink:href="#F5Jk0dCWxhS5Ehg7sBe9_pad-21" x="3419.587" y="1034.909"/><use xlink:href="#F5Jk0dCWxhS5Ehg7sBe9_pad-22" x="3419.587" y="995.91"/><path d="M 3372.798 1033.347 3385.236 1033.347 3385.236 995.91 3372.798 995.91 3372.798 1033.347"/><use xlink:href="#F5Jk0dCWxhS5Ehg7sBe9_pad-23" x="3379.017" y="1034.909"/><use xlink:href="#F5Jk0dCWxhS5Ehg7sBe9_pad-24" x="3379.017" y="995.91"/><path d="M 3319.755 1017.752 3329.12 1017.752 3329.12 1008.382 3319.755 1008.382 3319.755 1017.752"/><use xlink:href="#F5Jk0dCWxhS5Ehg7sBe9_pad-28" x="3398.516" y="1009.955"/><use xlink:href="#F5Jk0dCWxhS5Ehg7sBe9_pad-29" x="3641.896" y="1015.404"/><use xlink:href="#F5Jk0dCWxhS5Ehg7sBe9_pad-30" x="3641.091" y="998.258"/><path d="M 3606.777 1041.145 3644.237 1041.145 3644.237 1028.673 3606.777 1028.673 3606.777 1041.145"/><use xlink:href="#F5Jk0dCWxhS5Ehg7sBe9_pad-23" x="3608.314" y="1034.909"/><use xlink:href="#F5Jk0dCWxhS5Ehg7sBe9_pad-21" x="3642.664" y="1034.909"/><path d="M 3602.095 1022.426 3639.555 1022.426 3639.555 1011.505 3602.095 1011.505 3602.095 1022.426"/><use xlink:href="#F5Jk0dCWxhS5Ehg7sBe9_pad-31" x="3603.631" y="1018.528"/><path d="M 3602.095 1002.157 3639.555 1002.157 3639.555 991.236 3602.095 991.236 3602.095 1002.157"/><path d="M 3098.214 1041.145 3141.893 1002.157 3140.356 989.663 3134.064 992.787 3098.214 1023.999 3098.214 1041.145"/><path d="M 3486.642 1033.347 3499.153 1033.347 3499.153 995.91 3486.642 995.91 3486.642 1033.347"/><use xlink:href="#F5Jk0dCWxhS5Ehg7sBe9_pad-21" x="3492.897" y="1034.909"/><use xlink:href="#F5Jk0dCWxhS5Ehg7sBe9_pad-22" x="3492.897" y="995.91"/><path d="M 3527.175 1033.347 3539.686 1033.347 3539.686 995.91 3527.175 995.91 3527.175 1033.347"/><use xlink:href="#F5Jk0dCWxhS5Ehg7sBe9_pad-21" x="3533.43" y="1034.909"/><use xlink:href="#F5Jk0dCWxhS5Ehg7sBe9_pad-22" x="3533.43" y="995.91"/><path d="M 3492.861 1041.145 3536.54 1002.157 3535.003 989.663 3528.784 992.787 3492.861 1023.999 3492.861 1041.145"/><path d="M 3160.623 1041.145 3198.01 1041.145 3198.01 1028.673 3160.623 1028.673 3160.623 1041.145"/><use xlink:href="#F5Jk0dCWxhS5Ehg7sBe9_pad-23" x="3162.159" y="1034.909"/><use xlink:href="#F5Jk0dCWxhS5Ehg7sBe9_pad-23" x="3196.473" y="1034.909"/><path d="M 3155.94 1022.426 3193.4 1022.426 3193.4 1011.505 3155.94 1011.505 3155.94 1022.426"/><use xlink:href="#F5Jk0dCWxhS5Ehg7sBe9_pad-31" x="3157.477" y="1018.528"/><use xlink:href="#F5Jk0dCWxhS5Ehg7sBe9_pad-32" x="3602.095" y="996.697"/><path d="M 3155.94 1002.157 3193.4 1002.157 3193.4 991.236 3155.94 991.236 3155.94 1002.157"/><use xlink:href="#F5Jk0dCWxhS5Ehg7sBe9_pad-32" x="3155.94" y="996.697"/><use xlink:href="#F5Jk0dCWxhS5Ehg7sBe9_pad-23" x="3191.791" y="997.472"/><use xlink:href="#F5Jk0dCWxhS5Ehg7sBe9_pad-22" x="3305.67" y="995.91"/><path d="M 3280.758 1009.955 3301.025 991.236 3310.39 1000.584 3297.879 1013.078 3280.758 1009.955"/><path d="M 3341.557 989.663 3352.459 989.663 3363.433 997.483 3368.116 1008.382 3369.652 1020.876 3357.141 1022.426 3355.605 1009.955 3341.557 989.663"/><path d="M 3316.609 1020.876 3316.609 1005.281 3327.51 991.236 3344.704 989.663 3358.751 999.034 3350.922 1003.708 3344.704 1000.584 3335.339 1002.157 3316.609 1020.876"/><path d="M 3380.554 1041.145 3399.284 1023.999 3416.477 1039.594 3422.696 1030.224 3402.43 1009.955 3394.601 1009.955 3380.554 1023.999 3380.554 1041.145"/><path d="M 3151.258 1031.797 3163.696 1031.797 3163.696 1019.303 3151.258 1019.303 3151.258 1031.797"/><path d="M 3191.791 1013.078 3202.692 1013.078 3202.692 999.034 3191.791 999.034 3191.791 1013.078"/><path d="M 3436.744 1042.717 3474.131 1042.717 3474.131 1030.224 3436.744 1030.224 3436.744 1042.717"/><use xlink:href="#F5Jk0dCWxhS5Ehg7sBe9_pad-24" x="3438.28" y="1036.471"/><use xlink:href="#F5Jk0dCWxhS5Ehg7sBe9_pad-24" x="3472.594" y="1036.471"/><path d="M 3435.134 1022.426 3472.594 1022.426 3472.594 1009.955 3435.134 1009.955 3435.134 1022.426"/><use xlink:href="#F5Jk0dCWxhS5Ehg7sBe9_pad-21" x="3436.707" y="1016.19"/><use xlink:href="#F5Jk0dCWxhS5Ehg7sBe9_pad-23" x="3471.058" y="1016.19"/><path d="M 3436.744 1002.157 3474.131 1002.157 3474.131 989.663 3436.744 989.663 3436.744 1002.157"/><use xlink:href="#F5Jk0dCWxhS5Ehg7sBe9_pad-24" x="3438.28" y="995.91"/><use xlink:href="#F5Jk0dCWxhS5Ehg7sBe9_pad-24" x="3472.594" y="995.91"/><use xlink:href="#F5Jk0dCWxhS5Ehg7sBe9_pad-21" x="3637.982" y="997.472"/><path d="M 3597.412 1031.797 3609.85 1031.797 3609.85 1019.303 3597.412 1019.303 3597.412 1031.797"/><path d="M 3637.945 1013.078 3648.92 1013.078 3648.92 999.034 3637.945 999.034 3637.945 1013.078"/><path d="M 3332.419 769.132 3358.937 769.132 3363.609 737.934 3382.339 730.13 3407.299 750.42 3427.567 730.13 3407.299 705.176 3415.107 688.007 3446.297 683.325 3446.297 655.249 3415.107 652.127 3407.299 633.416 3426.009 608.443 3407.299 589.732 3382.339 608.443 3371.417 603.779 3355.822 641.22 3366.744 650.566 3374.532 661.492 3374.532 673.978 3371.417 684.886 3362.052 692.689 3351.129 697.372 3338.649 697.372 3327.727 691.129 3321.497 681.764 3318.382 669.296 3321.497 656.809 3329.304 645.884 3337.092 641.22 3321.497 603.779 3310.574 608.443 3285.614 589.732 3266.904 608.443 3285.614 634.976 3277.807 652.127 3246.617 655.249 3246.617 683.325 3279.384 686.446 3285.614 705.176 3265.347 730.13 3285.614 748.86 3310.574 730.13 3329.304 736.373 3332.419 769.132"/><path d="M 1061.006 699.46 1059.547 702.345 1055.269 706.656 1085.38 706.656 M 1055.269 724.542 1056.695 720.231 1061.006 717.345 1068.169 715.919 1072.48 715.919 1079.643 717.345 1083.954 720.23 1085.38 724.541 1085.38 727.393 1083.954 731.704 1079.643 734.556 1072.48 736.015 1068.169 736.015 1061.006 734.556 1056.695 731.704 1055.269 727.393 1055.269 724.542 M 1061.006 734.556 1079.643 717.345 M 1055.269 753.901 1056.695 749.59 1061.006 746.705 1068.169 745.279 1072.48 745.279 1079.643 746.705 1083.954 749.59 1085.38 753.901 1085.38 756.753 1083.954 761.064 1079.643 763.916 1072.48 765.375 1068.169 765.375 1061.006 763.916 1056.695 761.064 1055.269 756.753 1055.269 753.901 M 1061.006 763.916 1079.643 746.705 M 1055.236 794.735 1085.38 794.734 1055.236 774.639 1085.38 774.638 M 1672.928 699.46 1671.469 702.345 1667.191 706.656 1697.302 706.656 M 1667.191 724.542 1668.617 720.231 1672.928 717.345 1680.091 715.919 1684.402 715.919 1691.565 717.345 1695.876 720.23 1697.302 724.541 1697.302 727.393 1695.876 731.704 1691.565 734.556 1684.402 736.015 1680.091 736.015 1672.928 734.556 1668.617 731.704 1667.191 727.393 1667.191 724.542 M 1672.928 734.556 1691.565 717.345 M 1667.191 753.901 1668.617 749.59 1672.928 746.705 1680.091 745.279 1684.402 745.279 1691.565 746.705 1695.876 749.59 1697.302 753.901 1697.302 756.753 1695.876 761.064 1691.565 763.916 1684.402 765.375 1680.091 765.375 1672.928 763.916 1668.617 761.064 1667.191 756.753 1667.191 753.901 M 1672.928 763.916 1691.565 746.705 M 1667.158 794.735 1697.302 794.734 1667.158 774.639 1697.302 774.638 M 2660.418 699.46 2658.959 702.345 2654.681 706.656 2684.792 706.656 M 2654.681 724.542 2656.107 720.231 2660.418 717.345 2667.581 715.919 2671.892 715.919 2679.055 717.345 2683.366 720.23 2684.792 724.541 2684.792 727.393 2683.366 731.704 2679.055 734.556 2671.892 736.015 2667.581 736.015 2660.418 734.556 2656.107 731.704 2654.681 727.393 2654.681 724.542 M 2660.418 734.556 2679.055 717.345 M 2654.681 753.901 2656.107 749.59 2660.418 746.705 2667.581 745.279 2671.892 745.279 2679.055 746.705 2683.366 749.59 2684.792 753.901 2684.792 756.753 2683.366 761.064 2679.055 763.916 2671.892 765.375 2667.581 765.375 2660.418 763.916 2656.107 761.064 2654.681 756.753 2654.681 753.901 M 2660.418 763.916 2679.055 746.705 M 2654.648 794.735 2684.792 794.734 2654.648 774.639 2684.792 774.638 M 3644.797 699.46 3643.338 702.345 3639.06 706.656 3669.171 706.656 M 3639.06 724.542 3640.486 720.231 3644.797 717.345 3651.96 715.919 3656.271 715.919 3663.434 717.345 3667.745 720.23 3669.171 724.541 3669.171 727.393 3667.745 731.704 3663.434 734.556 3656.271 736.015 3651.96 736.015 3644.797 734.556 3640.486 731.704 3639.06 727.393 3639.06 724.542 M 3644.797 734.556 3663.434 717.345 M 3639.06 753.901 3640.486 749.59 3644.797 746.705 3651.96 745.279 3656.271 745.279 3663.434 746.705 3667.745 749.59 3669.171 753.901 3669.171 756.753 3667.745 761.064 3663.434 763.916 3656.271 765.375 3651.96 765.375 3644.797 763.916 3640.486 761.064 3639.06 756.753 3639.06 753.901 M 3644.797 763.916 3663.434 746.705 M 3639.027 794.735 3669.171 794.734 3639.027 774.639 3669.171 774.638" fill="none" stroke-width="4.632"/><path d="M 1499.582 747.937 1499.582 750.789 1502.433 756.559 1505.285 759.411 1511.055 762.263 1522.529 762.263 1528.233 759.411 1531.085 756.559 1534.003 750.789 1534.003 745.085 1531.085 739.315 1525.381 730.759 1496.663 702.041 1536.855 702.041 M 1500.178 1144.643 1533.339 1144.643 M 1516.726 1070.479 1516.726 1018.813 M 1490.926 1044.612 1542.592 1044.612 M 1523.955 908.293 1523.955 968.515 1495.237 928.389 1538.281 928.389 M 1502.433 865.398 1533.937 865.398 1516.759 842.45 1525.381 842.45 1531.085 839.598 1533.937 836.746 1536.855 828.124 1536.855 822.421 1533.937 813.799 1528.233 808.028 1519.611 805.177 1510.989 805.177 1502.433 808.028 1499.582 810.947 1496.663 816.65 M 1849.669 885.431 1849.669 888.283 1852.521 894.053 1855.373 896.905 1861.143 899.756 1872.617 899.756 1878.321 896.905 1881.173 894.053 1884.091 888.283 1884.091 882.579 1881.173 876.809 1875.469 868.253 1846.751 839.535 1886.943 839.535 M 2840.02 899.756 2871.524 899.756 2854.346 876.809 2862.968 876.809 2868.672 873.957 2871.524 871.105 2874.442 862.483 2874.442 856.779 2871.524 848.157 2865.82 842.387 2857.198 839.535 2848.576 839.535 2840.02 842.387 2837.168 845.305 2834.25 851.009 M 3844.618 839.535 3844.618 899.756 3815.899 859.631 3858.943 859.631 M 870.325 894.534 876.095 897.453 884.717 906.008 884.717 845.787" fill="none" stroke-width="9.264"/><path d="M 2093.085 533.105 2093.085 1255.765 1748.468 774.257 2264.995 774.257 M 2455.585 1256.561 2455.585 705.811 2421.362 602.347 2386.343 568.124 2317.898 533.105 2248.656 533.105 2180.21 568.124 2145.987 602.347 2110.968 705.811 2110.968 774.257" fill="none" stroke-width="111.163"/><path d="M 2168.094 846.584 2194.889 858.08 2168.094 869.532 M 2162.39 881.883 2160.445 885.73 2154.741 891.478 2194.889 891.478 M 2191.042 905.731 2192.988 903.829 2194.889 905.731 2192.988 907.676 2191.042 905.731 M 2154.741 931.524 2156.642 925.776 2162.39 921.929 2171.941 920.028 2177.689 920.028 2187.24 921.929 2192.988 925.776 2194.889 931.524 2194.889 935.326 2192.988 941.074 2187.24 944.877 2177.689 946.822 2171.941 946.822 2162.39 944.877 2156.642 941.074 2154.741 935.326 2154.741 931.524 M 2162.39 944.877 2187.24 921.929" fill="none" stroke-width="6.176"/><path d="M 2613.706 627.538 2493.13 627.538 2613.706 581.642 2493.13 535.747 2613.706 535.747 M 2493.13 664.592 2613.706 664.592 M 2493.13 782.031 2613.706 782.031 2493.13 701.647 2613.706 701.647 M 2493.13 819.085 2613.706 819.085 M 2493.13 913.575 2584.922 913.575 2602.166 907.871 2607.87 902.035 2613.706 890.627 2613.706 879.087 2607.87 867.679 2602.166 861.975 2584.922 856.139 2573.514 856.139 M 2613.706 1042.553 2493.13 996.525 2613.706 950.629 M 2573.514 967.873 2573.514 1025.309 M 2521.782 1165.696 2510.374 1159.992 2498.834 1148.451 2493.13 1137.044 2493.13 1114.096 2498.834 1102.556 2510.374 1091.148 2521.782 1085.312 2539.026 1079.608 2567.81 1079.608 2584.922 1085.311 2596.462 1091.148 2607.87 1102.556 2613.706 1114.096 2613.706 1137.044 2607.87 1148.451 2596.462 1159.992 2584.922 1165.696 M 2493.13 1202.75 2613.706 1202.75 M 2493.13 1283.134 2573.514 1202.75 M 2544.73 1231.401 2613.706 1283.134" fill="none" stroke-width="18.527"/><path d="M 1509.562 644.541 1515.332 647.459 1523.954 656.015 1523.954 595.793" fill="none" stroke-width="9.264"/><path d="M 3034.777 938.577 3036.678 936.676 3038.624 938.577 3036.678 940.523 3034.777 938.577 M 3036.678 925.18 3036.678 898.385 M 3050.975 925.18 3050.975 898.385 M 3050.975 917.531 3056.723 923.279 3060.57 925.18 3066.274 925.18 3070.12 923.279 3072.022 917.531 3072.022 898.385 M 3105.42 919.432 3103.518 923.279 3097.77 925.18 3092.022 925.18 3086.274 923.279 3084.373 919.432 3086.274 915.629 3090.121 913.684 3099.672 911.783 3103.518 909.881 3105.42 906.035 3105.42 904.133 3103.518 900.331 3097.77 898.385 3092.022 898.385 3086.274 900.331 3084.373 904.133 M 3123.519 938.577 3123.519 906.035 3125.42 900.331 3129.267 898.385 3133.07 898.385 M 3117.771 925.18 3131.168 925.18 M 3145.421 925.18 3145.421 898.385 M 3145.421 913.684 3147.367 919.432 3151.169 923.279 3155.016 925.18 3160.764 925.18 M 3173.115 925.18 3173.115 906.035 3175.017 900.331 3178.863 898.385 3184.611 898.385 3188.414 900.331 3194.162 906.035 M 3194.162 925.18 3194.162 898.385 M 3206.513 925.18 3206.513 898.385 M 3206.513 917.531 3212.261 923.279 3216.108 925.18 3221.812 925.18 3225.659 923.279 3227.56 917.531 3227.56 898.385 M 3227.56 917.531 3233.308 923.279 3237.155 925.18 3242.859 925.18 3246.705 923.279 3248.651 917.531 3248.651 898.385 M 3261.002 913.684 3283.95 913.684 3283.95 917.531 3282.049 921.378 3280.148 923.279 3276.301 925.18 3270.553 925.18 3266.75 923.279 3262.903 919.432 3261.002 913.684 3261.002 909.881 3262.903 904.133 3266.75 900.331 3270.553 898.385 3276.301 898.385 3280.148 900.331 3283.95 904.133 M 3296.302 925.18 3296.302 898.385 M 3296.302 917.531 3302.05 923.279 3305.896 925.18 3311.6 925.18 3315.447 923.279 3317.348 917.531 3317.348 898.385 M 3335.448 938.577 3335.448 906.035 3337.349 900.331 3341.196 898.385 3344.998 898.385 M 3329.7 925.18 3343.097 925.18 M 3378.396 919.432 3376.495 923.279 3370.747 925.18 3364.999 925.18 3359.251 923.279 3357.35 919.432 3359.251 915.629 3363.098 913.684 3372.648 911.783 3376.495 909.881 3378.396 906.035 3378.396 904.133 3376.495 900.331 3370.747 898.385 3364.999 898.385 3359.251 900.331 3357.35 904.133 M 3392.649 902.232 3390.748 900.287 3392.649 898.385 3394.594 900.287 3392.649 902.232 M 3429.894 925.18 3429.894 898.385 M 3429.894 919.432 3426.091 923.279 3422.244 925.18 3416.541 925.18 3412.694 923.279 3408.891 919.432 3406.946 913.684 3406.946 909.881 3408.891 904.133 3412.694 900.331 3416.541 898.385 3422.244 898.385 3426.091 900.331 3429.894 904.133 M 3442.245 925.18 3442.245 898.385 M 3442.245 913.684 3444.191 919.432 3447.993 923.279 3451.84 925.18 3457.588 925.18 M 3475.687 938.577 3475.687 906.035 3477.589 900.331 3481.435 898.385 3485.238 898.385 M 3469.939 925.18 3483.337 925.18 M 3497.589 938.577 3499.491 936.676 3501.436 938.577 3499.491 940.523 3497.589 938.577 M 3499.491 925.18 3499.491 898.385 M 3536.78 919.432 3532.933 923.279 3529.086 925.18 3523.382 925.18 3519.535 923.279 3515.733 919.432 3513.787 913.684 3513.787 909.881 3515.733 904.133 3519.535 900.331 3523.382 898.385 3529.086 898.385 3532.933 900.331 3536.78 904.133 M 3572.079 925.18 3572.079 898.385 M 3572.079 919.432 3568.276 923.279 3564.43 925.18 3558.726 925.18 3554.879 923.279 3551.076 919.432 3549.131 913.684 3549.131 909.881 3551.076 904.133 3554.879 900.331 3558.726 898.385 3564.43 898.385 3568.276 900.331 3572.079 904.133 M 3586.332 902.232 3584.43 900.287 3586.332 898.385 3588.277 900.287 3586.332 902.232 M 3623.621 919.432 3619.774 923.279 3615.927 925.18 3610.223 925.18 3606.376 923.279 3602.574 919.432 3600.628 913.684 3600.628 909.881 3602.574 904.133 3606.376 900.331 3610.223 898.385 3615.927 898.385 3619.774 900.331 3623.621 904.133 M 3658.964 919.432 3655.117 923.279 3651.271 925.18 3645.567 925.18 3641.72 923.279 3637.917 919.432 3635.972 913.684 3635.972 909.881 3637.917 904.133 3641.72 900.331 3645.567 898.385 3651.271 898.385 3655.117 900.331 3658.964 904.133" fill="none" stroke-width="6.176"/><path d="M 3202.421 550.416 3200.995 553.268 3198.109 556.153 3195.258 557.579 3189.521 557.579 3186.636 556.153 3183.784 553.268 3182.325 550.416 3180.899 546.105 3180.899 538.909 3182.325 534.631 3183.784 531.746 3186.636 528.894 3189.521 527.435 3195.258 527.435 3198.109 528.894 3200.995 531.746 3202.421 534.631 M 3233.206 550.416 3231.78 553.268 3228.895 556.153 3226.043 557.579 3220.306 557.579 3217.421 556.153 3214.569 553.268 3213.11 550.416 3211.684 546.105 3211.684 538.909 3213.11 534.631 3214.569 531.746 3217.421 528.894 3220.306 527.435 3226.043 527.435 3228.895 528.894 3231.78 531.746 3233.206 534.631 M 3271.63 557.579 3271.63 527.435 3284.563 527.435 3288.874 528.894 3290.3 530.32 3291.726 533.172 3291.726 537.483 3290.3 540.368 3288.874 541.794 3284.563 543.22 3288.874 544.679 3290.3 546.105 3291.726 548.957 3291.726 551.842 3290.3 554.694 3288.874 556.153 3284.563 557.579 3271.63 557.579 M 3271.63 543.22 3284.563 543.22 M 3300.99 557.579 3312.464 543.22 3312.464 527.435 M 3323.938 557.579 3312.464 543.22 M 3333.201 542.491 3349.782 542.491 M 3379.142 553.268 3376.29 556.153 3371.979 557.579 3366.242 557.579 3361.931 556.153 3359.046 553.268 3359.046 550.416 3360.505 547.531 3361.931 546.105 3364.783 544.679 3373.405 541.794 3376.29 540.368 3377.716 538.909 3379.142 536.057 3379.142 531.746 3376.29 528.894 3371.979 527.435 3366.242 527.435 3361.931 528.894 3359.046 531.746 M 3411.386 527.435 3399.879 557.579 3388.405 527.435 M 3392.716 537.483 3407.075 537.483 M 3464.169 527.435 3464.169 557.546 3449.81 537.483 3471.332 537.483 M 3482.022 530.32 3480.596 528.861 3482.022 527.435 3483.481 528.861 3482.022 530.32 M 3501.366 557.546 3497.055 556.12 3494.17 551.809 3492.744 544.646 3492.744 540.335 3494.17 533.172 3497.055 528.861 3501.366 527.435 3504.218 527.435 3508.529 528.861 3511.381 533.172 3512.84 540.335 3512.84 544.646 3511.381 551.809 3508.529 556.12 3504.218 557.546 3501.366 557.546 M 3511.381 551.809 3494.17 533.172" fill="none" stroke-width="4.632"/></g><g id="zXnU3rqSayR-txS4FrFJ_top_copper"><path d="M 3838.583 692.126 3728.108 692.126 3727.961 691.979 M 1401.238 935.827 3414.615 935.827 3658.463 691.979 3727.961 691.979 M 2854.331 692.126 2743.728 692.126 2743.581 691.979 M 1276.041 835.827 1462.946 835.827 1532.501 905.381 1956.82 905.381 2170.223 691.979 2743.581 691.979 M 1870.079 692.126 1756.239 692.126 1756.092 691.979 M 1401.238 735.827 1627.175 735.827 1671.022 691.979 1756.092 691.979 M 885.827 692.126 999.913 692.126 1000.06 691.979 M 1276.041 635.827 1131.255 635.827 1075.102 691.979 1000.06 691.979" fill="none" stroke-width="12"/><path d="M 644.94 1313.025 4079.474 1313.025 M 644.94 1288.156 4079.474 1288.156 M 644.94 1263.287 4079.474 1263.287 M 644.94 1238.419 4079.474 1238.419 M 644.94 1213.55 4079.474 1213.55 M 644.94 1188.681 832.386 1188.681 M 939.261 1188.681 1816.654 1188.681 M 1923.492 1188.681 2800.921 1188.681 M 2907.76 1188.681 3785.152 1188.681 M 3891.992 1188.681 4079.474 1188.681 M 644.94 1163.812 817.387 1163.812 M 954.261 1163.812 1309.646 1163.812 M 1492.811 1163.812 1801.618 1163.812 M 1938.529 1163.812 2785.886 1163.812 M 2922.795 1163.812 3770.152 1163.812 M 3907.028 1163.812 4079.474 1163.812 M 644.94 1138.944 813.547 1138.944 M 958.101 1138.944 1309.646 1138.944 M 1492.811 1138.944 1797.814 1138.944 M 1942.332 1138.944 2782.046 1138.944 M 2926.6 1138.944 3766.314 1138.944 M 3910.866 1138.944 4079.474 1138.944 M 644.94 1114.075 818.894 1114.075 M 952.753 1114.075 1309.646 1114.075 M 1492.811 1114.075 1803.161 1114.075 M 1936.986 1114.075 2787.428 1114.075 M 2921.252 1114.075 3771.66 1114.075 M 3905.52 1114.075 4079.474 1114.075 M 644.94 1089.206 836.476 1089.206 M 935.171 1089.206 1309.646 1089.206 M 1492.811 1089.206 1820.744 1089.206 M 1919.438 1089.206 2804.975 1089.206 M 2903.669 1089.206 3789.243 1089.206 M 3887.937 1089.206 4079.474 1089.206 M 644.94 1064.337 830.341 1064.337 M 941.307 1064.337 1184.446 1064.337 M 1367.647 1064.337 1814.608 1064.337 M 1925.573 1064.337 2798.84 1064.337 M 2909.806 1064.337 3783.106 1064.337 M 3894.073 1064.337 4079.474 1064.337 M 644.94 1039.469 816.633 1039.469 M 955.014 1039.469 1184.446 1039.469 M 1367.647 1039.469 1800.865 1039.469 M 1939.282 1039.469 2785.131 1039.469 M 2923.513 1039.469 3769.399 1039.469 M 3907.781 1039.469 4079.474 1039.469 M 644.94 1014.6 813.655 1014.6 M 957.993 1014.6 1184.446 1014.6 M 1367.647 1014.6 1797.921 1014.6 M 1942.26 1014.6 2782.154 1014.6 M 2926.492 1014.6 3766.421 1014.6 M 3910.759 1014.6 4079.474 1014.6 M 644.94 989.731 819.899 989.731 M 951.749 989.731 1184.446 989.731 M 1367.647 989.731 1804.165 989.731 M 1935.98 989.731 2788.433 989.731 M 2920.248 989.731 3772.664 989.731 M 3904.479 989.731 4079.474 989.731 M 644.94 964.862 839.133 964.862 M 932.514 964.862 1309.646 964.862 M 3431.705 964.862 3791.899 964.862 M 3885.281 964.862 4079.474 964.862 M 644.94 939.993 1309.646 939.993 M 3458.906 939.993 4079.474 939.993 M 644.94 915.125 1309.646 915.125 M 3483.773 915.125 4079.474 915.125 M 644.94 890.256 1309.646 890.256 M 2020.381 890.256 3411.741 890.256 M 3508.64 890.256 4079.474 890.256 M 644.94 865.387 1184.446 865.387 M 1540.967 865.387 1948.348 865.387 M 2045.248 865.387 3436.609 865.387 M 3533.509 865.387 4079.474 865.387 M 644.94 840.518 935.625 840.518 M 1064.497 840.518 1184.446 840.518 M 1516.1 840.518 1691.669 840.518 M 1820.505 840.518 1973.217 840.518 M 2070.151 840.518 2679.165 840.518 M 2808.003 840.518 3461.476 840.518 M 3558.377 840.518 3663.541 840.518 M 3792.377 840.518 4079.474 840.518 M 644.94 815.65 935.625 815.65 M 1064.497 815.65 1184.446 815.65 M 1491.232 815.65 1691.669 815.65 M 1820.505 815.65 1998.084 815.65 M 2095.02 815.65 2679.165 815.65 M 2808.003 815.65 3486.345 815.65 M 3583.244 815.65 3663.541 815.65 M 3792.377 815.65 4079.474 815.65 M 644.94 790.781 935.625 790.781 M 1064.497 790.781 1184.446 790.781 M 1367.647 790.781 1691.669 790.781 M 1820.505 790.781 2022.987 790.781 M 2119.887 790.781 2679.165 790.781 M 2808.003 790.781 3511.213 790.781 M 3608.112 790.781 3663.541 790.781 M 3792.377 790.781 4079.474 790.781 M 644.94 765.912 935.625 765.912 M 1064.497 765.912 1309.646 765.912 M 1641.945 765.912 1691.669 765.912 M 1820.505 765.912 2047.856 765.912 M 2144.755 765.912 2679.165 765.912 M 2808.003 765.912 3536.08 765.912 M 3632.979 765.912 3663.541 765.912 M 3792.377 765.912 4079.474 765.912 M 644.94 741.043 833.534 741.043 M 1064.497 741.043 1309.646 741.043 M 1670.402 741.043 1691.669 741.043 M 1922.381 741.043 2072.723 741.043 M 2169.622 741.043 2679.165 741.043 M 2906.612 741.043 3560.948 741.043 M 3890.879 741.043 4079.474 741.043 M 644.94 716.175 817.818 716.175 M 1099.304 716.175 1309.646 716.175 M 1938.097 716.175 2097.591 716.175 M 2922.365 716.175 3585.815 716.175 M 3906.596 716.175 4079.474 716.175 M 644.94 691.306 813.547 691.306 M 1124.244 691.306 1309.646 691.306 M 1492.811 691.306 1623.238 691.306 M 1942.367 691.306 2122.458 691.306 M 2926.635 691.306 3610.684 691.306 M 3910.866 691.306 4079.474 691.306 M 644.94 666.437 818.427 666.437 M 1367.647 666.437 1648.428 666.437 M 1937.488 666.437 2147.65 666.437 M 2921.719 666.437 3635.874 666.437 M 3905.987 666.437 4079.474 666.437 M 644.94 641.568 835.22 641.568 M 1064.497 641.568 1077.045 641.568 M 1367.647 641.568 1691.669 641.568 M 1920.694 641.568 2679.165 641.568 M 2904.961 641.568 3663.541 641.568 M 3889.193 641.568 4079.474 641.568 M 644.94 616.699 1101.948 616.699 M 1367.647 616.699 4079.474 616.699 M 644.94 591.831 1184.446 591.831 M 1367.647 591.831 4079.474 591.831 M 644.94 566.962 4079.474 566.962 M 644.94 542.093 4079.474 542.093 M 644.94 517.224 4079.474 517.224 M 644.94 492.356 4079.474 492.356 M 644.94 467.487 4079.474 467.487 M 644.94 442.618 4079.474 442.618 M 1196.136 687.319 1312.15 687.319 1312.147 784.344 1186.95 784.335 1186.95 887.319 1312.15 887.319 1312.147 984.344 1186.95 984.335 1186.95 1087.319 1312.15 1087.319 1312.147 1187.319 1490.328 1187.319 1490.328 1084.335 1365.129 1084.335 1365.131 987.31 1490.328 987.319 1490.328 968.336 1821.979 968.319 1817.003 973.567 1810.566 982.428 1805.593 992.186 1802.209 1002.604 1800.495 1013.421 1800.495 1024.374 1802.209 1035.192 1805.593 1045.609 1810.566 1055.367 1817.003 1064.228 1824.748 1071.974 1833.609 1078.411 1836.087 1079.983 1829.867 1083.892 1824.094 1088.434 1818.831 1093.558 1814.134 1099.206 1810.058 1105.316 1806.646 1111.822 1803.936 1118.65 1801.959 1125.724 1800.736 1132.967 1800.282 1140.299 1800.601 1147.638 1801.689 1154.903 1803.535 1162.013 1806.118 1168.89 1809.408 1175.457 1813.371 1181.642 1817.963 1187.375 1823.131 1192.596 1828.819 1197.244 1834.965 1201.268 1841.499 1204.625 1848.349 1207.276 1855.441 1209.192 1862.694 1210.352 1870.029 1210.744 1877.365 1210.362 1884.619 1209.213 1891.714 1207.306 1898.568 1204.665 1905.108 1201.318 1911.259 1197.303 1916.953 1192.663 1922.129 1187.45 1926.728 1181.722 1930.699 1175.543 1934 1168.98 1936.592 1162.108 1938.449 1155 1939.547 1147.738 1939.854 1139.108 1939.274 1131.785 1937.928 1124.564 1935.831 1117.524 1933.005 1110.743 1929.483 1104.297 1925.303 1098.257 1920.51 1092.69 1915.16 1087.657 1909.31 1083.214 1903.962 1079.928 1911.106 1075.366 1919.434 1068.253 1926.547 1059.925 1932.27 1050.585 1936.462 1040.467 1939.018 1029.816 1939.878 1018.898 1939.018 1007.979 1936.462 997.328 1932.27 987.21 1926.547 977.87 1919.434 969.542 1918.098 968.307 2806.211 968.319 2801.255 973.567 2794.818 982.428 2789.845 992.186 2786.461 1002.604 2784.747 1013.421 2784.747 1024.374 2786.461 1035.192 2789.845 1045.609 2794.818 1055.367 2801.255 1064.228 2809 1071.974 2817.861 1078.411 2820.339 1079.983 2814.119 1083.892 2808.346 1088.434 2803.083 1093.558 2798.386 1099.206 2794.31 1105.316 2790.898 1111.822 2788.188 1118.65 2786.211 1125.724 2784.988 1132.967 2784.534 1140.299 2784.853 1147.638 2785.941 1154.903 2787.787 1162.013 2790.37 1168.89 2793.66 1175.457 2797.623 1181.642 2802.215 1187.375 2807.383 1192.596 2813.071 1197.244 2819.217 1201.268 2825.751 1204.625 2832.601 1207.276 2839.693 1209.192 2846.946 1210.352 2854.281 1210.744 2861.617 1210.362 2868.871 1209.213 2875.966 1207.306 2882.82 1204.665 2889.36 1201.318 2895.51 1197.303 2901.205 1192.663 2906.381 1187.45 2910.98 1181.722 2914.951 1175.543 2918.252 1168.98 2920.844 1162.108 2922.701 1155 2923.799 1147.738 2924.106 1139.108 2923.526 1131.785 2922.18 1124.564 2920.083 1117.524 2917.257 1110.743 2913.735 1104.297 2909.555 1098.257 2904.762 1092.69 2899.412 1087.657 2893.562 1083.214 2888.214 1079.928 2895.358 1075.366 2903.686 1068.253 2910.799 1059.925 2916.522 1050.585 2920.714 1040.467 2923.27 1029.816 2924.13 1018.898 2923.27 1007.979 2920.714 997.328 2916.522 987.21 2910.799 977.87 2903.686 969.542 2902.35 968.307 3417.164 968.219 3422.199 967.421 3427.049 965.845 3431.592 963.531 3435.717 960.534 3483.06 913.332 3666.031 730.361 3666.035 860.203 3789.886 860.203 3789.886 742.109 3797.555 748.594 3806.895 754.318 3817.013 758.509 3827.664 761.066 3838.583 761.925 3849.501 761.066 3860.152 758.509 3870.27 754.318 3879.61 748.594 3887.938 741.482 3895.051 733.154 3900.774 723.814 3904.966 713.696 3907.522 703.045 3908.382 692.126 3907.522 681.207 3904.966 670.556 3900.774 660.438 3895.051 651.098 3887.938 642.77 3879.61 635.657 3870.27 629.934 3860.152 625.743 3849.501 623.186 3838.583 622.327 3827.664 623.186 3817.013 625.743 3806.895 629.934 3797.555 635.657 3789.871 642.175 3789.886 633.991 3666.035 633.991 3666.035 659.504 3655.913 659.587 3650.878 660.385 3646.029 661.961 3641.486 664.274 3637.361 667.272 3590.017 714.474 3401.159 903.332 2004.833 903.335 2183.676 724.476 2681.68 724.471 2681.656 860.203 2805.507 860.203 2805.507 742.037 2813.303 748.594 2822.643 754.318 2832.761 758.509 2843.412 761.066 2854.331 761.925 2865.249 761.066 2875.9 758.509 2886.018 754.318 2895.358 748.594 2903.686 741.482 2910.799 733.154 2916.522 723.814 2920.714 713.696 2923.27 703.045 2924.13 692.126 2923.27 681.207 2920.714 670.556 2916.522 660.438 2910.799 651.098 2903.686 642.77 2895.358 635.657 2886.018 629.934 2875.9 625.743 2865.249 623.186 2854.331 622.327 2843.412 623.186 2832.761 625.743 2822.643 629.934 2813.303 635.657 2805.493 642.291 2805.507 633.991 2681.656 633.991 2681.656 659.504 2167.673 659.587 2162.638 660.385 2157.789 661.961 2153.245 664.274 2149.121 667.272 2101.777 714.474 1943.367 872.883 1545.983 872.888 1484.049 811.119 1479.924 808.122 1475.381 805.808 1470.531 804.232 1465.496 803.434 1398.642 803.335 1365.163 803.335 1365.131 787.31 1490.328 787.319 1490.328 768.336 1629.724 768.219 1634.76 767.421 1639.609 765.845 1644.152 763.531 1648.277 760.534 1684.482 724.471 1694.168 724.471 1694.167 860.203 1818.017 860.203 1818.017 738.592 1824.748 745.202 1833.609 751.639 1843.367 756.612 1853.785 759.996 1864.602 761.71 1875.555 761.71 1886.373 759.996 1896.79 756.612 1906.549 751.639 1915.409 745.202 1923.155 737.457 1929.592 728.596 1934.564 718.837 1937.949 708.42 1939.663 697.602 1939.663 686.65 1937.949 675.832 1934.564 665.415 1929.592 655.656 1923.155 646.795 1915.409 639.05 1906.549 632.613 1896.79 627.64 1886.373 624.256 1875.555 622.542 1864.602 622.542 1853.785 624.256 1843.367 627.64 1833.609 632.613 1824.748 639.05 1818.005 645.71 1818.017 633.991 1694.167 633.991 1694.167 659.504 1668.474 659.587 1663.437 660.385 1658.588 661.961 1654.046 664.274 1649.921 667.272 1613.717 703.335 1490.349 703.335 1490.328 684.335 1365.129 684.335 1365.131 584.335 1186.95 584.335 1186.95 603.318 1128.706 603.434 1123.669 604.232 1118.82 605.808 1114.278 608.122 1110.152 611.119 1061.972 659.159 1061.986 633.991 938.135 633.991 938.135 645.94 931.157 639.05 922.297 632.613 912.538 627.64 902.121 624.256 891.303 622.542 880.35 622.542 869.533 624.256 859.115 627.64 849.357 632.613 840.496 639.05 832.751 646.795 826.314 655.656 821.341 665.415 817.957 675.832 816.243 686.65 816.243 697.602 817.957 708.42 821.341 718.837 826.314 728.596 832.751 737.457 840.496 745.202 849.357 751.639 859.115 756.612 869.533 759.996 880.35 761.71 891.303 761.71 902.121 759.996 912.538 756.612 922.297 751.639 931.157 745.202 938.133 738.29 938.135 860.203 1061.986 860.203 1061.986 724.453 1077.652 724.371 1082.688 723.573 1087.537 721.997 1092.08 719.684 1096.205 716.686 1144.69 668.343 1186.983 668.319 1186.95 687.319 1196.136 687.319 M 955.411 1013.421 953.697 1002.604 950.312 992.186 945.34 982.428 938.903 973.567 931.157 965.822 922.297 959.385 912.538 954.412 902.121 951.028 891.303 949.314 880.35 949.314 869.533 951.028 859.115 954.412 849.357 959.385 840.496 965.822 832.751 973.567 826.314 982.428 821.341 992.186 817.957 1002.604 816.243 1013.421 816.243 1024.374 817.957 1035.192 821.341 1045.609 826.314 1055.367 832.751 1064.228 840.496 1071.974 849.357 1078.411 851.835 1079.983 845.615 1083.892 839.843 1088.434 834.579 1093.558 829.882 1099.206 825.806 1105.316 822.394 1111.822 819.684 1118.65 817.707 1125.724 816.484 1132.967 816.03 1140.299 816.349 1147.638 817.437 1154.903 819.283 1162.013 821.866 1168.89 825.156 1175.457 829.119 1181.642 833.711 1187.375 838.879 1192.596 844.567 1197.244 850.713 1201.268 857.247 1204.625 864.097 1207.276 871.189 1209.192 878.442 1210.352 885.777 1210.744 893.113 1210.362 900.367 1209.213 907.462 1207.306 914.316 1204.665 920.856 1201.318 927.007 1197.303 932.701 1192.663 937.877 1187.45 942.476 1181.722 946.448 1175.543 949.748 1168.98 952.34 1162.108 954.197 1155 955.295 1147.738 955.602 1139.108 955.022 1131.785 953.676 1124.564 951.579 1117.524 948.753 1110.743 945.231 1104.297 941.051 1098.257 936.259 1092.69 930.908 1087.657 925.058 1083.214 919.71 1079.928 926.854 1075.366 935.182 1068.253 942.295 1059.925 948.018 1050.585 952.21 1040.467 954.766 1029.816 955.626 1018.898 955.411 1013.421 M 3908.167 1013.421 3906.453 1002.604 3903.068 992.186 3898.096 982.428 3891.659 973.567 3883.913 965.822 3875.052 959.385 3865.294 954.412 3854.877 951.028 3844.059 949.314 3833.106 949.314 3822.289 951.028 3811.871 954.412 3802.113 959.385 3793.252 965.822 3785.507 973.567 3779.07 982.428 3774.097 992.186 3770.713 1002.604 3768.999 1013.421 3768.999 1024.374 3770.713 1035.192 3774.097 1045.609 3779.07 1055.367 3785.507 1064.228 3793.252 1071.974 3802.113 1078.411 3804.591 1079.983 3798.371 1083.892 3792.598 1088.434 3787.335 1093.558 3782.638 1099.206 3778.562 1105.316 3775.15 1111.822 3772.44 1118.65 3770.463 1125.724 3769.24 1132.967 3768.786 1140.299 3769.105 1147.638 3770.193 1154.903 3772.039 1162.013 3774.622 1168.89 3777.912 1175.457 3781.875 1181.642 3786.467 1187.375 3791.635 1192.596 3797.323 1197.244 3803.469 1201.268 3810.003 1204.625 3816.853 1207.276 3823.945 1209.192 3831.198 1210.352 3838.533 1210.744 3845.869 1210.362 3853.123 1209.213 3860.218 1207.306 3867.072 1204.665 3873.612 1201.318 3879.762 1197.303 3885.457 1192.663 3890.633 1187.45 3895.232 1181.722 3899.203 1175.543 3902.504 1168.98 3905.096 1162.108 3906.953 1155 3908.051 1147.738 3908.358 1139.108 3907.778 1131.785 3906.432 1124.564 3904.335 1117.524 3901.509 1110.743 3897.987 1104.297 3893.807 1098.257 3889.014 1092.69 3883.664 1087.657 3877.814 1083.214 3872.466 1079.928 3879.61 1075.366 3887.938 1068.253 3895.051 1059.925 3900.774 1050.585 3904.966 1040.467 3907.522 1029.816 3908.382 1018.898 3908.167 1013.421 M 642.445 433.76 4082.016 433.76 4081.988 1337.849 642.409 1333.971 642.421 433.743" fill="none" stroke-width="25"/><path d="M 1401.238 1187.283 1401.238 1084.37 M 1312.182 1135.827 1490.293 1135.827 M 885.827 1210.709 885.827 1140.945 M 816.063 1140.945 955.591 1140.945 M 1000.06 860.168 1000.06 802.215 M 938.171 802.215 1061.95 802.215 M 1870.079 1210.709 1870.079 1140.945 M 1800.315 1140.945 1939.843 1140.945 M 1756.092 860.168 1756.092 802.215 M 1694.202 802.215 1817.982 802.215 M 2854.331 1210.709 2854.331 1140.945 M 2784.567 1140.945 2924.094 1140.945 M 2743.581 860.168 2743.581 802.215 M 2681.692 802.215 2805.471 802.215 M 3838.583 1210.709 3838.583 1140.945 M 3768.819 1140.945 3908.346 1140.945 M 3727.961 860.168 3727.961 802.215 M 3666.071 802.215 3789.85 802.215" fill="none" stroke-width="20"/><use xlink:href="#iI7JwFn_KPWzL1GYoE5o_pad-16" x="1000.06" y="802.215"/><use xlink:href="#iI7JwFn_KPWzL1GYoE5o_pad-16" x="1000.06" y="691.979"/><use xlink:href="#iI7JwFn_KPWzL1GYoE5o_pad-16" x="1756.092" y="802.215"/><use xlink:href="#iI7JwFn_KPWzL1GYoE5o_pad-16" x="1756.092" y="691.979"/><use xlink:href="#iI7JwFn_KPWzL1GYoE5o_pad-16" x="2743.581" y="802.215"/><use xlink:href="#iI7JwFn_KPWzL1GYoE5o_pad-16" x="2743.581" y="691.979"/><use xlink:href="#iI7JwFn_KPWzL1GYoE5o_pad-16" x="3727.961" y="802.215"/><use xlink:href="#iI7JwFn_KPWzL1GYoE5o_pad-16" x="3727.961" y="691.979"/><use xlink:href="#iI7JwFn_KPWzL1GYoE5o_pad-18" x="1276.041" y="635.827"/><use xlink:href="#iI7JwFn_KPWzL1GYoE5o_pad-18" x="1401.238" y="735.827"/><use xlink:href="#iI7JwFn_KPWzL1GYoE5o_pad-18" x="1276.041" y="835.827"/><use xlink:href="#iI7JwFn_KPWzL1GYoE5o_pad-18" x="1401.238" y="935.827"/><use xlink:href="#iI7JwFn_KPWzL1GYoE5o_pad-18" x="1276.041" y="1035.827"/><use xlink:href="#iI7JwFn_KPWzL1GYoE5o_pad-18" x="1401.238" y="1135.827"/><use xlink:href="#iI7JwFn_KPWzL1GYoE5o_pad-34" x="885.827" y="692.126"/><use xlink:href="#iI7JwFn_KPWzL1GYoE5o_pad-34" x="885.827" y="1018.898"/><use xlink:href="#iI7JwFn_KPWzL1GYoE5o_pad-34" x="885.827" y="1140.945"/><use xlink:href="#iI7JwFn_KPWzL1GYoE5o_pad-34" x="1870.079" y="692.126"/><use xlink:href="#iI7JwFn_KPWzL1GYoE5o_pad-34" x="1870.079" y="1018.898"/><use xlink:href="#iI7JwFn_KPWzL1GYoE5o_pad-34" x="1870.079" y="1140.945"/><use xlink:href="#iI7JwFn_KPWzL1GYoE5o_pad-34" x="2854.331" y="692.126"/><use xlink:href="#iI7JwFn_KPWzL1GYoE5o_pad-34" x="2854.331" y="1018.898"/><use xlink:href="#iI7JwFn_KPWzL1GYoE5o_pad-34" x="2854.331" y="1140.945"/><use xlink:href="#iI7JwFn_KPWzL1GYoE5o_pad-34" x="3838.583" y="692.126"/><use xlink:href="#iI7JwFn_KPWzL1GYoE5o_pad-34" x="3838.583" y="1018.898"/><use xlink:href="#iI7JwFn_KPWzL1GYoE5o_pad-34" x="3838.583" y="1140.945"/></g><g id="zXnU3rqSayR-txS4FrFJ_top_drill1"><use xlink:href="#k47VFCh31aC8ef3sNSIJ_pad-1" x="885.8" y="692.1"/><use xlink:href="#k47VFCh31aC8ef3sNSIJ_pad-1" x="885.8" y="1018.9"/><use xlink:href="#k47VFCh31aC8ef3sNSIJ_pad-1" x="885.8" y="1140.9"/><use xlink:href="#k47VFCh31aC8ef3sNSIJ_pad-1" x="1870.1" y="1140.9"/><use xlink:href="#k47VFCh31aC8ef3sNSIJ_pad-1" x="1870.1" y="1018.9"/><use xlink:href="#k47VFCh31aC8ef3sNSIJ_pad-1" x="1870.1" y="692.1"/><use xlink:href="#k47VFCh31aC8ef3sNSIJ_pad-1" x="2854.3" y="692.1"/><use xlink:href="#k47VFCh31aC8ef3sNSIJ_pad-1" x="2854.3" y="1018.9"/><use xlink:href="#k47VFCh31aC8ef3sNSIJ_pad-1" x="2854.3" y="1140.9"/><use xlink:href="#k47VFCh31aC8ef3sNSIJ_pad-1" x="3838.6" y="1140.9"/><use xlink:href="#k47VFCh31aC8ef3sNSIJ_pad-1" x="3838.6" y="1018.9"/><use xlink:href="#k47VFCh31aC8ef3sNSIJ_pad-1" x="3838.6" y="692.1"/><use xlink:href="#k47VFCh31aC8ef3sNSIJ_pad-2" x="511.8" y="511.8"/><use xlink:href="#k47VFCh31aC8ef3sNSIJ_pad-2" x="511.8" y="1259.8"/><use xlink:href="#k47VFCh31aC8ef3sNSIJ_pad-2" x="4212.6" y="1259.8"/><use xlink:href="#k47VFCh31aC8ef3sNSIJ_pad-2" x="4212.6" y="511.8"/></g><clipPath id="zXnU3rqSayR-txS4FrFJ_top_outline"><path d="M 393.701 393.701 4330.709 393.701 4330.709 1377.953 393.701 1377.953 393.701 393.701" fill="none" stroke-width="5.512"/></clipPath><mask id="zXnU3rqSayR-txS4FrFJ_top_mech-mask"><g fill="#000" stroke="#000"><rect x="393.701" y="393.701" width="3937.008" height="984.252" fill="#fff"/><use xlink:href="#zXnU3rqSayR-txS4FrFJ_top_drill1"/></g></mask><mask id="zXnU3rqSayR-txS4FrFJ_top_cf-mask"><g fill="#fff" stroke="#fff"><use xlink:href="#zXnU3rqSayR-txS4FrFJ_top_soldermask"/></g></mask><mask id="zXnU3rqSayR-txS4FrFJ_top_sm-mask"><g fill="#000" stroke="#000"><rect x="393.701" y="393.701" width="3937.008" height="984.252" fill="#fff"/><use xlink:href="#zXnU3rqSayR-txS4FrFJ_top_soldermask"/></g></mask></defs><g transform="translate(0,1771.654) scale(1,-1)"><g mask="url(#zXnU3rqSayR-txS4FrFJ_top_mech-mask)" clip-path="url(#zXnU3rqSayR-txS4FrFJ_top_outline)"><rect x="393.701" y="393.701" width="3937.008" height="984.252" fill="currentColor" class="zXnU3rqSayR-txS4FrFJ_fr4"/><use xlink:href="#zXnU3rqSayR-txS4FrFJ_top_copper" fill="currentColor" stroke="currentColor" class="zXnU3rqSayR-txS4FrFJ_cu"/><use xlink:href="#zXnU3rqSayR-txS4FrFJ_top_copper" fill="currentColor" stroke="currentColor" class="zXnU3rqSayR-txS4FrFJ_cf" mask="url(#zXnU3rqSayR-txS4FrFJ_top_cf-mask)"/><g mask="url(#zXnU3rqSayR-txS4FrFJ_top_sm-mask)"><rect x="393.701" y="393.701" width="3937.008" height="984.252" fill="currentColor" class="zXnU3rqSayR-txS4FrFJ_sm"/><use xlink:href="#zXnU3rqSayR-txS4FrFJ_top_silkscreen" fill="currentColor" stroke="currentColor" class="zXnU3rqSayR-txS4FrFJ_ss"/></g></g></g></svg>