<svg version="1.1" xmlns="http://www.w3.org/2000/svg" xmlns:xlink="http://www.w3.org/1999/xlink" stroke-linecap="round" stroke-linejoin="round" stroke-width="0" fill-rule="evenodd" clip-rule="evenodd" id="zXnU3rqSayR-txS4FrFJ_bottom" viewBox="393.701 393.701 3937.008 984.252" width="3.9370079999999996in" height="0.9842519999999999in" class="w-100 h-100"><defs><style>.zXnU3rqSayR-txS4FrFJ_fr4 {color: #666666;}
.zXnU3rqSayR-txS4FrFJ_cu {color: #cccccc;}
.zXnU3rqSayR-txS4FrFJ_cf {color: #cc9933;}
.zXnU3rqSayR-txS4FrFJ_sm {color: #004200; opacity: 0.75;}
.zXnU3rqSayR-txS4FrFJ_ss {color: #ffffff;}
.zXnU3rqSayR-txS4FrFJ_sp {color: #999999;}
.zXnU3rqSayR-txS4FrFJ_out {color: #000000;}</style><circle cx="0" cy="0" r="43.307" id="EDwssYvm3drj9AFDUT3z_pad-34"/><circle cx="0" cy="0" r="59.055" id="UtDHuBR7xHCiA5N-0w5Y_pad-35"/><circle cx="0" cy="0" r="47.244" id="UtDHuBR7xHCiA5N-0w5Y_pad-38"/><circle cx="0" cy="0" r="23.6" id="k47VFCh31aC8ef3sNSIJ_pad-1"/><circle cx="0" cy="0" r="59.05" id="k47VFCh31aC8ef3sNSIJ_pad-2"/><g id="zXnU3rqSayR-txS4FrFJ_bottom_copper"><path d="M 644.94 1313.025 4079.474 1313.025 M 644.94 1288.156 4079.474 1288.156 M 644.94 1263.287 4079.474 1263.287 M 644.94 1238.419 4079.474 1238.419 M 644.94 1213.55 4079.474 1213.55 M 644.94 1188.681 832.386 1188.681 M 939.261 1188.681 1816.654 1188.681 M 1923.492 1188.681 2800.921 1188.681 M 2907.76 1188.681 3785.152 1188.681 M 3891.992 1188.681 4079.474 1188.681 M 644.94 1163.812 817.387 1163.812 M 954.261 1163.812 1801.618 1163.812 M 1938.529 1163.812 2785.886 1163.812 M 2922.795 1163.812 3770.152 1163.812 M 3907.028 1163.812 4079.474 1163.812 M 644.94 1138.944 813.547 1138.944 M 958.101 1138.944 1797.814 1138.944 M 1942.332 1138.944 2782.046 1138.944 M 2926.6 1138.944 3766.314 1138.944 M 3910.866 1138.944 4079.474 1138.944 M 644.94 1114.075 818.894 1114.075 M 952.753 1114.075 1803.161 1114.075 M 1936.986 1114.075 2787.428 1114.075 M 2921.252 1114.075 3771.66 1114.075 M 3905.52 1114.075 4079.474 1114.075 M 644.94 1089.206 836.476 1089.206 M 935.171 1089.206 1820.744 1089.206 M 1919.438 1089.206 2804.975 1089.206 M 2903.669 1089.206 3789.243 1089.206 M 3887.937 1089.206 4079.474 1089.206 M 644.94 1064.337 830.341 1064.337 M 941.307 1064.337 1814.608 1064.337 M 1925.573 1064.337 2798.84 1064.337 M 2909.806 1064.337 3783.106 1064.337 M 3894.073 1064.337 4079.474 1064.337 M 644.94 1039.469 816.633 1039.469 M 955.014 1039.469 1800.865 1039.469 M 1939.282 1039.469 2785.131 1039.469 M 2923.513 1039.469 3769.399 1039.469 M 3907.781 1039.469 4079.474 1039.469 M 644.94 1014.6 813.655 1014.6 M 957.993 1014.6 1797.921 1014.6 M 1942.26 1014.6 2782.154 1014.6 M 2926.492 1014.6 3766.421 1014.6 M 3910.759 1014.6 4079.474 1014.6 M 644.94 989.731 819.899 989.731 M 951.749 989.731 1804.165 989.731 M 1935.98 989.731 2788.433 989.731 M 2920.248 989.731 3772.664 989.731 M 3904.479 989.731 4079.474 989.731 M 644.94 964.862 839.133 964.862 M 932.514 964.862 1823.4 964.862 M 1916.747 964.862 2807.631 964.862 M 2901.014 964.862 3791.899 964.862 M 3885.281 964.862 4079.474 964.862 M 644.94 939.993 4079.474 939.993 M 644.94 915.125 4079.474 915.125 M 644.94 890.256 4079.474 890.256 M 644.94 865.387 4079.474 865.387 M 644.94 840.518 4079.474 840.518 M 644.94 815.65 4079.474 815.65 M 644.94 790.781 4079.474 790.781 M 644.94 765.912 4079.474 765.912 M 644.94 741.043 833.534 741.043 M 938.113 741.043 1817.802 741.043 M 1922.381 741.043 2802.033 741.043 M 2906.612 741.043 3786.301 741.043 M 3890.879 741.043 4079.474 741.043 M 644.94 716.175 817.818 716.175 M 953.866 716.175 1802.049 716.175 M 1938.097 716.175 2786.316 716.175 M 2922.365 716.175 3770.547 716.175 M 3906.596 716.175 4079.474 716.175 M 644.94 691.306 813.547 691.306 M 958.136 691.306 1797.778 691.306 M 1942.367 691.306 2782.046 691.306 M 2926.635 691.306 3766.277 691.306 M 3910.866 691.306 4079.474 691.306 M 644.94 666.437 818.427 666.437 M 953.22 666.437 1802.694 666.437 M 1937.488 666.437 2786.927 666.437 M 2921.719 666.437 3771.193 666.437 M 3905.987 666.437 4079.474 666.437 M 644.94 641.568 835.22 641.568 M 936.462 641.568 1819.453 641.568 M 1920.694 641.568 2803.719 641.568 M 2904.961 641.568 3787.951 641.568 M 3889.193 641.568 4079.474 641.568 M 644.94 616.699 4079.474 616.699 M 644.94 591.831 4079.474 591.831 M 644.94 566.962 4079.474 566.962 M 644.94 542.093 4079.474 542.093 M 644.94 517.224 4079.474 517.224 M 644.94 492.356 4079.474 492.356 M 644.94 467.487 4079.474 467.487 M 644.94 442.618 4079.474 442.618 M 955.411 686.65 953.697 675.832 950.312 665.415 945.34 655.656 938.903 646.795 931.157 639.05 922.297 632.613 912.538 627.64 902.121 624.256 891.303 622.542 880.35 622.542 869.533 624.256 859.115 627.64 849.357 632.613 840.496 639.05 832.751 646.795 826.314 655.656 821.341 665.415 817.957 675.832 816.243 686.65 816.243 697.602 817.957 708.42 821.341 718.837 826.314 728.596 832.751 737.457 840.496 745.202 849.357 751.639 859.115 756.612 869.533 759.996 880.35 761.71 891.303 761.71 902.121 759.996 912.538 756.612 922.297 751.639 931.157 745.202 938.903 737.457 945.34 728.596 950.312 718.837 953.697 708.42 955.411 697.602 955.411 686.65 M 955.411 1013.421 953.697 1002.604 950.312 992.186 945.34 982.428 938.903 973.567 931.157 965.822 922.297 959.385 912.538 954.412 902.121 951.028 891.303 949.314 880.35 949.314 869.533 951.028 859.115 954.412 849.357 959.385 840.496 965.822 832.751 973.567 826.314 982.428 821.341 992.186 817.957 1002.604 816.243 1013.421 816.243 1024.374 817.957 1035.192 821.341 1045.609 826.314 1055.367 832.751 1064.228 840.496 1071.974 849.357 1078.411 851.835 1079.983 845.615 1083.892 839.843 1088.434 834.579 1093.558 829.882 1099.206 825.806 1105.316 822.394 1111.822 819.684 1118.65 817.707 1125.724 816.484 1132.967 816.03 1140.299 816.349 1147.638 817.437 1154.903 819.283 1162.013 821.866 1168.89 825.156 1175.457 829.119 1181.642 833.711 1187.375 838.879 1192.596 844.567 1197.244 850.713 1201.268 857.247 1204.625 864.097 1207.276 871.189 1209.192 878.442 1210.352 885.777 1210.744 893.113 1210.362 900.367 1209.213 907.462 1207.306 914.316 1204.665 920.856 1201.318 927.007 1197.303 932.701 1192.663 937.877 1187.45 942.476 1181.722 946.448 1175.543 949.748 1168.98 952.34 1162.108 954.197 1155 955.295 1147.738 955.602 1139.108 955.022 1131.785 953.676 1124.564 951.579 1117.524 948.753 1110.743 945.231 1104.297 941.051 1098.257 936.259 1092.69 930.908 1087.657 925.058 1083.214 919.71 1079.928 926.854 1075.366 935.182 1068.253 942.295 1059.925 948.018 1050.585 952.21 1040.467 954.766 1029.816 955.626 1018.898 955.411 1013.421 M 1939.663 686.65 1937.949 675.832 1934.564 665.415 1929.592 655.656 1923.155 646.795 1915.409 639.05 1906.549 632.613 1896.79 627.64 1886.373 624.256 1875.555 622.542 1864.602 622.542 1853.785 624.256 1843.367 627.64 1833.609 632.613 1824.748 639.05 1817.003 646.795 1810.566 655.656 1805.593 665.415 1802.209 675.832 1800.495 686.65 1800.495 697.602 1802.209 708.42 1805.593 718.837 1810.566 728.596 1817.003 737.457 1824.748 745.202 1833.609 751.639 1843.367 756.612 1853.785 759.996 1864.602 761.71 1875.555 761.71 1886.373 759.996 1896.79 756.612 1906.549 751.639 1915.409 745.202 1923.155 737.457 1929.592 728.596 1934.564 718.837 1937.949 708.42 1939.663 697.602 1939.663 686.65 M 1939.663 1013.421 1937.949 1002.604 1934.564 992.186 1929.592 982.428 1923.155 973.567 1915.409 965.822 1906.549 959.385 1896.79 954.412 1886.373 951.028 1875.555 949.314 1864.602 949.314 1853.785 951.028 1843.367 954.412 1833.609 959.385 1824.748 965.822 1817.003 973.567 1810.566 982.428 1805.593 992.186 1802.209 1002.604 1800.495 1013.421 1800.495 1024.374 1802.209 1035.192 1805.593 1045.609 1810.566 1055.367 1817.003 1064.228 1824.748 1071.974 1833.609 1078.411 1836.087 1079.983 1829.867 1083.892 1824.094 1088.434 1818.831 1093.558 1814.134 1099.206 1810.058 1105.316 1806.646 1111.822 1803.936 1118.65 1801.959 1125.724 1800.736 1132.967 1800.282 1140.299 1800.601 1147.638 1801.689 1154.903 1803.535 1162.013 1806.118 1168.89 1809.408 1175.457 1813.371 1181.642 1817.963 1187.375 1823.131 1192.596 1828.819 1197.244 1834.965 1201.268 1841.499 1204.625 1848.349 1207.276 1855.441 1209.192 1862.694 1210.352 1870.029 1210.744 1877.365 1210.362 1884.619 1209.213 1891.714 1207.306 1898.568 1204.665 1905.108 1201.318 1911.259 1197.303 1916.953 1192.663 1922.129 1187.45 1926.728 1181.722 1930.699 1175.543 1934 1168.98 1936.592 1162.108 1938.449 1155 1939.547 1147.738 1939.854 1139.108 1939.274 1131.785 1937.928 1124.564 1935.831 1117.524 1933.005 1110.743 1929.483 1104.297 1925.303 1098.257 1920.51 1092.69 1915.16 1087.657 1909.31 1083.214 1903.962 1079.928 1911.106 1075.366 1919.434 1068.253 1926.547 1059.925 1932.27 1050.585 1936.462 1040.467 1939.018 1029.816 1939.878 1018.898 1939.663 1013.421 M 2923.915 686.65 2922.201 675.832 2918.816 665.415 2913.844 655.656 2907.407 646.795 2899.661 639.05 2890.801 632.613 2881.042 627.64 2870.625 624.256 2859.807 622.542 2848.854 622.542 2838.037 624.256 2827.619 627.64 2817.861 632.613 2809 639.05 2801.255 646.795 2794.818 655.656 2789.845 665.415 2786.461 675.832 2784.747 686.65 2784.747 697.602 2786.461 708.42 2789.845 718.837 2794.818 728.596 2801.255 737.457 2809 745.202 2817.861 751.639 2827.619 756.612 2838.037 759.996 2848.854 761.71 2859.807 761.71 2870.625 759.996 2881.042 756.612 2890.801 751.639 2899.661 745.202 2907.407 737.457 2913.844 728.596 2918.816 718.837 2922.201 708.42 2923.915 697.602 2923.915 686.65 M 2923.915 1013.421 2922.201 1002.604 2918.816 992.186 2913.844 982.428 2907.407 973.567 2899.661 965.822 2890.801 959.385 2881.042 954.412 2870.625 951.028 2859.807 949.314 2848.854 949.314 2838.037 951.028 2827.619 954.412 2817.861 959.385 2809 965.822 2801.255 973.567 2794.818 982.428 2789.845 992.186 2786.461 1002.604 2784.747 1013.421 2784.747 1024.374 2786.461 1035.192 2789.845 1045.609 2794.818 1055.367 2801.255 1064.228 2809 1071.974 2817.861 1078.411 2820.339 1079.983 2814.119 1083.892 2808.346 1088.434 2803.083 1093.558 2798.386 1099.206 2794.31 1105.316 2790.898 1111.822 2788.188 1118.65 2786.211 1125.724 2784.988 1132.967 2784.534 1140.299 2784.853 1147.638 2785.941 1154.903 2787.787 1162.013 2790.37 1168.89 2793.66 1175.457 2797.623 1181.642 2802.215 1187.375 2807.383 1192.596 2813.071 1197.244 2819.217 1201.268 2825.751 1204.625 2832.601 1207.276 2839.693 1209.192 2846.946 1210.352 2854.281 1210.744 2861.617 1210.362 2868.871 1209.213 2875.966 1207.306 2882.82 1204.665 2889.36 1201.318 2895.51 1197.303 2901.205 1192.663 2906.381 1187.45 2910.98 1181.722 2914.951 1175.543 2918.252 1168.98 2920.844 1162.108 2922.701 1155 2923.799 1147.738 2924.106 1139.108 2923.526 1131.785 2922.18 1124.564 2920.083 1117.524 2917.257 1110.743 2913.735 1104.297 2909.555 1098.257 2904.762 1092.69 2899.412 1087.657 2893.562 1083.214 2888.214 1079.928 2895.358 1075.366 2903.686 1068.253 2910.799 1059.925 2916.522 1050.585 2920.714 1040.467 2923.27 1029.816 2924.13 1018.898 2923.915 1013.421 M 3908.167 686.65 3906.453 675.832 3903.068 665.415 3898.096 655.656 3891.659 646.795 3883.913 639.05 3875.052 632.613 3865.294 627.64 3854.877 624.256 3844.059 622.542 3833.106 622.542 3822.289 624.256 3811.871 627.64 3802.113 632.613 3793.252 639.05 3785.507 646.795 3779.07 655.656 3774.097 665.415 3770.713 675.832 3768.999 686.65 3768.999 697.602 3770.713 708.42 3774.097 718.837 3779.07 728.596 3785.507 737.457 3793.252 745.202 3802.113 751.639 3811.871 756.612 3822.289 759.996 3833.106 761.71 3844.059 761.71 3854.877 759.996 3865.294 756.612 3875.052 751.639 3883.913 745.202 3891.659 737.457 3898.096 728.596 3903.068 718.837 3906.453 708.42 3908.167 697.602 3908.167 686.65 M 3908.167 1013.421 3906.453 1002.604 3903.068 992.186 3898.096 982.428 3891.659 973.567 3883.913 965.822 3875.052 959.385 3865.294 954.412 3854.877 951.028 3844.059 949.314 3833.106 949.314 3822.289 951.028 3811.871 954.412 3802.113 959.385 3793.252 965.822 3785.507 973.567 3779.07 982.428 3774.097 992.186 3770.713 1002.604 3768.999 1013.421 3768.999 1024.374 3770.713 1035.192 3774.097 1045.609 3779.07 1055.367 3785.507 1064.228 3793.252 1071.974 3802.113 1078.411 3804.591 1079.983 3798.371 1083.892 3792.598 1088.434 3787.335 1093.558 3782.638 1099.206 3778.562 1105.316 3775.15 1111.822 3772.44 1118.65 3770.463 1125.724 3769.24 1132.967 3768.786 1140.299 3769.105 1147.638 3770.193 1154.903 3772.039 1162.013 3774.622 1168.89 3777.912 1175.457 3781.875 1181.642 3786.467 1187.375 3791.635 1192.596 3797.323 1197.244 3803.469 1201.268 3810.003 1204.625 3816.853 1207.276 3823.945 1209.192 3831.198 1210.352 3838.533 1210.744 3845.869 1210.362 3853.123 1209.213 3860.218 1207.306 3867.072 1204.665 3873.612 1201.318 3879.762 1197.303 3885.457 1192.663 3890.633 1187.45 3895.232 1181.722 3899.203 1175.543 3902.504 1168.98 3905.096 1162.108 3906.953 1155 3908.051 1147.738 3908.358 1139.108 3907.778 1131.785 3906.432 1124.564 3904.335 1117.524 3901.509 1110.743 3897.987 1104.297 3893.807 1098.257 3889.014 1092.69 3883.664 1087.657 3877.814 1083.214 3872.466 1079.928 3879.61 1075.366 3887.938 1068.253 3895.051 1059.925 3900.774 1050.585 3904.966 1040.467 3907.522 1029.816 3908.382 1018.898 3908.167 1013.421 M 642.445 433.76 4082.016 433.76 4081.988 1337.921 642.394 1337.894 642.421 433.732" fill="none" stroke-width="25"/><path d="M 885.827 1210.709 885.827 1140.945 M 816.063 1140.945 955.591 1140.945 M 1870.079 1210.709 1870.079 1140.945 M 1800.315 1140.945 1939.843 1140.945 M 2854.331 1210.709 2854.331 1140.945 M 2784.567 1140.945 2924.094 1140.945 M 3838.583 1210.709 3838.583 1140.945 M 3768.819 1140.945 3908.346 1140.945" fill="none" stroke-width="20"/><use xlink:href="#EDwssYvm3drj9AFDUT3z_pad-34" x="885.827" y="692.126"/><use xlink:href="#EDwssYvm3drj9AFDUT3z_pad-34" x="885.827" y="1018.898"/><use xlink:href="#EDwssYvm3drj9AFDUT3z_pad-34" x="885.827" y="1140.945"/><use xlink:href="#EDwssYvm3drj9AFDUT3z_pad-34" x="1870.079" y="692.126"/><use xlink:href="#EDwssYvm3drj9AFDUT3z_pad-34" x="1870.079" y="1018.898"/><use xlink:href="#EDwssYvm3drj9AFDUT3z_pad-34" x="1870.079" y="1140.945"/><use xlink:href="#EDwssYvm3drj9AFDUT3z_pad-34" x="2854.331" y="692.126"/><use xlink:href="#EDwssYvm3drj9AFDUT3z_pad-34" x="2854.331" y="1018.898"/><use xlink:href="#EDwssYvm3drj9AFDUT3z_pad-34" x="2854.331" y="1140.945"/><use xlink:href="#EDwssYvm3drj9AFDUT3z_pad-34" x="3838.583" y="692.126"/><use xlink:href="#EDwssYvm3drj9AFDUT3z_pad-34" x="3838.583" y="1018.898"/><use xlink:href="#EDwssYvm3drj9AFDUT3z_pad-34" x="3838.583" y="1140.945"/></g><g id="zXnU3rqSayR-txS4FrFJ_bottom_soldermask"><use xlink:href="#UtDHuBR7xHCiA5N-0w5Y_pad-35" x="511.811" y="511.811"/><use xlink:href="#UtDHuBR7xHCiA5N-0w5Y_pad-35" x="511.811" y="1259.843"/><use xlink:href="#UtDHuBR7xHCiA5N-0w5Y_pad-35" x="4212.598" y="1259.843"/><use xlink:href="#UtDHuBR7xHCiA5N-0w5Y_pad-35" x="4212.598" y="511.811"/><use xlink:href="#UtDHuBR7xHCiA5N-0w5Y_pad-38" x="885.827" y="692.126"/><use xlink:href="#UtDHuBR7xHCiA5N-0w5Y_pad-38" x="885.827" y="1018.898"/><use xlink:href="#UtDHuBR7xHCiA5N-0w5Y_pad-38" x="885.827" y="1140.945"/><use xlink:href="#UtDHuBR7xHCiA5N-0w5Y_pad-38" x="1870.079" y="692.126"/><use xlink:href="#UtDHuBR7xHCiA5N-0w5Y_pad-38" x="1870.079" y="1018.898"/><use xlink:href="#UtDHuBR7xHCiA5N-0w5Y_pad-38" x="1870.079" y="1140.945"/><use xlink:href="#UtDHuBR7xHCiA5N-0w5Y_pad-38" x="2854.331" y="692.126"/><use xlink:href="#UtDHuBR7xHCiA5N-0w5Y_pad-38" x="2854.331" y="1018.898"/><use xlink:href="#UtDHuBR7xHCiA5N-0w5Y_pad-38" x="2854.331" y="1140.945"/><use xlink:href="#UtDHuBR7xHCiA5N-0w5Y_pad-38" x="3838.583" y="692.126"/><use xlink:href="#UtDHuBR7xHCiA5N-0w5Y_pad-38" x="3838.583" y="1018.898"/><use xlink:href="#UtDHuBR7xHCiA5N-0w5Y_pad-38" x="3838.583" y="1140.945"/></g><g id="zXnU3rqSayR-txS4FrFJ_bottom_silkscreen"><path d="M 814.978 885.828 A 70.849 70.849 0 0 0 956.676 885.828 70.849 70.849 0 0 0 814.978 885.828 M 754.577 698.346 1017.077 698.346 1017.077 1023.301 754.577 1023.301 754.577 698.346 M 835.899 698.293 935.833 698.293 935.833 750.123 835.899 750.123 835.899 698.293 M 775.577 885.828 A 110.25 110.25 0 0 0 996.077 885.828 110.25 110.25 0 0 0 775.577 885.828 M 1799.23 885.828 A 70.849 70.849 0 0 0 1940.928 885.828 70.849 70.849 0 0 0 1799.23 885.828 M 1738.829 698.346 2001.329 698.346 2001.329 1023.301 1738.829 1023.301 1738.829 698.346 M 1820.151 698.293 1920.085 698.293 1920.085 750.123 1820.151 750.123 1820.151 698.293 M 1759.829 885.828 A 110.25 110.25 0 0 0 1980.329 885.828 110.25 110.25 0 0 0 1759.829 885.828 M 2783.482 885.828 A 70.849 70.849 0 0 0 2925.18 885.828 70.849 70.849 0 0 0 2783.482 885.828 M 2723.081 698.346 2985.581 698.346 2985.581 1023.301 2723.081 1023.301 2723.081 698.346 M 2804.403 698.293 2904.337 698.293 2904.337 750.123 2804.403 750.123 2804.403 698.293 M 2744.081 885.828 A 110.25 110.25 0 0 0 2964.581 885.828 110.25 110.25 0 0 0 2744.081 885.828 M 3767.734 885.828 A 70.849 70.849 0 0 0 3909.432 885.828 70.849 70.849 0 0 0 3767.734 885.828 M 3707.333 698.346 3969.833 698.346 3969.833 1023.301 3707.333 1023.301 3707.333 698.346 M 3788.655 698.293 3888.589 698.293 3888.589 750.123 3788.655 750.123 3788.655 698.293 M 3728.333 885.828 A 110.25 110.25 0 0 0 3948.833 885.828 110.25 110.25 0 0 0 3728.333 885.828" fill="none" stroke-width="5.906"/></g><g id="zXnU3rqSayR-txS4FrFJ_bottom_drill1"><use xlink:href="#k47VFCh31aC8ef3sNSIJ_pad-1" x="885.8" y="692.1"/><use xlink:href="#k47VFCh31aC8ef3sNSIJ_pad-1" x="885.8" y="1018.9"/><use xlink:href="#k47VFCh31aC8ef3sNSIJ_pad-1" x="885.8" y="1140.9"/><use xlink:href="#k47VFCh31aC8ef3sNSIJ_pad-1" x="1870.1" y="1140.9"/><use xlink:href="#k47VFCh31aC8ef3sNSIJ_pad-1" x="1870.1" y="1018.9"/><use xlink:href="#k47VFCh31aC8ef3sNSIJ_pad-1" x="1870.1" y="692.1"/><use xlink:href="#k47VFCh31aC8ef3sNSIJ_pad-1" x="2854.3" y="692.1"/><use xlink:href="#k47VFCh31aC8ef3sNSIJ_pad-1" x="2854.3" y="1018.9"/><use xlink:href="#k47VFCh31aC8ef3sNSIJ_pad-1" x="2854.3" y="1140.9"/><use xlink:href="#k47VFCh31aC8ef3sNSIJ_pad-1" x="3838.6" y="1140.9"/><use xlink:href="#k47VFCh31aC8ef3sNSIJ_pad-1" x="3838.6" y="1018.9"/><use xlink:href="#k47VFCh31aC8ef3sNSIJ_pad-1" x="3838.6" y="692.1"/><use xlink:href="#k47VFCh31aC8ef3sNSIJ_pad-2" x="511.8" y="511.8"/><use xlink:href="#k47VFCh31aC8ef3sNSIJ_pad-2" x="511.8" y="1259.8"/><use xlink:href="#k47VFCh31aC8ef3sNSIJ_pad-2" x="4212.6" y="1259.8"/><use xlink:href="#k47VFCh31aC8ef3sNSIJ_pad-2" x="4212.6" y="511.8"/></g><clipPath id="zXnU3rqSayR-txS4FrFJ_bottom_outline"><path d="M 393.701 393.701 4330.709 393.701 4330.709 1377.953 393.701 1377.953 393.701 393.701" fill="none" stroke-width="5.512"/></clipPath><mask id="zXnU3rqSayR-txS4FrFJ_bottom_mech-mask"><g fill="#000" stroke="#000"><rect x="393.701" y="393.701" width="3937.008" height="984.252" fill="#fff"/><use xlink:href="#zXnU3rqSayR-txS4FrFJ_bottom_drill1"/></g></mask><mask id="zXnU3rqSayR-txS4FrFJ_bottom_cf-mask"><g fill="#fff" stroke="#fff"><use xlink:href="#zXnU3rqSayR-txS4FrFJ_bottom_soldermask"/></g></mask><mask id="zXnU3rqSayR-txS4FrFJ_bottom_sm-mask"><g fill="#000" stroke="#000"><rect x="393.701" y="393.701" width="3937.008" height="984.252" fill="#fff"/><use xlink:href="#zXnU3rqSayR-txS4FrFJ_bottom_soldermask"/></g></mask></defs><g transform="translate(0,1771.654) scale(1,-1)"><g mask="url(#zXnU3rqSayR-txS4FrFJ_bottom_mech-mask)" clip-path="url(#zXnU3rqSayR-txS4FrFJ_bottom_outline)" transform="translate(4724.41,0) scale(-1,1)"><rect x="393.701" y="393.701" width="3937.008" height="984.252" fill="currentColor" class="zXnU3rqSayR-txS4FrFJ_fr4"/><use xlink:href="#zXnU3rqSayR-txS4FrFJ_bottom_copper" fill="currentColor" stroke="currentColor" class="zXnU3rqSayR-txS4FrFJ_cu"/><use xlink:href="#zXnU3rqSayR-txS4FrFJ_bottom_copper" fill="currentColor" stroke="currentColor" class="zXnU3rqSayR-txS4FrFJ_cf" mask="url(#zXnU3rqSayR-txS4FrFJ_bottom_cf-mask)"/><g mask="url(#zXnU3rqSayR-txS4FrFJ_bottom_sm-mask)"><rect x="393.701" y="393.701" width="3937.008" height="984.252" fill="currentColor" class="zXnU3rqSayR-txS4FrFJ_sm"/><use xlink:href="#zXnU3rqSayR-txS4FrFJ_bottom_silkscreen" fill="currentColor" stroke="currentColor" class="zXnU3rqSayR-txS4FrFJ_ss"/></g></g></g></svg>