<svg version="1.1" xmlns="http://www.w3.org/2000/svg" xmlns:xlink="http://www.w3.org/1999/xlink" stroke-linecap="round" stroke-linejoin="round" stroke-width="0" fill-rule="evenodd" width="3.2211619999999996in" height="0.330914in" viewBox="751.624 695.34 3221.162 330.914" id="XeScH0hDk3prkEiHMX-c"><g transform="translate(0,1721.594) scale(1,-1)" fill="currentColor" stroke="currentColor"><path d="M 814.978 885.828 A 70.849 70.849 0 0 0 956.676 885.828 70.849 70.849 0 0 0 814.978 885.828 M 754.577 698.346 1017.077 698.346 1017.077 1023.301 754.577 1023.301 754.577 698.346 M 835.899 698.293 935.833 698.293 935.833 750.123 835.899 750.123 835.899 698.293 M 775.577 885.828 A 110.25 110.25 0 0 0 996.077 885.828 110.25 110.25 0 0 0 775.577 885.828 M 1799.23 885.828 A 70.849 70.849 0 0 0 1940.928 885.828 70.849 70.849 0 0 0 1799.23 885.828 M 1738.829 698.346 2001.329 698.346 2001.329 1023.301 1738.829 1023.301 1738.829 698.346 M 1820.151 698.293 1920.085 698.293 1920.085 750.123 1820.151 750.123 1820.151 698.293 M 1759.829 885.828 A 110.25 110.25 0 0 0 1980.329 885.828 110.25 110.25 0 0 0 1759.829 885.828 M 2783.482 885.828 A 70.849 70.849 0 0 0 2925.18 885.828 70.849 70.849 0 0 0 2783.482 885.828 M 2723.081 698.346 2985.581 698.346 2985.581 1023.301 2723.081 1023.301 2723.081 698.346 M 2804.403 698.293 2904.337 698.293 2904.337 750.123 2804.403 750.123 2804.403 698.293 M 2744.081 885.828 A 110.25 110.25 0 0 0 2964.581 885.828 110.25 110.25 0 0 0 2744.081 885.828 M 3767.734 885.828 A 70.849 70.849 0 0 0 3909.432 885.828 70.849 70.849 0 0 0 3767.734 885.828 M 3707.333 698.346 3969.833 698.346 3969.833 1023.301 3707.333 1023.301 3707.333 698.346 M 3788.655 698.293 3888.589 698.293 3888.589 750.123 3788.655 750.123 3788.655 698.293 M 3728.333 885.828 A 110.25 110.25 0 0 0 3948.833 885.828 110.25 110.25 0 0 0 3728.333 885.828" fill="none" stroke-width="5.906"/></g></svg>