<svg version="1.1" xmlns="http://www.w3.org/2000/svg" xmlns:xlink="http://www.w3.org/1999/xlink" stroke-linecap="round" stroke-linejoin="round" stroke-width="0" fill-rule="evenodd" width="3.464607in" height="0.929106in" viewBox="629.909 421.243 3464.607 929.106" id="iI7JwFn_KPWzL1GYoE5o"><defs><rect x="-35.433" y="-31.496" width="70.866" height="62.992" id="iI7JwFn_KPWzL1GYoE5o_pad-16"/><rect x="-62.5985" y="-25" width="125.197" height="50" id="iI7JwFn_KPWzL1GYoE5o_pad-18"/><circle cx="0" cy="0" r="43.307" id="iI7JwFn_KPWzL1GYoE5o_pad-34"/></defs><g transform="translate(0,1771.592) scale(1,-1)" fill="currentColor" stroke="currentColor"><path d="M 3838.583 692.126 3728.108 692.126 3727.961 691.979 M 1401.238 935.827 3414.615 935.827 3658.463 691.979 3727.961 691.979 M 2854.331 692.126 2743.728 692.126 2743.581 691.979 M 1276.041 835.827 1462.946 835.827 1532.501 905.381 1956.82 905.381 2170.223 691.979 2743.581 691.979 M 1870.079 692.126 1756.239 692.126 1756.092 691.979 M 1401.238 735.827 1627.175 735.827 1671.022 691.979 1756.092 691.979 M 885.827 692.126 999.913 692.126 1000.06 691.979 M 1276.041 635.827 1131.255 635.827 1075.102 691.979 1000.06 691.979" fill="none" stroke-width="12"/><path d="M 644.94 1313.025 4079.474 1313.025 M 644.94 1288.156 4079.474 1288.156 M 644.94 1263.287 4079.474 1263.287 M 644.94 1238.419 4079.474 1238.419 M 644.94 1213.55 4079.474 1213.55 M 644.94 1188.681 832.386 1188.681 M 939.261 1188.681 1816.654 1188.681 M 1923.492 1188.681 2800.921 1188.681 M 2907.76 1188.681 3785.152 1188.681 M 3891.992 1188.681 4079.474 1188.681 M 644.94 1163.812 817.387 1163.812 M 954.261 1163.812 1309.646 1163.812 M 1492.811 1163.812 1801.618 1163.812 M 1938.529 1163.812 2785.886 1163.812 M 2922.795 1163.812 3770.152 1163.812 M 3907.028 1163.812 4079.474 1163.812 M 644.94 1138.944 813.547 1138.944 M 958.101 1138.944 1309.646 1138.944 M 1492.811 1138.944 1797.814 1138.944 M 1942.332 1138.944 2782.046 1138.944 M 2926.6 1138.944 3766.314 1138.944 M 3910.866 1138.944 4079.474 1138.944 M 644.94 1114.075 818.894 1114.075 M 952.753 1114.075 1309.646 1114.075 M 1492.811 1114.075 1803.161 1114.075 M 1936.986 1114.075 2787.428 1114.075 M 2921.252 1114.075 3771.66 1114.075 M 3905.52 1114.075 4079.474 1114.075 M 644.94 1089.206 836.476 1089.206 M 935.171 1089.206 1309.646 1089.206 M 1492.811 1089.206 1820.744 1089.206 M 1919.438 1089.206 2804.975 1089.206 M 2903.669 1089.206 3789.243 1089.206 M 3887.937 1089.206 4079.474 1089.206 M 644.94 1064.337 830.341 1064.337 M 941.307 1064.337 1184.446 1064.337 M 1367.647 1064.337 1814.608 1064.337 M 1925.573 1064.337 2798.84 1064.337 M 2909.806 1064.337 3783.106 1064.337 M 3894.073 1064.337 4079.474 1064.337 M 644.94 1039.469 816.633 1039.469 M 955.014 1039.469 1184.446 1039.469 M 1367.647 1039.469 1800.865 1039.469 M 1939.282 1039.469 2785.131 1039.469 M 2923.513 1039.469 3769.399 1039.469 M 3907.781 1039.469 4079.474 1039.469 M 644.94 1014.6 813.655 1014.6 M 957.993 1014.6 1184.446 1014.6 M 1367.647 1014.6 1797.921 1014.6 M 1942.26 1014.6 2782.154 1014.6 M 2926.492 1014.6 3766.421 1014.6 M 3910.759 1014.6 4079.474 1014.6 M 644.94 989.731 819.899 989.731 M 951.749 989.731 1184.446 989.731 M 1367.647 989.731 1804.165 989.731 M 1935.98 989.731 2788.433 989.731 M 2920.248 989.731 3772.664 989.731 M 3904.479 989.731 4079.474 989.731 M 644.94 964.862 839.133 964.862 M 932.514 964.862 1309.646 964.862 M 3431.705 964.862 3791.899 964.862 M 3885.281 964.862 4079.474 964.862 M 644.94 939.993 1309.646 939.993 M 3458.906 939.993 4079.474 939.993 M 644.94 915.125 1309.646 915.125 M 3483.773 915.125 4079.474 915.125 M 644.94 890.256 1309.646 890.256 M 2020.381 890.256 3411.741 890.256 M 3508.64 890.256 4079.474 890.256 M 644.94 865.387 1184.446 865.387 M 1540.967 865.387 1948.348 865.387 M 2045.248 865.387 3436.609 865.387 M 3533.509 865.387 4079.474 865.387 M 644.94 840.518 935.625 840.518 M 1064.497 840.518 1184.446 840.518 M 1516.1 840.518 1691.669 840.518 M 1820.505 840.518 1973.217 840.518 M 2070.151 840.518 2679.165 840.518 M 2808.003 840.518 3461.476 840.518 M 3558.377 840.518 3663.541 840.518 M 3792.377 840.518 4079.474 840.518 M 644.94 815.65 935.625 815.65 M 1064.497 815.65 1184.446 815.65 M 1491.232 815.65 1691.669 815.65 M 1820.505 815.65 1998.084 815.65 M 2095.02 815.65 2679.165 815.65 M 2808.003 815.65 3486.345 815.65 M 3583.244 815.65 3663.541 815.65 M 3792.377 815.65 4079.474 815.65 M 644.94 790.781 935.625 790.781 M 1064.497 790.781 1184.446 790.781 M 1367.647 790.781 1691.669 790.781 M 1820.505 790.781 2022.987 790.781 M 2119.887 790.781 2679.165 790.781 M 2808.003 790.781 3511.213 790.781 M 3608.112 790.781 3663.541 790.781 M 3792.377 790.781 4079.474 790.781 M 644.94 765.912 935.625 765.912 M 1064.497 765.912 1309.646 765.912 M 1641.945 765.912 1691.669 765.912 M 1820.505 765.912 2047.856 765.912 M 2144.755 765.912 2679.165 765.912 M 2808.003 765.912 3536.08 765.912 M 3632.979 765.912 3663.541 765.912 M 3792.377 765.912 4079.474 765.912 M 644.94 741.043 833.534 741.043 M 1064.497 741.043 1309.646 741.043 M 1670.402 741.043 1691.669 741.043 M 1922.381 741.043 2072.723 741.043 M 2169.622 741.043 2679.165 741.043 M 2906.612 741.043 3560.948 741.043 M 3890.879 741.043 4079.474 741.043 M 644.94 716.175 817.818 716.175 M 1099.304 716.175 1309.646 716.175 M 1938.097 716.175 2097.591 716.175 M 2922.365 716.175 3585.815 716.175 M 3906.596 716.175 4079.474 716.175 M 644.94 691.306 813.547 691.306 M 1124.244 691.306 1309.646 691.306 M 1492.811 691.306 1623.238 691.306 M 1942.367 691.306 2122.458 691.306 M 2926.635 691.306 3610.684 691.306 M 3910.866 691.306 4079.474 691.306 M 644.94 666.437 818.427 666.437 M 1367.647 666.437 1648.428 666.437 M 1937.488 666.437 2147.65 666.437 M 2921.719 666.437 3635.874 666.437 M 3905.987 666.437 4079.474 666.437 M 644.94 641.568 835.22 641.568 M 1064.497 641.568 1077.045 641.568 M 1367.647 641.568 1691.669 641.568 M 1920.694 641.568 2679.165 641.568 M 2904.961 641.568 3663.541 641.568 M 3889.193 641.568 4079.474 641.568 M 644.94 616.699 1101.948 616.699 M 1367.647 616.699 4079.474 616.699 M 644.94 591.831 1184.446 591.831 M 1367.647 591.831 4079.474 591.831 M 644.94 566.962 4079.474 566.962 M 644.94 542.093 4079.474 542.093 M 644.94 517.224 4079.474 517.224 M 644.94 492.356 4079.474 492.356 M 644.94 467.487 4079.474 467.487 M 644.94 442.618 4079.474 442.618 M 1196.136 687.319 1312.15 687.319 1312.147 784.344 1186.95 784.335 1186.95 887.319 1312.15 887.319 1312.147 984.344 1186.95 984.335 1186.95 1087.319 1312.15 1087.319 1312.147 1187.319 1490.328 1187.319 1490.328 1084.335 1365.129 1084.335 1365.131 987.31 1490.328 987.319 1490.328 968.336 1821.979 968.319 1817.003 973.567 1810.566 982.428 1805.593 992.186 1802.209 1002.604 1800.495 1013.421 1800.495 1024.374 1802.209 1035.192 1805.593 1045.609 1810.566 1055.367 1817.003 1064.228 1824.748 1071.974 1833.609 1078.411 1836.087 1079.983 1829.867 1083.892 1824.094 1088.434 1818.831 1093.558 1814.134 1099.206 1810.058 1105.316 1806.646 1111.822 1803.936 1118.65 1801.959 1125.724 1800.736 1132.967 1800.282 1140.299 1800.601 1147.638 1801.689 1154.903 1803.535 1162.013 1806.118 1168.89 1809.408 1175.457 1813.371 1181.642 1817.963 1187.375 1823.131 1192.596 1828.819 1197.244 1834.965 1201.268 1841.499 1204.625 1848.349 1207.276 1855.441 1209.192 1862.694 1210.352 1870.029 1210.744 1877.365 1210.362 1884.619 1209.213 1891.714 1207.306 1898.568 1204.665 1905.108 1201.318 1911.259 1197.303 1916.953 1192.663 1922.129 1187.45 1926.728 1181.722 1930.699 1175.543 1934 1168.98 1936.592 1162.108 1938.449 1155 1939.547 1147.738 1939.854 1139.108 1939.274 1131.785 1937.928 1124.564 1935.831 1117.524 1933.005 1110.743 1929.483 1104.297 1925.303 1098.257 1920.51 1092.69 1915.16 1087.657 1909.31 1083.214 1903.962 1079.928 1911.106 1075.366 1919.434 1068.253 1926.547 1059.925 1932.27 1050.585 1936.462 1040.467 1939.018 1029.816 1939.878 1018.898 1939.018 1007.979 1936.462 997.328 1932.27 987.21 1926.547 977.87 1919.434 969.542 1918.098 968.307 2806.211 968.319 2801.255 973.567 2794.818 982.428 2789.845 992.186 2786.461 1002.604 2784.747 1013.421 2784.747 1024.374 2786.461 1035.192 2789.845 1045.609 2794.818 1055.367 2801.255 1064.228 2809 1071.974 2817.861 1078.411 2820.339 1079.983 2814.119 1083.892 2808.346 1088.434 2803.083 1093.558 2798.386 1099.206 2794.31 1105.316 2790.898 1111.822 2788.188 1118.65 2786.211 1125.724 2784.988 1132.967 2784.534 1140.299 2784.853 1147.638 2785.941 1154.903 2787.787 1162.013 2790.37 1168.89 2793.66 1175.457 2797.623 1181.642 2802.215 1187.375 2807.383 1192.596 2813.071 1197.244 2819.217 1201.268 2825.751 1204.625 2832.601 1207.276 2839.693 1209.192 2846.946 1210.352 2854.281 1210.744 2861.617 1210.362 2868.871 1209.213 2875.966 1207.306 2882.82 1204.665 2889.36 1201.318 2895.51 1197.303 2901.205 1192.663 2906.381 1187.45 2910.98 1181.722 2914.951 1175.543 2918.252 1168.98 2920.844 1162.108 2922.701 1155 2923.799 1147.738 2924.106 1139.108 2923.526 1131.785 2922.18 1124.564 2920.083 1117.524 2917.257 1110.743 2913.735 1104.297 2909.555 1098.257 2904.762 1092.69 2899.412 1087.657 2893.562 1083.214 2888.214 1079.928 2895.358 1075.366 2903.686 1068.253 2910.799 1059.925 2916.522 1050.585 2920.714 1040.467 2923.27 1029.816 2924.13 1018.898 2923.27 1007.979 2920.714 997.328 2916.522 987.21 2910.799 977.87 2903.686 969.542 2902.35 968.307 3417.164 968.219 3422.199 967.421 3427.049 965.845 3431.592 963.531 3435.717 960.534 3483.06 913.332 3666.031 730.361 3666.035 860.203 3789.886 860.203 3789.886 742.109 3797.555 748.594 3806.895 754.318 3817.013 758.509 3827.664 761.066 3838.583 761.925 3849.501 761.066 3860.152 758.509 3870.27 754.318 3879.61 748.594 3887.938 741.482 3895.051 733.154 3900.774 723.814 3904.966 713.696 3907.522 703.045 3908.382 692.126 3907.522 681.207 3904.966 670.556 3900.774 660.438 3895.051 651.098 3887.938 642.77 3879.61 635.657 3870.27 629.934 3860.152 625.743 3849.501 623.186 3838.583 622.327 3827.664 623.186 3817.013 625.743 3806.895 629.934 3797.555 635.657 3789.871 642.175 3789.886 633.991 3666.035 633.991 3666.035 659.504 3655.913 659.587 3650.878 660.385 3646.029 661.961 3641.486 664.274 3637.361 667.272 3590.017 714.474 3401.159 903.332 2004.833 903.335 2183.676 724.476 2681.68 724.471 2681.656 860.203 2805.507 860.203 2805.507 742.037 2813.303 748.594 2822.643 754.318 2832.761 758.509 2843.412 761.066 2854.331 761.925 2865.249 761.066 2875.9 758.509 2886.018 754.318 2895.358 748.594 2903.686 741.482 2910.799 733.154 2916.522 723.814 2920.714 713.696 2923.27 703.045 2924.13 692.126 2923.27 681.207 2920.714 670.556 2916.522 660.438 2910.799 651.098 2903.686 642.77 2895.358 635.657 2886.018 629.934 2875.9 625.743 2865.249 623.186 2854.331 622.327 2843.412 623.186 2832.761 625.743 2822.643 629.934 2813.303 635.657 2805.493 642.291 2805.507 633.991 2681.656 633.991 2681.656 659.504 2167.673 659.587 2162.638 660.385 2157.789 661.961 2153.245 664.274 2149.121 667.272 2101.777 714.474 1943.367 872.883 1545.983 872.888 1484.049 811.119 1479.924 808.122 1475.381 805.808 1470.531 804.232 1465.496 803.434 1398.642 803.335 1365.163 803.335 1365.131 787.31 1490.328 787.319 1490.328 768.336 1629.724 768.219 1634.76 767.421 1639.609 765.845 1644.152 763.531 1648.277 760.534 1684.482 724.471 1694.168 724.471 1694.167 860.203 1818.017 860.203 1818.017 738.592 1824.748 745.202 1833.609 751.639 1843.367 756.612 1853.785 759.996 1864.602 761.71 1875.555 761.71 1886.373 759.996 1896.79 756.612 1906.549 751.639 1915.409 745.202 1923.155 737.457 1929.592 728.596 1934.564 718.837 1937.949 708.42 1939.663 697.602 1939.663 686.65 1937.949 675.832 1934.564 665.415 1929.592 655.656 1923.155 646.795 1915.409 639.05 1906.549 632.613 1896.79 627.64 1886.373 624.256 1875.555 622.542 1864.602 622.542 1853.785 624.256 1843.367 627.64 1833.609 632.613 1824.748 639.05 1818.005 645.71 1818.017 633.991 1694.167 633.991 1694.167 659.504 1668.474 659.587 1663.437 660.385 1658.588 661.961 1654.046 664.274 1649.921 667.272 1613.717 703.335 1490.349 703.335 1490.328 684.335 1365.129 684.335 1365.131 584.335 1186.95 584.335 1186.95 603.318 1128.706 603.434 1123.669 604.232 1118.82 605.808 1114.278 608.122 1110.152 611.119 1061.972 659.159 1061.986 633.991 938.135 633.991 938.135 645.94 931.157 639.05 922.297 632.613 912.538 627.64 902.121 624.256 891.303 622.542 880.35 622.542 869.533 624.256 859.115 627.64 849.357 632.613 840.496 639.05 832.751 646.795 826.314 655.656 821.341 665.415 817.957 675.832 816.243 686.65 816.243 697.602 817.957 708.42 821.341 718.837 826.314 728.596 832.751 737.457 840.496 745.202 849.357 751.639 859.115 756.612 869.533 759.996 880.35 761.71 891.303 761.71 902.121 759.996 912.538 756.612 922.297 751.639 931.157 745.202 938.133 738.29 938.135 860.203 1061.986 860.203 1061.986 724.453 1077.652 724.371 1082.688 723.573 1087.537 721.997 1092.08 719.684 1096.205 716.686 1144.69 668.343 1186.983 668.319 1186.95 687.319 1196.136 687.319 M 955.411 1013.421 953.697 1002.604 950.312 992.186 945.34 982.428 938.903 973.567 931.157 965.822 922.297 959.385 912.538 954.412 902.121 951.028 891.303 949.314 880.35 949.314 869.533 951.028 859.115 954.412 849.357 959.385 840.496 965.822 832.751 973.567 826.314 982.428 821.341 992.186 817.957 1002.604 816.243 1013.421 816.243 1024.374 817.957 1035.192 821.341 1045.609 826.314 1055.367 832.751 1064.228 840.496 1071.974 849.357 1078.411 851.835 1079.983 845.615 1083.892 839.843 1088.434 834.579 1093.558 829.882 1099.206 825.806 1105.316 822.394 1111.822 819.684 1118.65 817.707 1125.724 816.484 1132.967 816.03 1140.299 816.349 1147.638 817.437 1154.903 819.283 1162.013 821.866 1168.89 825.156 1175.457 829.119 1181.642 833.711 1187.375 838.879 1192.596 844.567 1197.244 850.713 1201.268 857.247 1204.625 864.097 1207.276 871.189 1209.192 878.442 1210.352 885.777 1210.744 893.113 1210.362 900.367 1209.213 907.462 1207.306 914.316 1204.665 920.856 1201.318 927.007 1197.303 932.701 1192.663 937.877 1187.45 942.476 1181.722 946.448 1175.543 949.748 1168.98 952.34 1162.108 954.197 1155 955.295 1147.738 955.602 1139.108 955.022 1131.785 953.676 1124.564 951.579 1117.524 948.753 1110.743 945.231 1104.297 941.051 1098.257 936.259 1092.69 930.908 1087.657 925.058 1083.214 919.71 1079.928 926.854 1075.366 935.182 1068.253 942.295 1059.925 948.018 1050.585 952.21 1040.467 954.766 1029.816 955.626 1018.898 955.411 1013.421 M 3908.167 1013.421 3906.453 1002.604 3903.068 992.186 3898.096 982.428 3891.659 973.567 3883.913 965.822 3875.052 959.385 3865.294 954.412 3854.877 951.028 3844.059 949.314 3833.106 949.314 3822.289 951.028 3811.871 954.412 3802.113 959.385 3793.252 965.822 3785.507 973.567 3779.07 982.428 3774.097 992.186 3770.713 1002.604 3768.999 1013.421 3768.999 1024.374 3770.713 1035.192 3774.097 1045.609 3779.07 1055.367 3785.507 1064.228 3793.252 1071.974 3802.113 1078.411 3804.591 1079.983 3798.371 1083.892 3792.598 1088.434 3787.335 1093.558 3782.638 1099.206 3778.562 1105.316 3775.15 1111.822 3772.44 1118.65 3770.463 1125.724 3769.24 1132.967 3768.786 1140.299 3769.105 1147.638 3770.193 1154.903 3772.039 1162.013 3774.622 1168.89 3777.912 1175.457 3781.875 1181.642 3786.467 1187.375 3791.635 1192.596 3797.323 1197.244 3803.469 1201.268 3810.003 1204.625 3816.853 1207.276 3823.945 1209.192 3831.198 1210.352 3838.533 1210.744 3845.869 1210.362 3853.123 1209.213 3860.218 1207.306 3867.072 1204.665 3873.612 1201.318 3879.762 1197.303 3885.457 1192.663 3890.633 1187.45 3895.232 1181.722 3899.203 1175.543 3902.504 1168.98 3905.096 1162.108 3906.953 1155 3908.051 1147.738 3908.358 1139.108 3907.778 1131.785 3906.432 1124.564 3904.335 1117.524 3901.509 1110.743 3897.987 1104.297 3893.807 1098.257 3889.014 1092.69 3883.664 1087.657 3877.814 1083.214 3872.466 1079.928 3879.61 1075.366 3887.938 1068.253 3895.051 1059.925 3900.774 1050.585 3904.966 1040.467 3907.522 1029.816 3908.382 1018.898 3908.167 1013.421 M 642.445 433.76 4082.016 433.76 4081.988 1337.849 642.409 1333.971 642.421 433.743" fill="none" stroke-width="25"/><path d="M 1401.238 1187.283 1401.238 1084.37 M 1312.182 1135.827 1490.293 1135.827 M 885.827 1210.709 885.827 1140.945 M 816.063 1140.945 955.591 1140.945 M 1000.06 860.168 1000.06 802.215 M 938.171 802.215 1061.95 802.215 M 1870.079 1210.709 1870.079 1140.945 M 1800.315 1140.945 1939.843 1140.945 M 1756.092 860.168 1756.092 802.215 M 1694.202 802.215 1817.982 802.215 M 2854.331 1210.709 2854.331 1140.945 M 2784.567 1140.945 2924.094 1140.945 M 2743.581 860.168 2743.581 802.215 M 2681.692 802.215 2805.471 802.215 M 3838.583 1210.709 3838.583 1140.945 M 3768.819 1140.945 3908.346 1140.945 M 3727.961 860.168 3727.961 802.215 M 3666.071 802.215 3789.85 802.215" fill="none" stroke-width="20"/><use xlink:href="#iI7JwFn_KPWzL1GYoE5o_pad-16" x="1000.06" y="802.215"/><use xlink:href="#iI7JwFn_KPWzL1GYoE5o_pad-16" x="1000.06" y="691.979"/><use xlink:href="#iI7JwFn_KPWzL1GYoE5o_pad-16" x="1756.092" y="802.215"/><use xlink:href="#iI7JwFn_KPWzL1GYoE5o_pad-16" x="1756.092" y="691.979"/><use xlink:href="#iI7JwFn_KPWzL1GYoE5o_pad-16" x="2743.581" y="802.215"/><use xlink:href="#iI7JwFn_KPWzL1GYoE5o_pad-16" x="2743.581" y="691.979"/><use xlink:href="#iI7JwFn_KPWzL1GYoE5o_pad-16" x="3727.961" y="802.215"/><use xlink:href="#iI7JwFn_KPWzL1GYoE5o_pad-16" x="3727.961" y="691.979"/><use xlink:href="#iI7JwFn_KPWzL1GYoE5o_pad-18" x="1276.041" y="635.827"/><use xlink:href="#iI7JwFn_KPWzL1GYoE5o_pad-18" x="1401.238" y="735.827"/><use xlink:href="#iI7JwFn_KPWzL1GYoE5o_pad-18" x="1276.041" y="835.827"/><use xlink:href="#iI7JwFn_KPWzL1GYoE5o_pad-18" x="1401.238" y="935.827"/><use xlink:href="#iI7JwFn_KPWzL1GYoE5o_pad-18" x="1276.041" y="1035.827"/><use xlink:href="#iI7JwFn_KPWzL1GYoE5o_pad-18" x="1401.238" y="1135.827"/><use xlink:href="#iI7JwFn_KPWzL1GYoE5o_pad-34" x="885.827" y="692.126"/><use xlink:href="#iI7JwFn_KPWzL1GYoE5o_pad-34" x="885.827" y="1018.898"/><use xlink:href="#iI7JwFn_KPWzL1GYoE5o_pad-34" x="885.827" y="1140.945"/><use xlink:href="#iI7JwFn_KPWzL1GYoE5o_pad-34" x="1870.079" y="692.126"/><use xlink:href="#iI7JwFn_KPWzL1GYoE5o_pad-34" x="1870.079" y="1018.898"/><use xlink:href="#iI7JwFn_KPWzL1GYoE5o_pad-34" x="1870.079" y="1140.945"/><use xlink:href="#iI7JwFn_KPWzL1GYoE5o_pad-34" x="2854.331" y="692.126"/><use xlink:href="#iI7JwFn_KPWzL1GYoE5o_pad-34" x="2854.331" y="1018.898"/><use xlink:href="#iI7JwFn_KPWzL1GYoE5o_pad-34" x="2854.331" y="1140.945"/><use xlink:href="#iI7JwFn_KPWzL1GYoE5o_pad-34" x="3838.583" y="692.126"/><use xlink:href="#iI7JwFn_KPWzL1GYoE5o_pad-34" x="3838.583" y="1018.898"/><use xlink:href="#iI7JwFn_KPWzL1GYoE5o_pad-34" x="3838.583" y="1140.945"/></g></svg>