<svg version="1.1" xmlns="http://www.w3.org/2000/svg" xmlns:xlink="http://www.w3.org/1999/xlink" stroke-linecap="round" stroke-linejoin="round" stroke-width="0" fill-rule="evenodd" width="3.8188969999999998in" height="0.8661420000000001in" viewBox="452.756 452.756 3818.897 866.142" id="B9A_u0i5lSfprMbDdPAR"><defs><rect x="-39.37" y="-35.433" width="78.74" height="70.866" id="B9A_u0i5lSfprMbDdPAR_pad-42"/><circle cx="0" cy="0" r="59.055" id="B9A_u0i5lSfprMbDdPAR_pad-35"/><rect x="-66.5355" y="-28.937" width="133.071" height="57.874" id="B9A_u0i5lSfprMbDdPAR_pad-40"/><circle cx="0" cy="0" r="47.244" id="B9A_u0i5lSfprMbDdPAR_pad-38"/></defs><g transform="translate(0,1771.654) scale(1,-1)" fill="currentColor" stroke="currentColor"><use xlink:href="#B9A_u0i5lSfprMbDdPAR_pad-42" x="1000.06" y="802.215"/><use xlink:href="#B9A_u0i5lSfprMbDdPAR_pad-42" x="1000.06" y="691.979"/><use xlink:href="#B9A_u0i5lSfprMbDdPAR_pad-42" x="1756.092" y="802.215"/><use xlink:href="#B9A_u0i5lSfprMbDdPAR_pad-42" x="1756.092" y="691.979"/><use xlink:href="#B9A_u0i5lSfprMbDdPAR_pad-42" x="2743.581" y="802.215"/><use xlink:href="#B9A_u0i5lSfprMbDdPAR_pad-42" x="2743.581" y="691.979"/><use xlink:href="#B9A_u0i5lSfprMbDdPAR_pad-42" x="3727.961" y="802.215"/><use xlink:href="#B9A_u0i5lSfprMbDdPAR_pad-42" x="3727.961" y="691.979"/><use xlink:href="#B9A_u0i5lSfprMbDdPAR_pad-35" x="511.811" y="511.811"/><use xlink:href="#B9A_u0i5lSfprMbDdPAR_pad-35" x="511.811" y="1259.843"/><use xlink:href="#B9A_u0i5lSfprMbDdPAR_pad-35" x="4212.598" y="1259.843"/><use xlink:href="#B9A_u0i5lSfprMbDdPAR_pad-35" x="4212.598" y="511.811"/><use xlink:href="#B9A_u0i5lSfprMbDdPAR_pad-40" x="1276.041" y="635.827"/><use xlink:href="#B9A_u0i5lSfprMbDdPAR_pad-40" x="1401.238" y="735.827"/><use xlink:href="#B9A_u0i5lSfprMbDdPAR_pad-40" x="1276.041" y="835.827"/><use xlink:href="#B9A_u0i5lSfprMbDdPAR_pad-40" x="1401.238" y="935.827"/><use xlink:href="#B9A_u0i5lSfprMbDdPAR_pad-40" x="1276.041" y="1035.827"/><use xlink:href="#B9A_u0i5lSfprMbDdPAR_pad-40" x="1401.238" y="1135.827"/><use xlink:href="#B9A_u0i5lSfprMbDdPAR_pad-38" x="885.827" y="692.126"/><use xlink:href="#B9A_u0i5lSfprMbDdPAR_pad-38" x="885.827" y="1018.898"/><use xlink:href="#B9A_u0i5lSfprMbDdPAR_pad-38" x="885.827" y="1140.945"/><use xlink:href="#B9A_u0i5lSfprMbDdPAR_pad-38" x="1870.079" y="692.126"/><use xlink:href="#B9A_u0i5lSfprMbDdPAR_pad-38" x="1870.079" y="1018.898"/><use xlink:href="#B9A_u0i5lSfprMbDdPAR_pad-38" x="1870.079" y="1140.945"/><use xlink:href="#B9A_u0i5lSfprMbDdPAR_pad-38" x="2854.331" y="692.126"/><use xlink:href="#B9A_u0i5lSfprMbDdPAR_pad-38" x="2854.331" y="1018.898"/><use xlink:href="#B9A_u0i5lSfprMbDdPAR_pad-38" x="2854.331" y="1140.945"/><use xlink:href="#B9A_u0i5lSfprMbDdPAR_pad-38" x="3838.583" y="692.126"/><use xlink:href="#B9A_u0i5lSfprMbDdPAR_pad-38" x="3838.583" y="1018.898"/><use xlink:href="#B9A_u0i5lSfprMbDdPAR_pad-38" x="3838.583" y="1140.945"/></g></svg>