<svg version="1.1" xmlns="http://www.w3.org/2000/svg" xmlns:xlink="http://www.w3.org/1999/xlink" stroke-linecap="round" stroke-linejoin="round" stroke-width="0" fill-rule="evenodd" width="2.997882in" height="0.834619in" viewBox="865.693 477.5235 2997.882 834.619" id="F5Jk0dCWxhS5Ehg7sBe9"><defs><rect x="-22.335" y="-21.8685" width="44.67" height="43.737" rx="21.8685" ry="21.8685" id="F5Jk0dCWxhS5Ehg7sBe9_pad-17"/><circle cx="0" cy="0" r="7.792" id="F5Jk0dCWxhS5Ehg7sBe9_pad-19"/><circle cx="0" cy="0" r="16.3885" id="F5Jk0dCWxhS5Ehg7sBe9_pad-20"/><circle cx="0" cy="0" r="6.2555" id="F5Jk0dCWxhS5Ehg7sBe9_pad-21"/><circle cx="0" cy="0" r="6.2555" id="F5Jk0dCWxhS5Ehg7sBe9_pad-22"/><circle cx="0" cy="0" r="6.219" id="F5Jk0dCWxhS5Ehg7sBe9_pad-23"/><circle cx="0" cy="0" r="6.219" id="F5Jk0dCWxhS5Ehg7sBe9_pad-24"/><circle cx="0" cy="0" r="6.987" id="F5Jk0dCWxhS5Ehg7sBe9_pad-25"/><rect x="-7.792" y="-7.022" width="15.584" height="14.044" rx="7.022" ry="7.022" id="F5Jk0dCWxhS5Ehg7sBe9_pad-26"/><rect x="-13.2425" y="-16.3815" width="26.485" height="32.763" rx="13.2425" ry="13.2425" id="F5Jk0dCWxhS5Ehg7sBe9_pad-27"/><rect x="-3.9145" y="-3.1235" width="7.829" height="6.247" rx="3.1235" ry="3.1235" id="F5Jk0dCWxhS5Ehg7sBe9_pad-28"/><circle cx="0" cy="0" r="7.0235" id="F5Jk0dCWxhS5Ehg7sBe9_pad-29"/><rect x="-7.8285" y="-7.022" width="15.657" height="14.044" rx="7.022" ry="7.022" id="F5Jk0dCWxhS5Ehg7sBe9_pad-30"/><rect x="-6.219" y="-7.022" width="12.438" height="14.044" rx="6.219" ry="6.219" id="F5Jk0dCWxhS5Ehg7sBe9_pad-31"/><rect x="-6.219" y="-5.4605" width="12.438" height="10.921" rx="5.4605" ry="5.4605" id="F5Jk0dCWxhS5Ehg7sBe9_pad-32"/></defs><g transform="translate(0,1789.6660000000002) scale(1,-1)" fill="currentColor" stroke="currentColor"><path d="M 1045.06 843.097 955.06 843.097 955.06 651.097 1045.06 651.097 1045.06 843.097 M 1801.092 843.097 1711.092 843.097 1711.092 651.097 1801.092 651.097 1801.092 843.097 M 2788.581 843.097 2698.581 843.097 2698.581 651.097 2788.581 651.097 2788.581 843.097 M 3772.961 843.097 3682.961 843.097 3682.961 651.097 3772.961 651.097 3772.961 843.097" fill="none" stroke-width="9.843"/><use xlink:href="#F5Jk0dCWxhS5Ehg7sBe9_pad-17" x="1435.967" y="1213.958"/><path d="M 1289.612 680.238 1289.612 790.524 M 1289.612 585.94 1289.612 593.673 M 1289.612 585.94 1387.666 585.94 1387.666 692.131 M 1387.666 778.696 1387.666 892.816 M 1289.612 880.274 1289.612 990.559 M 1387.666 978.666 1387.666 1092.852 M 1289.612 1080.374 1289.612 1185.85 M 1387.666 1178.832 1387.666 1185.85 1289.612 1185.85" fill="none" stroke-width="9.843"/><use xlink:href="#F5Jk0dCWxhS5Ehg7sBe9_pad-19" x="3159.05" y="1033.347"/><path d="M 2992.126 1062.987 3076.484 1206.753 3142.112 1062.987 2992.126 1062.987"/><path d="M 3155.94 1200.262 3215.203 1200.262 3223.032 1198.712 3233.933 1194.038 3241.762 1189.363 3249.517 1183.117 3254.2 1176.87 3258.882 1167.522 3260.419 1159.702 3262.028 1148.803 3260.419 1139.433 3255.736 1128.512 3249.517 1122.265 3241.762 1116.04 3232.397 1111.344 3224.568 1108.243 3272.93 1062.987 3155.94 1062.987 3155.94 1200.262"/><path d="M 3254.2 1200.262 3397.747 1200.262 3377.481 1161.275 3349.386 1156.601 3340.021 1064.559 3313.462 1064.559 3304.097 1156.601 3276.076 1161.275 3254.2 1200.262"/><path d="M 3411.795 1142.556 3432.061 1142.556 3452.328 1062.987 3393.065 1062.987 3411.795 1142.556"/><path d="M 3569.317 1089.502 3500.689 1126.961 3569.317 1162.825 3559.952 1173.746 3550.587 1179.993 3538.149 1186.24 3525.638 1189.363 3511.591 1189.363 3499.153 1186.24 3486.642 1181.544 3475.74 1173.746 3466.375 1162.825 3460.156 1151.905 3457.01 1139.433 3455.474 1126.961 3457.01 1112.917 3460.156 1100.423 3467.912 1087.952 3477.277 1078.604 3488.178 1070.784 3500.689 1066.11 3511.591 1062.987 3525.638 1062.987 3538.149 1066.11 3552.197 1072.357 3569.317 1089.502"/><path d="M 3570.854 1064.559 3634.872 1209.633 3723.766 1062.987 3570.854 1064.559"/><use xlink:href="#F5Jk0dCWxhS5Ehg7sBe9_pad-20" x="3421.892" y="1185.454"/><path d="M 3074.801 1033.347 3087.312 1033.347 3087.312 995.91 3074.801 995.91 3074.801 1033.347"/><use xlink:href="#F5Jk0dCWxhS5Ehg7sBe9_pad-21" x="3081.057" y="1034.909"/><use xlink:href="#F5Jk0dCWxhS5Ehg7sBe9_pad-22" x="3081.057" y="995.91"/><path d="M 3091.995 1033.347 3104.433 1033.347 3104.433 995.91 3091.995 995.91 3091.995 1033.347"/><use xlink:href="#F5Jk0dCWxhS5Ehg7sBe9_pad-23" x="3098.214" y="1034.909"/><use xlink:href="#F5Jk0dCWxhS5Ehg7sBe9_pad-24" x="3098.214" y="995.91"/><path d="M 3132.528 1033.347 3145.039 1033.347 3145.039 995.91 3132.528 995.91 3132.528 1033.347"/><use xlink:href="#F5Jk0dCWxhS5Ehg7sBe9_pad-21" x="3138.783" y="1034.909"/><use xlink:href="#F5Jk0dCWxhS5Ehg7sBe9_pad-22" x="3138.783" y="995.91"/><path d="M 3224.568 1031.797 3237.079 1031.797 3237.079 994.36 3224.568 994.36 3224.568 1031.797"/><use xlink:href="#F5Jk0dCWxhS5Ehg7sBe9_pad-21" x="3230.824" y="1033.358"/><use xlink:href="#F5Jk0dCWxhS5Ehg7sBe9_pad-21" x="3230.824" y="994.349"/><use xlink:href="#F5Jk0dCWxhS5Ehg7sBe9_pad-25" x="3195.705" y="1015.404"/><use xlink:href="#F5Jk0dCWxhS5Ehg7sBe9_pad-26" x="3194.9" y="998.258"/><use xlink:href="#F5Jk0dCWxhS5Ehg7sBe9_pad-19" x="3605.204" y="1033.347"/><path d="M 3212.057 1041.145 3249.517 1041.145 3249.517 1028.673 3212.057 1028.673 3212.057 1041.145"/><use xlink:href="#F5Jk0dCWxhS5Ehg7sBe9_pad-21" x="3213.63" y="1034.909"/><use xlink:href="#F5Jk0dCWxhS5Ehg7sBe9_pad-23" x="3247.981" y="1034.909"/><path d="M 3262.028 1033.347 3274.466 1033.347 3274.466 995.91 3262.028 995.91 3262.028 1033.347"/><use xlink:href="#F5Jk0dCWxhS5Ehg7sBe9_pad-23" x="3268.247" y="1034.909"/><use xlink:href="#F5Jk0dCWxhS5Ehg7sBe9_pad-24" x="3268.247" y="995.91"/><path d="M 3316.609 1033.347 3329.12 1033.347 3329.12 1014.629 3316.609 1014.629 3316.609 1033.347"/><use xlink:href="#F5Jk0dCWxhS5Ehg7sBe9_pad-21" x="3322.864" y="1034.909"/><path d="M 3268.247 1041.145 3302.561 1041.145 3302.561 1008.382 3268.247 1008.382 3268.247 1041.145"/><path d="M 3357.141 1033.347 3369.652 1033.347 3369.652 1019.303 3357.141 1019.303 3357.141 1033.347"/><use xlink:href="#F5Jk0dCWxhS5Ehg7sBe9_pad-21" x="3363.397" y="1034.909"/><use xlink:href="#F5Jk0dCWxhS5Ehg7sBe9_pad-27" x="3300.22" y="1024.763"/><path d="M 3563.098 1031.797 3575.536 1031.797 3575.536 994.36 3563.098 994.36 3563.098 1031.797"/><use xlink:href="#F5Jk0dCWxhS5Ehg7sBe9_pad-23" x="3569.317" y="1033.358"/><use xlink:href="#F5Jk0dCWxhS5Ehg7sBe9_pad-23" x="3569.317" y="994.349"/><path d="M 3550.587 1041.145 3588.047 1041.145 3588.047 1028.673 3550.587 1028.673 3550.587 1041.145"/><use xlink:href="#F5Jk0dCWxhS5Ehg7sBe9_pad-21" x="3552.16" y="1034.909"/><use xlink:href="#F5Jk0dCWxhS5Ehg7sBe9_pad-21" x="3586.474" y="1034.909"/><path d="M 3430.452 1033.347 3442.963 1033.347 3442.963 995.91 3430.452 995.91 3430.452 1033.347"/><use xlink:href="#F5Jk0dCWxhS5Ehg7sBe9_pad-21" x="3436.707" y="1034.909"/><use xlink:href="#F5Jk0dCWxhS5Ehg7sBe9_pad-22" x="3436.707" y="995.91"/><path d="M 3413.331 1033.347 3425.842 1033.347 3425.842 995.91 3413.331 995.91 3413.331 1033.347"/><use xlink:href="#F5Jk0dCWxhS5Ehg7sBe9_pad-21" x="3419.587" y="1034.909"/><use xlink:href="#F5Jk0dCWxhS5Ehg7sBe9_pad-22" x="3419.587" y="995.91"/><path d="M 3372.798 1033.347 3385.236 1033.347 3385.236 995.91 3372.798 995.91 3372.798 1033.347"/><use xlink:href="#F5Jk0dCWxhS5Ehg7sBe9_pad-23" x="3379.017" y="1034.909"/><use xlink:href="#F5Jk0dCWxhS5Ehg7sBe9_pad-24" x="3379.017" y="995.91"/><path d="M 3319.755 1017.752 3329.12 1017.752 3329.12 1008.382 3319.755 1008.382 3319.755 1017.752"/><use xlink:href="#F5Jk0dCWxhS5Ehg7sBe9_pad-28" x="3398.516" y="1009.955"/><use xlink:href="#F5Jk0dCWxhS5Ehg7sBe9_pad-29" x="3641.896" y="1015.404"/><use xlink:href="#F5Jk0dCWxhS5Ehg7sBe9_pad-30" x="3641.091" y="998.258"/><path d="M 3606.777 1041.145 3644.237 1041.145 3644.237 1028.673 3606.777 1028.673 3606.777 1041.145"/><use xlink:href="#F5Jk0dCWxhS5Ehg7sBe9_pad-23" x="3608.314" y="1034.909"/><use xlink:href="#F5Jk0dCWxhS5Ehg7sBe9_pad-21" x="3642.664" y="1034.909"/><path d="M 3602.095 1022.426 3639.555 1022.426 3639.555 1011.505 3602.095 1011.505 3602.095 1022.426"/><use xlink:href="#F5Jk0dCWxhS5Ehg7sBe9_pad-31" x="3603.631" y="1018.528"/><path d="M 3602.095 1002.157 3639.555 1002.157 3639.555 991.236 3602.095 991.236 3602.095 1002.157"/><path d="M 3098.214 1041.145 3141.893 1002.157 3140.356 989.663 3134.064 992.787 3098.214 1023.999 3098.214 1041.145"/><path d="M 3486.642 1033.347 3499.153 1033.347 3499.153 995.91 3486.642 995.91 3486.642 1033.347"/><use xlink:href="#F5Jk0dCWxhS5Ehg7sBe9_pad-21" x="3492.897" y="1034.909"/><use xlink:href="#F5Jk0dCWxhS5Ehg7sBe9_pad-22" x="3492.897" y="995.91"/><path d="M 3527.175 1033.347 3539.686 1033.347 3539.686 995.91 3527.175 995.91 3527.175 1033.347"/><use xlink:href="#F5Jk0dCWxhS5Ehg7sBe9_pad-21" x="3533.43" y="1034.909"/><use xlink:href="#F5Jk0dCWxhS5Ehg7sBe9_pad-22" x="3533.43" y="995.91"/><path d="M 3492.861 1041.145 3536.54 1002.157 3535.003 989.663 3528.784 992.787 3492.861 1023.999 3492.861 1041.145"/><path d="M 3160.623 1041.145 3198.01 1041.145 3198.01 1028.673 3160.623 1028.673 3160.623 1041.145"/><use xlink:href="#F5Jk0dCWxhS5Ehg7sBe9_pad-23" x="3162.159" y="1034.909"/><use xlink:href="#F5Jk0dCWxhS5Ehg7sBe9_pad-23" x="3196.473" y="1034.909"/><path d="M 3155.94 1022.426 3193.4 1022.426 3193.4 1011.505 3155.94 1011.505 3155.94 1022.426"/><use xlink:href="#F5Jk0dCWxhS5Ehg7sBe9_pad-31" x="3157.477" y="1018.528"/><use xlink:href="#F5Jk0dCWxhS5Ehg7sBe9_pad-32" x="3602.095" y="996.697"/><path d="M 3155.94 1002.157 3193.4 1002.157 3193.4 991.236 3155.94 991.236 3155.94 1002.157"/><use xlink:href="#F5Jk0dCWxhS5Ehg7sBe9_pad-32" x="3155.94" y="996.697"/><use xlink:href="#F5Jk0dCWxhS5Ehg7sBe9_pad-23" x="3191.791" y="997.472"/><use xlink:href="#F5Jk0dCWxhS5Ehg7sBe9_pad-22" x="3305.67" y="995.91"/><path d="M 3280.758 1009.955 3301.025 991.236 3310.39 1000.584 3297.879 1013.078 3280.758 1009.955"/><path d="M 3341.557 989.663 3352.459 989.663 3363.433 997.483 3368.116 1008.382 3369.652 1020.876 3357.141 1022.426 3355.605 1009.955 3341.557 989.663"/><path d="M 3316.609 1020.876 3316.609 1005.281 3327.51 991.236 3344.704 989.663 3358.751 999.034 3350.922 1003.708 3344.704 1000.584 3335.339 1002.157 3316.609 1020.876"/><path d="M 3380.554 1041.145 3399.284 1023.999 3416.477 1039.594 3422.696 1030.224 3402.43 1009.955 3394.601 1009.955 3380.554 1023.999 3380.554 1041.145"/><path d="M 3151.258 1031.797 3163.696 1031.797 3163.696 1019.303 3151.258 1019.303 3151.258 1031.797"/><path d="M 3191.791 1013.078 3202.692 1013.078 3202.692 999.034 3191.791 999.034 3191.791 1013.078"/><path d="M 3436.744 1042.717 3474.131 1042.717 3474.131 1030.224 3436.744 1030.224 3436.744 1042.717"/><use xlink:href="#F5Jk0dCWxhS5Ehg7sBe9_pad-24" x="3438.28" y="1036.471"/><use xlink:href="#F5Jk0dCWxhS5Ehg7sBe9_pad-24" x="3472.594" y="1036.471"/><path d="M 3435.134 1022.426 3472.594 1022.426 3472.594 1009.955 3435.134 1009.955 3435.134 1022.426"/><use xlink:href="#F5Jk0dCWxhS5Ehg7sBe9_pad-21" x="3436.707" y="1016.19"/><use xlink:href="#F5Jk0dCWxhS5Ehg7sBe9_pad-23" x="3471.058" y="1016.19"/><path d="M 3436.744 1002.157 3474.131 1002.157 3474.131 989.663 3436.744 989.663 3436.744 1002.157"/><use xlink:href="#F5Jk0dCWxhS5Ehg7sBe9_pad-24" x="3438.28" y="995.91"/><use xlink:href="#F5Jk0dCWxhS5Ehg7sBe9_pad-24" x="3472.594" y="995.91"/><use xlink:href="#F5Jk0dCWxhS5Ehg7sBe9_pad-21" x="3637.982" y="997.472"/><path d="M 3597.412 1031.797 3609.85 1031.797 3609.85 1019.303 3597.412 1019.303 3597.412 1031.797"/><path d="M 3637.945 1013.078 3648.92 1013.078 3648.92 999.034 3637.945 999.034 3637.945 1013.078"/><path d="M 3332.419 769.132 3358.937 769.132 3363.609 737.934 3382.339 730.13 3407.299 750.42 3427.567 730.13 3407.299 705.176 3415.107 688.007 3446.297 683.325 3446.297 655.249 3415.107 652.127 3407.299 633.416 3426.009 608.443 3407.299 589.732 3382.339 608.443 3371.417 603.779 3355.822 641.22 3366.744 650.566 3374.532 661.492 3374.532 673.978 3371.417 684.886 3362.052 692.689 3351.129 697.372 3338.649 697.372 3327.727 691.129 3321.497 681.764 3318.382 669.296 3321.497 656.809 3329.304 645.884 3337.092 641.22 3321.497 603.779 3310.574 608.443 3285.614 589.732 3266.904 608.443 3285.614 634.976 3277.807 652.127 3246.617 655.249 3246.617 683.325 3279.384 686.446 3285.614 705.176 3265.347 730.13 3285.614 748.86 3310.574 730.13 3329.304 736.373 3332.419 769.132"/><path d="M 1061.006 699.46 1059.547 702.345 1055.269 706.656 1085.38 706.656 M 1055.269 724.542 1056.695 720.231 1061.006 717.345 1068.169 715.919 1072.48 715.919 1079.643 717.345 1083.954 720.23 1085.38 724.541 1085.38 727.393 1083.954 731.704 1079.643 734.556 1072.48 736.015 1068.169 736.015 1061.006 734.556 1056.695 731.704 1055.269 727.393 1055.269 724.542 M 1061.006 734.556 1079.643 717.345 M 1055.269 753.901 1056.695 749.59 1061.006 746.705 1068.169 745.279 1072.48 745.279 1079.643 746.705 1083.954 749.59 1085.38 753.901 1085.38 756.753 1083.954 761.064 1079.643 763.916 1072.48 765.375 1068.169 765.375 1061.006 763.916 1056.695 761.064 1055.269 756.753 1055.269 753.901 M 1061.006 763.916 1079.643 746.705 M 1055.236 794.735 1085.38 794.734 1055.236 774.639 1085.38 774.638 M 1672.928 699.46 1671.469 702.345 1667.191 706.656 1697.302 706.656 M 1667.191 724.542 1668.617 720.231 1672.928 717.345 1680.091 715.919 1684.402 715.919 1691.565 717.345 1695.876 720.23 1697.302 724.541 1697.302 727.393 1695.876 731.704 1691.565 734.556 1684.402 736.015 1680.091 736.015 1672.928 734.556 1668.617 731.704 1667.191 727.393 1667.191 724.542 M 1672.928 734.556 1691.565 717.345 M 1667.191 753.901 1668.617 749.59 1672.928 746.705 1680.091 745.279 1684.402 745.279 1691.565 746.705 1695.876 749.59 1697.302 753.901 1697.302 756.753 1695.876 761.064 1691.565 763.916 1684.402 765.375 1680.091 765.375 1672.928 763.916 1668.617 761.064 1667.191 756.753 1667.191 753.901 M 1672.928 763.916 1691.565 746.705 M 1667.158 794.735 1697.302 794.734 1667.158 774.639 1697.302 774.638 M 2660.418 699.46 2658.959 702.345 2654.681 706.656 2684.792 706.656 M 2654.681 724.542 2656.107 720.231 2660.418 717.345 2667.581 715.919 2671.892 715.919 2679.055 717.345 2683.366 720.23 2684.792 724.541 2684.792 727.393 2683.366 731.704 2679.055 734.556 2671.892 736.015 2667.581 736.015 2660.418 734.556 2656.107 731.704 2654.681 727.393 2654.681 724.542 M 2660.418 734.556 2679.055 717.345 M 2654.681 753.901 2656.107 749.59 2660.418 746.705 2667.581 745.279 2671.892 745.279 2679.055 746.705 2683.366 749.59 2684.792 753.901 2684.792 756.753 2683.366 761.064 2679.055 763.916 2671.892 765.375 2667.581 765.375 2660.418 763.916 2656.107 761.064 2654.681 756.753 2654.681 753.901 M 2660.418 763.916 2679.055 746.705 M 2654.648 794.735 2684.792 794.734 2654.648 774.639 2684.792 774.638 M 3644.797 699.46 3643.338 702.345 3639.06 706.656 3669.171 706.656 M 3639.06 724.542 3640.486 720.231 3644.797 717.345 3651.96 715.919 3656.271 715.919 3663.434 717.345 3667.745 720.23 3669.171 724.541 3669.171 727.393 3667.745 731.704 3663.434 734.556 3656.271 736.015 3651.96 736.015 3644.797 734.556 3640.486 731.704 3639.06 727.393 3639.06 724.542 M 3644.797 734.556 3663.434 717.345 M 3639.06 753.901 3640.486 749.59 3644.797 746.705 3651.96 745.279 3656.271 745.279 3663.434 746.705 3667.745 749.59 3669.171 753.901 3669.171 756.753 3667.745 761.064 3663.434 763.916 3656.271 765.375 3651.96 765.375 3644.797 763.916 3640.486 761.064 3639.06 756.753 3639.06 753.901 M 3644.797 763.916 3663.434 746.705 M 3639.027 794.735 3669.171 794.734 3639.027 774.639 3669.171 774.638" fill="none" stroke-width="4.632"/><path d="M 1499.582 747.937 1499.582 750.789 1502.433 756.559 1505.285 759.411 1511.055 762.263 1522.529 762.263 1528.233 759.411 1531.085 756.559 1534.003 750.789 1534.003 745.085 1531.085 739.315 1525.381 730.759 1496.663 702.041 1536.855 702.041 M 1500.178 1144.643 1533.339 1144.643 M 1516.726 1070.479 1516.726 1018.813 M 1490.926 1044.612 1542.592 1044.612 M 1523.955 908.293 1523.955 968.515 1495.237 928.389 1538.281 928.389 M 1502.433 865.398 1533.937 865.398 1516.759 842.45 1525.381 842.45 1531.085 839.598 1533.937 836.746 1536.855 828.124 1536.855 822.421 1533.937 813.799 1528.233 808.028 1519.611 805.177 1510.989 805.177 1502.433 808.028 1499.582 810.947 1496.663 816.65 M 1849.669 885.431 1849.669 888.283 1852.521 894.053 1855.373 896.905 1861.143 899.756 1872.617 899.756 1878.321 896.905 1881.173 894.053 1884.091 888.283 1884.091 882.579 1881.173 876.809 1875.469 868.253 1846.751 839.535 1886.943 839.535 M 2840.02 899.756 2871.524 899.756 2854.346 876.809 2862.968 876.809 2868.672 873.957 2871.524 871.105 2874.442 862.483 2874.442 856.779 2871.524 848.157 2865.82 842.387 2857.198 839.535 2848.576 839.535 2840.02 842.387 2837.168 845.305 2834.25 851.009 M 3844.618 839.535 3844.618 899.756 3815.899 859.631 3858.943 859.631 M 870.325 894.534 876.095 897.453 884.717 906.008 884.717 845.787" fill="none" stroke-width="9.264"/><path d="M 2093.085 533.105 2093.085 1255.765 1748.468 774.257 2264.995 774.257 M 2455.585 1256.561 2455.585 705.811 2421.362 602.347 2386.343 568.124 2317.898 533.105 2248.656 533.105 2180.21 568.124 2145.987 602.347 2110.968 705.811 2110.968 774.257" fill="none" stroke-width="111.163"/><path d="M 2168.094 846.584 2194.889 858.08 2168.094 869.532 M 2162.39 881.883 2160.445 885.73 2154.741 891.478 2194.889 891.478 M 2191.042 905.731 2192.988 903.829 2194.889 905.731 2192.988 907.676 2191.042 905.731 M 2154.741 931.524 2156.642 925.776 2162.39 921.929 2171.941 920.028 2177.689 920.028 2187.24 921.929 2192.988 925.776 2194.889 931.524 2194.889 935.326 2192.988 941.074 2187.24 944.877 2177.689 946.822 2171.941 946.822 2162.39 944.877 2156.642 941.074 2154.741 935.326 2154.741 931.524 M 2162.39 944.877 2187.24 921.929" fill="none" stroke-width="6.176"/><path d="M 2613.706 627.538 2493.13 627.538 2613.706 581.642 2493.13 535.747 2613.706 535.747 M 2493.13 664.592 2613.706 664.592 M 2493.13 782.031 2613.706 782.031 2493.13 701.647 2613.706 701.647 M 2493.13 819.085 2613.706 819.085 M 2493.13 913.575 2584.922 913.575 2602.166 907.871 2607.87 902.035 2613.706 890.627 2613.706 879.087 2607.87 867.679 2602.166 861.975 2584.922 856.139 2573.514 856.139 M 2613.706 1042.553 2493.13 996.525 2613.706 950.629 M 2573.514 967.873 2573.514 1025.309 M 2521.782 1165.696 2510.374 1159.992 2498.834 1148.451 2493.13 1137.044 2493.13 1114.096 2498.834 1102.556 2510.374 1091.148 2521.782 1085.312 2539.026 1079.608 2567.81 1079.608 2584.922 1085.311 2596.462 1091.148 2607.87 1102.556 2613.706 1114.096 2613.706 1137.044 2607.87 1148.451 2596.462 1159.992 2584.922 1165.696 M 2493.13 1202.75 2613.706 1202.75 M 2493.13 1283.134 2573.514 1202.75 M 2544.73 1231.401 2613.706 1283.134" fill="none" stroke-width="18.527"/><path d="M 1509.562 644.541 1515.332 647.459 1523.954 656.015 1523.954 595.793" fill="none" stroke-width="9.264"/><path d="M 3034.777 938.577 3036.678 936.676 3038.624 938.577 3036.678 940.523 3034.777 938.577 M 3036.678 925.18 3036.678 898.385 M 3050.975 925.18 3050.975 898.385 M 3050.975 917.531 3056.723 923.279 3060.57 925.18 3066.274 925.18 3070.12 923.279 3072.022 917.531 3072.022 898.385 M 3105.42 919.432 3103.518 923.279 3097.77 925.18 3092.022 925.18 3086.274 923.279 3084.373 919.432 3086.274 915.629 3090.121 913.684 3099.672 911.783 3103.518 909.881 3105.42 906.035 3105.42 904.133 3103.518 900.331 3097.77 898.385 3092.022 898.385 3086.274 900.331 3084.373 904.133 M 3123.519 938.577 3123.519 906.035 3125.42 900.331 3129.267 898.385 3133.07 898.385 M 3117.771 925.18 3131.168 925.18 M 3145.421 925.18 3145.421 898.385 M 3145.421 913.684 3147.367 919.432 3151.169 923.279 3155.016 925.18 3160.764 925.18 M 3173.115 925.18 3173.115 906.035 3175.017 900.331 3178.863 898.385 3184.611 898.385 3188.414 900.331 3194.162 906.035 M 3194.162 925.18 3194.162 898.385 M 3206.513 925.18 3206.513 898.385 M 3206.513 917.531 3212.261 923.279 3216.108 925.18 3221.812 925.18 3225.659 923.279 3227.56 917.531 3227.56 898.385 M 3227.56 917.531 3233.308 923.279 3237.155 925.18 3242.859 925.18 3246.705 923.279 3248.651 917.531 3248.651 898.385 M 3261.002 913.684 3283.95 913.684 3283.95 917.531 3282.049 921.378 3280.148 923.279 3276.301 925.18 3270.553 925.18 3266.75 923.279 3262.903 919.432 3261.002 913.684 3261.002 909.881 3262.903 904.133 3266.75 900.331 3270.553 898.385 3276.301 898.385 3280.148 900.331 3283.95 904.133 M 3296.302 925.18 3296.302 898.385 M 3296.302 917.531 3302.05 923.279 3305.896 925.18 3311.6 925.18 3315.447 923.279 3317.348 917.531 3317.348 898.385 M 3335.448 938.577 3335.448 906.035 3337.349 900.331 3341.196 898.385 3344.998 898.385 M 3329.7 925.18 3343.097 925.18 M 3378.396 919.432 3376.495 923.279 3370.747 925.18 3364.999 925.18 3359.251 923.279 3357.35 919.432 3359.251 915.629 3363.098 913.684 3372.648 911.783 3376.495 909.881 3378.396 906.035 3378.396 904.133 3376.495 900.331 3370.747 898.385 3364.999 898.385 3359.251 900.331 3357.35 904.133 M 3392.649 902.232 3390.748 900.287 3392.649 898.385 3394.594 900.287 3392.649 902.232 M 3429.894 925.18 3429.894 898.385 M 3429.894 919.432 3426.091 923.279 3422.244 925.18 3416.541 925.18 3412.694 923.279 3408.891 919.432 3406.946 913.684 3406.946 909.881 3408.891 904.133 3412.694 900.331 3416.541 898.385 3422.244 898.385 3426.091 900.331 3429.894 904.133 M 3442.245 925.18 3442.245 898.385 M 3442.245 913.684 3444.191 919.432 3447.993 923.279 3451.84 925.18 3457.588 925.18 M 3475.687 938.577 3475.687 906.035 3477.589 900.331 3481.435 898.385 3485.238 898.385 M 3469.939 925.18 3483.337 925.18 M 3497.589 938.577 3499.491 936.676 3501.436 938.577 3499.491 940.523 3497.589 938.577 M 3499.491 925.18 3499.491 898.385 M 3536.78 919.432 3532.933 923.279 3529.086 925.18 3523.382 925.18 3519.535 923.279 3515.733 919.432 3513.787 913.684 3513.787 909.881 3515.733 904.133 3519.535 900.331 3523.382 898.385 3529.086 898.385 3532.933 900.331 3536.78 904.133 M 3572.079 925.18 3572.079 898.385 M 3572.079 919.432 3568.276 923.279 3564.43 925.18 3558.726 925.18 3554.879 923.279 3551.076 919.432 3549.131 913.684 3549.131 909.881 3551.076 904.133 3554.879 900.331 3558.726 898.385 3564.43 898.385 3568.276 900.331 3572.079 904.133 M 3586.332 902.232 3584.43 900.287 3586.332 898.385 3588.277 900.287 3586.332 902.232 M 3623.621 919.432 3619.774 923.279 3615.927 925.18 3610.223 925.18 3606.376 923.279 3602.574 919.432 3600.628 913.684 3600.628 909.881 3602.574 904.133 3606.376 900.331 3610.223 898.385 3615.927 898.385 3619.774 900.331 3623.621 904.133 M 3658.964 919.432 3655.117 923.279 3651.271 925.18 3645.567 925.18 3641.72 923.279 3637.917 919.432 3635.972 913.684 3635.972 909.881 3637.917 904.133 3641.72 900.331 3645.567 898.385 3651.271 898.385 3655.117 900.331 3658.964 904.133" fill="none" stroke-width="6.176"/><path d="M 3202.421 550.416 3200.995 553.268 3198.109 556.153 3195.258 557.579 3189.521 557.579 3186.636 556.153 3183.784 553.268 3182.325 550.416 3180.899 546.105 3180.899 538.909 3182.325 534.631 3183.784 531.746 3186.636 528.894 3189.521 527.435 3195.258 527.435 3198.109 528.894 3200.995 531.746 3202.421 534.631 M 3233.206 550.416 3231.78 553.268 3228.895 556.153 3226.043 557.579 3220.306 557.579 3217.421 556.153 3214.569 553.268 3213.11 550.416 3211.684 546.105 3211.684 538.909 3213.11 534.631 3214.569 531.746 3217.421 528.894 3220.306 527.435 3226.043 527.435 3228.895 528.894 3231.78 531.746 3233.206 534.631 M 3271.63 557.579 3271.63 527.435 3284.563 527.435 3288.874 528.894 3290.3 530.32 3291.726 533.172 3291.726 537.483 3290.3 540.368 3288.874 541.794 3284.563 543.22 3288.874 544.679 3290.3 546.105 3291.726 548.957 3291.726 551.842 3290.3 554.694 3288.874 556.153 3284.563 557.579 3271.63 557.579 M 3271.63 543.22 3284.563 543.22 M 3300.99 557.579 3312.464 543.22 3312.464 527.435 M 3323.938 557.579 3312.464 543.22 M 3333.201 542.491 3349.782 542.491 M 3379.142 553.268 3376.29 556.153 3371.979 557.579 3366.242 557.579 3361.931 556.153 3359.046 553.268 3359.046 550.416 3360.505 547.531 3361.931 546.105 3364.783 544.679 3373.405 541.794 3376.29 540.368 3377.716 538.909 3379.142 536.057 3379.142 531.746 3376.29 528.894 3371.979 527.435 3366.242 527.435 3361.931 528.894 3359.046 531.746 M 3411.386 527.435 3399.879 557.579 3388.405 527.435 M 3392.716 537.483 3407.075 537.483 M 3464.169 527.435 3464.169 557.546 3449.81 537.483 3471.332 537.483 M 3482.022 530.32 3480.596 528.861 3482.022 527.435 3483.481 528.861 3482.022 530.32 M 3501.366 557.546 3497.055 556.12 3494.17 551.809 3492.744 544.646 3492.744 540.335 3494.17 533.172 3497.055 528.861 3501.366 527.435 3504.218 527.435 3508.529 528.861 3511.381 533.172 3512.84 540.335 3512.84 544.646 3511.381 551.809 3508.529 556.12 3504.218 557.546 3501.366 557.546 M 3511.381 551.809 3494.17 533.172" fill="none" stroke-width="4.632"/></g></svg>