G04 DipTrace 3.3.1.3*
G04 Bottom.gbr*
%MOIN*%
G04 #@! TF.FileFunction,Copper,L2,Bot*
G04 #@! TF.Part,Single*
G04 #@! TA.AperFunction,CopperBalancing*
%ADD14C,0.025*%
%ADD15C,0.02*%
G04 #@! TA.AperFunction,ComponentPad*
%ADD34C,0.086614*%
%FSLAX26Y26*%
G04*
G70*
G90*
G75*
G01*
G04 Bottom*
%LPD*%
X644940Y1313025D2*
D14*
X4079474D1*
X644940Y1288156D2*
X4079474D1*
X644940Y1263287D2*
X4079474D1*
X644940Y1238419D2*
X4079474D1*
X644940Y1213550D2*
X4079474D1*
X644940Y1188681D2*
X832386D1*
X939261D2*
X1816654D1*
X1923492D2*
X2800921D1*
X2907760D2*
X3785152D1*
X3891992D2*
X4079474D1*
X644940Y1163812D2*
X817387D1*
X954261D2*
X1801618D1*
X1938529D2*
X2785886D1*
X2922795D2*
X3770152D1*
X3907028D2*
X4079474D1*
X644940Y1138944D2*
X813547D1*
X958101D2*
X1797814D1*
X1942332D2*
X2782046D1*
X2926600D2*
X3766314D1*
X3910866D2*
X4079474D1*
X644940Y1114075D2*
X818894D1*
X952753D2*
X1803161D1*
X1936986D2*
X2787428D1*
X2921252D2*
X3771660D1*
X3905520D2*
X4079474D1*
X644940Y1089206D2*
X836476D1*
X935171D2*
X1820744D1*
X1919438D2*
X2804975D1*
X2903669D2*
X3789243D1*
X3887937D2*
X4079474D1*
X644940Y1064337D2*
X830341D1*
X941307D2*
X1814608D1*
X1925573D2*
X2798840D1*
X2909806D2*
X3783106D1*
X3894073D2*
X4079474D1*
X644940Y1039469D2*
X816633D1*
X955014D2*
X1800865D1*
X1939282D2*
X2785131D1*
X2923513D2*
X3769399D1*
X3907781D2*
X4079474D1*
X644940Y1014600D2*
X813655D1*
X957993D2*
X1797921D1*
X1942260D2*
X2782154D1*
X2926492D2*
X3766421D1*
X3910759D2*
X4079474D1*
X644940Y989731D2*
X819899D1*
X951749D2*
X1804165D1*
X1935980D2*
X2788433D1*
X2920248D2*
X3772664D1*
X3904479D2*
X4079474D1*
X644940Y964862D2*
X839133D1*
X932514D2*
X1823400D1*
X1916747D2*
X2807631D1*
X2901014D2*
X3791899D1*
X3885281D2*
X4079474D1*
X644940Y939993D2*
X4079474D1*
X644940Y915125D2*
X4079474D1*
X644940Y890256D2*
X4079474D1*
X644940Y865387D2*
X4079474D1*
X644940Y840518D2*
X4079474D1*
X644940Y815650D2*
X4079474D1*
X644940Y790781D2*
X4079474D1*
X644940Y765912D2*
X4079474D1*
X644940Y741043D2*
X833534D1*
X938113D2*
X1817802D1*
X1922381D2*
X2802033D1*
X2906612D2*
X3786301D1*
X3890879D2*
X4079474D1*
X644940Y716175D2*
X817818D1*
X953866D2*
X1802049D1*
X1938097D2*
X2786316D1*
X2922365D2*
X3770547D1*
X3906596D2*
X4079474D1*
X644940Y691306D2*
X813547D1*
X958136D2*
X1797778D1*
X1942367D2*
X2782046D1*
X2926635D2*
X3766277D1*
X3910866D2*
X4079474D1*
X644940Y666437D2*
X818427D1*
X953220D2*
X1802694D1*
X1937488D2*
X2786927D1*
X2921719D2*
X3771193D1*
X3905987D2*
X4079474D1*
X644940Y641568D2*
X835220D1*
X936462D2*
X1819453D1*
X1920694D2*
X2803719D1*
X2904961D2*
X3787951D1*
X3889193D2*
X4079474D1*
X644940Y616699D2*
X4079474D1*
X644940Y591831D2*
X4079474D1*
X644940Y566962D2*
X4079474D1*
X644940Y542093D2*
X4079474D1*
X644940Y517224D2*
X4079474D1*
X644940Y492356D2*
X4079474D1*
X644940Y467487D2*
X4079474D1*
X644940Y442618D2*
X4079474D1*
X955411Y686650D2*
X953697Y675832D1*
X950312Y665415D1*
X945340Y655656D1*
X938903Y646795D1*
X931157Y639050D1*
X922297Y632613D1*
X912538Y627640D1*
X902121Y624256D1*
X891303Y622542D1*
X880350D1*
X869533Y624256D1*
X859115Y627640D1*
X849357Y632613D1*
X840496Y639050D1*
X832751Y646795D1*
X826314Y655656D1*
X821341Y665415D1*
X817957Y675832D1*
X816243Y686650D1*
Y697602D1*
X817957Y708420D1*
X821341Y718837D1*
X826314Y728596D1*
X832751Y737457D1*
X840496Y745202D1*
X849357Y751639D1*
X859115Y756612D1*
X869533Y759996D1*
X880350Y761710D1*
X891303D1*
X902121Y759996D1*
X912538Y756612D1*
X922297Y751639D1*
X931157Y745202D1*
X938903Y737457D1*
X945340Y728596D1*
X950312Y718837D1*
X953697Y708420D1*
X955411Y697602D1*
Y686650D1*
Y1013421D2*
X953697Y1002604D1*
X950312Y992186D1*
X945340Y982428D1*
X938903Y973567D1*
X931157Y965822D1*
X922297Y959385D1*
X912538Y954412D1*
X902121Y951028D1*
X891303Y949314D1*
X880350D1*
X869533Y951028D1*
X859115Y954412D1*
X849357Y959385D1*
X840496Y965822D1*
X832751Y973567D1*
X826314Y982428D1*
X821341Y992186D1*
X817957Y1002604D1*
X816243Y1013421D1*
Y1024374D1*
X817957Y1035192D1*
X821341Y1045609D1*
X826314Y1055367D1*
X832751Y1064228D1*
X840496Y1071974D1*
X849357Y1078411D1*
X851835Y1079983D1*
X845615Y1083892D1*
X839843Y1088434D1*
X834579Y1093558D1*
X829882Y1099206D1*
X825806Y1105316D1*
X822394Y1111822D1*
X819684Y1118650D1*
X817707Y1125724D1*
X816484Y1132967D1*
X816030Y1140299D1*
X816349Y1147638D1*
X817437Y1154903D1*
X819283Y1162013D1*
X821866Y1168890D1*
X825156Y1175457D1*
X829119Y1181642D1*
X833711Y1187375D1*
X838879Y1192596D1*
X844567Y1197244D1*
X850713Y1201268D1*
X857247Y1204625D1*
X864097Y1207276D1*
X871189Y1209192D1*
X878442Y1210352D1*
X885777Y1210744D1*
X893113Y1210362D1*
X900367Y1209213D1*
X907462Y1207306D1*
X914316Y1204665D1*
X920856Y1201318D1*
X927007Y1197303D1*
X932701Y1192663D1*
X937877Y1187450D1*
X942476Y1181722D1*
X946448Y1175543D1*
X949748Y1168980D1*
X952340Y1162108D1*
X954197Y1155000D1*
X955295Y1147738D1*
X955602Y1139108D1*
X955022Y1131785D1*
X953676Y1124564D1*
X951579Y1117524D1*
X948753Y1110743D1*
X945231Y1104297D1*
X941051Y1098257D1*
X936259Y1092690D1*
X930908Y1087657D1*
X925058Y1083214D1*
X919710Y1079928D1*
X926854Y1075366D1*
X935182Y1068253D1*
X942295Y1059925D1*
X948018Y1050585D1*
X952210Y1040467D1*
X954766Y1029816D1*
X955626Y1018898D1*
X955411Y1013421D1*
X1939663Y686650D2*
X1937949Y675832D1*
X1934564Y665415D1*
X1929592Y655656D1*
X1923155Y646795D1*
X1915409Y639050D1*
X1906549Y632613D1*
X1896790Y627640D1*
X1886373Y624256D1*
X1875555Y622542D1*
X1864602D1*
X1853785Y624256D1*
X1843367Y627640D1*
X1833609Y632613D1*
X1824748Y639050D1*
X1817003Y646795D1*
X1810566Y655656D1*
X1805593Y665415D1*
X1802209Y675832D1*
X1800495Y686650D1*
Y697602D1*
X1802209Y708420D1*
X1805593Y718837D1*
X1810566Y728596D1*
X1817003Y737457D1*
X1824748Y745202D1*
X1833609Y751639D1*
X1843367Y756612D1*
X1853785Y759996D1*
X1864602Y761710D1*
X1875555D1*
X1886373Y759996D1*
X1896790Y756612D1*
X1906549Y751639D1*
X1915409Y745202D1*
X1923155Y737457D1*
X1929592Y728596D1*
X1934564Y718837D1*
X1937949Y708420D1*
X1939663Y697602D1*
Y686650D1*
Y1013421D2*
X1937949Y1002604D1*
X1934564Y992186D1*
X1929592Y982428D1*
X1923155Y973567D1*
X1915409Y965822D1*
X1906549Y959385D1*
X1896790Y954412D1*
X1886373Y951028D1*
X1875555Y949314D1*
X1864602D1*
X1853785Y951028D1*
X1843367Y954412D1*
X1833609Y959385D1*
X1824748Y965822D1*
X1817003Y973567D1*
X1810566Y982428D1*
X1805593Y992186D1*
X1802209Y1002604D1*
X1800495Y1013421D1*
Y1024374D1*
X1802209Y1035192D1*
X1805593Y1045609D1*
X1810566Y1055367D1*
X1817003Y1064228D1*
X1824748Y1071974D1*
X1833609Y1078411D1*
X1836087Y1079983D1*
X1829867Y1083892D1*
X1824094Y1088434D1*
X1818831Y1093558D1*
X1814134Y1099206D1*
X1810058Y1105316D1*
X1806646Y1111822D1*
X1803936Y1118650D1*
X1801959Y1125724D1*
X1800736Y1132967D1*
X1800282Y1140299D1*
X1800601Y1147638D1*
X1801689Y1154903D1*
X1803535Y1162013D1*
X1806118Y1168890D1*
X1809408Y1175457D1*
X1813371Y1181642D1*
X1817963Y1187375D1*
X1823131Y1192596D1*
X1828819Y1197244D1*
X1834965Y1201268D1*
X1841499Y1204625D1*
X1848349Y1207276D1*
X1855441Y1209192D1*
X1862694Y1210352D1*
X1870029Y1210744D1*
X1877365Y1210362D1*
X1884619Y1209213D1*
X1891714Y1207306D1*
X1898568Y1204665D1*
X1905108Y1201318D1*
X1911259Y1197303D1*
X1916953Y1192663D1*
X1922129Y1187450D1*
X1926728Y1181722D1*
X1930699Y1175543D1*
X1934000Y1168980D1*
X1936592Y1162108D1*
X1938449Y1155000D1*
X1939547Y1147738D1*
X1939854Y1139108D1*
X1939274Y1131785D1*
X1937928Y1124564D1*
X1935831Y1117524D1*
X1933005Y1110743D1*
X1929483Y1104297D1*
X1925303Y1098257D1*
X1920510Y1092690D1*
X1915160Y1087657D1*
X1909310Y1083214D1*
X1903962Y1079928D1*
X1911106Y1075366D1*
X1919434Y1068253D1*
X1926547Y1059925D1*
X1932270Y1050585D1*
X1936462Y1040467D1*
X1939018Y1029816D1*
X1939878Y1018898D1*
X1939663Y1013421D1*
X2923915Y686650D2*
X2922201Y675832D1*
X2918816Y665415D1*
X2913844Y655656D1*
X2907407Y646795D1*
X2899661Y639050D1*
X2890801Y632613D1*
X2881042Y627640D1*
X2870625Y624256D1*
X2859807Y622542D1*
X2848854D1*
X2838037Y624256D1*
X2827619Y627640D1*
X2817861Y632613D1*
X2809000Y639050D1*
X2801255Y646795D1*
X2794818Y655656D1*
X2789845Y665415D1*
X2786461Y675832D1*
X2784747Y686650D1*
Y697602D1*
X2786461Y708420D1*
X2789845Y718837D1*
X2794818Y728596D1*
X2801255Y737457D1*
X2809000Y745202D1*
X2817861Y751639D1*
X2827619Y756612D1*
X2838037Y759996D1*
X2848854Y761710D1*
X2859807D1*
X2870625Y759996D1*
X2881042Y756612D1*
X2890801Y751639D1*
X2899661Y745202D1*
X2907407Y737457D1*
X2913844Y728596D1*
X2918816Y718837D1*
X2922201Y708420D1*
X2923915Y697602D1*
Y686650D1*
Y1013421D2*
X2922201Y1002604D1*
X2918816Y992186D1*
X2913844Y982428D1*
X2907407Y973567D1*
X2899661Y965822D1*
X2890801Y959385D1*
X2881042Y954412D1*
X2870625Y951028D1*
X2859807Y949314D1*
X2848854D1*
X2838037Y951028D1*
X2827619Y954412D1*
X2817861Y959385D1*
X2809000Y965822D1*
X2801255Y973567D1*
X2794818Y982428D1*
X2789845Y992186D1*
X2786461Y1002604D1*
X2784747Y1013421D1*
Y1024374D1*
X2786461Y1035192D1*
X2789845Y1045609D1*
X2794818Y1055367D1*
X2801255Y1064228D1*
X2809000Y1071974D1*
X2817861Y1078411D1*
X2820339Y1079983D1*
X2814119Y1083892D1*
X2808346Y1088434D1*
X2803083Y1093558D1*
X2798386Y1099206D1*
X2794310Y1105316D1*
X2790898Y1111822D1*
X2788188Y1118650D1*
X2786211Y1125724D1*
X2784988Y1132967D1*
X2784534Y1140299D1*
X2784853Y1147638D1*
X2785941Y1154903D1*
X2787787Y1162013D1*
X2790370Y1168890D1*
X2793660Y1175457D1*
X2797623Y1181642D1*
X2802215Y1187375D1*
X2807383Y1192596D1*
X2813071Y1197244D1*
X2819217Y1201268D1*
X2825751Y1204625D1*
X2832601Y1207276D1*
X2839693Y1209192D1*
X2846946Y1210352D1*
X2854281Y1210744D1*
X2861617Y1210362D1*
X2868871Y1209213D1*
X2875966Y1207306D1*
X2882820Y1204665D1*
X2889360Y1201318D1*
X2895510Y1197303D1*
X2901205Y1192663D1*
X2906381Y1187450D1*
X2910980Y1181722D1*
X2914951Y1175543D1*
X2918252Y1168980D1*
X2920844Y1162108D1*
X2922701Y1155000D1*
X2923799Y1147738D1*
X2924106Y1139108D1*
X2923526Y1131785D1*
X2922180Y1124564D1*
X2920083Y1117524D1*
X2917257Y1110743D1*
X2913735Y1104297D1*
X2909555Y1098257D1*
X2904762Y1092690D1*
X2899412Y1087657D1*
X2893562Y1083214D1*
X2888214Y1079928D1*
X2895358Y1075366D1*
X2903686Y1068253D1*
X2910799Y1059925D1*
X2916522Y1050585D1*
X2920714Y1040467D1*
X2923270Y1029816D1*
X2924130Y1018898D1*
X2923915Y1013421D1*
X3908167Y686650D2*
X3906453Y675832D1*
X3903068Y665415D1*
X3898096Y655656D1*
X3891659Y646795D1*
X3883913Y639050D1*
X3875052Y632613D1*
X3865294Y627640D1*
X3854877Y624256D1*
X3844059Y622542D1*
X3833106D1*
X3822289Y624256D1*
X3811871Y627640D1*
X3802113Y632613D1*
X3793252Y639050D1*
X3785507Y646795D1*
X3779070Y655656D1*
X3774097Y665415D1*
X3770713Y675832D1*
X3768999Y686650D1*
Y697602D1*
X3770713Y708420D1*
X3774097Y718837D1*
X3779070Y728596D1*
X3785507Y737457D1*
X3793252Y745202D1*
X3802113Y751639D1*
X3811871Y756612D1*
X3822289Y759996D1*
X3833106Y761710D1*
X3844059D1*
X3854877Y759996D1*
X3865294Y756612D1*
X3875052Y751639D1*
X3883913Y745202D1*
X3891659Y737457D1*
X3898096Y728596D1*
X3903068Y718837D1*
X3906453Y708420D1*
X3908167Y697602D1*
Y686650D1*
Y1013421D2*
X3906453Y1002604D1*
X3903068Y992186D1*
X3898096Y982428D1*
X3891659Y973567D1*
X3883913Y965822D1*
X3875052Y959385D1*
X3865294Y954412D1*
X3854877Y951028D1*
X3844059Y949314D1*
X3833106D1*
X3822289Y951028D1*
X3811871Y954412D1*
X3802113Y959385D1*
X3793252Y965822D1*
X3785507Y973567D1*
X3779070Y982428D1*
X3774097Y992186D1*
X3770713Y1002604D1*
X3768999Y1013421D1*
Y1024374D1*
X3770713Y1035192D1*
X3774097Y1045609D1*
X3779070Y1055367D1*
X3785507Y1064228D1*
X3793252Y1071974D1*
X3802113Y1078411D1*
X3804591Y1079983D1*
X3798371Y1083892D1*
X3792598Y1088434D1*
X3787335Y1093558D1*
X3782638Y1099206D1*
X3778562Y1105316D1*
X3775150Y1111822D1*
X3772440Y1118650D1*
X3770463Y1125724D1*
X3769240Y1132967D1*
X3768786Y1140299D1*
X3769105Y1147638D1*
X3770193Y1154903D1*
X3772039Y1162013D1*
X3774622Y1168890D1*
X3777912Y1175457D1*
X3781875Y1181642D1*
X3786467Y1187375D1*
X3791635Y1192596D1*
X3797323Y1197244D1*
X3803469Y1201268D1*
X3810003Y1204625D1*
X3816853Y1207276D1*
X3823945Y1209192D1*
X3831198Y1210352D1*
X3838533Y1210744D1*
X3845869Y1210362D1*
X3853123Y1209213D1*
X3860218Y1207306D1*
X3867072Y1204665D1*
X3873612Y1201318D1*
X3879762Y1197303D1*
X3885457Y1192663D1*
X3890633Y1187450D1*
X3895232Y1181722D1*
X3899203Y1175543D1*
X3902504Y1168980D1*
X3905096Y1162108D1*
X3906953Y1155000D1*
X3908051Y1147738D1*
X3908358Y1139108D1*
X3907778Y1131785D1*
X3906432Y1124564D1*
X3904335Y1117524D1*
X3901509Y1110743D1*
X3897987Y1104297D1*
X3893807Y1098257D1*
X3889014Y1092690D1*
X3883664Y1087657D1*
X3877814Y1083214D1*
X3872466Y1079928D1*
X3879610Y1075366D1*
X3887938Y1068253D1*
X3895051Y1059925D1*
X3900774Y1050585D1*
X3904966Y1040467D1*
X3907522Y1029816D1*
X3908382Y1018898D1*
X3908167Y1013421D1*
X642445Y433760D2*
X4082016D1*
X4081988Y1337921D1*
X642394Y1337894D1*
X642421Y433732D1*
X885827Y1210709D2*
D15*
Y1140945D1*
X816063D2*
X955591D1*
X1870079Y1210709D2*
Y1140945D1*
X1800315D2*
X1939843D1*
X2854331Y1210709D2*
Y1140945D1*
X2784567D2*
X2924094D1*
X3838583Y1210709D2*
Y1140945D1*
X3768819D2*
X3908346D1*
D34*
X885827Y692126D3*
Y1018898D3*
Y1140945D3*
X1870079Y692126D3*
Y1018898D3*
Y1140945D3*
X2854331Y692126D3*
Y1018898D3*
Y1140945D3*
X3838583Y692126D3*
Y1018898D3*
Y1140945D3*
M02*
