G04 DipTrace 3.3.1.3*
G04 Top.gbr*
%MOIN*%
G04 #@! TF.FileFunction,Copper,L1,Top*
G04 #@! TF.Part,Single*
G04 #@! TA.AperFunction,Conductor*
%ADD13C,0.012*%
G04 #@! TA.AperFunction,CopperBalancing*
%ADD14C,0.025*%
%ADD15C,0.02*%
%ADD16R,0.070866X0.062992*%
%ADD18R,0.125197X0.05*%
G04 #@! TA.AperFunction,ComponentPad*
%ADD34C,0.086614*%
%FSLAX26Y26*%
G04*
G70*
G90*
G75*
G01*
G04 Top*
%LPD*%
X3838583Y692126D2*
D13*
X3728108D1*
X3727961Y691979D1*
X1401238Y935827D2*
X3414615D1*
X3658463Y691979D1*
X3727961D1*
X2854331Y692126D2*
X2743728D1*
X2743581Y691979D1*
X1276041Y835827D2*
X1462946D1*
X1532501Y905381D1*
X1956820D1*
X2170223Y691979D1*
X2743581D1*
X1870079Y692126D2*
X1756239D1*
X1756092Y691979D1*
X1401238Y735827D2*
X1627175D1*
X1671022Y691979D1*
X1756092D1*
X885827Y692126D2*
X999913D1*
X1000060Y691979D1*
X1276041Y635827D2*
X1131255D1*
X1075102Y691979D1*
X1000060D1*
X644940Y1313025D2*
D14*
X4079474D1*
X644940Y1288156D2*
X4079474D1*
X644940Y1263287D2*
X4079474D1*
X644940Y1238419D2*
X4079474D1*
X644940Y1213550D2*
X4079474D1*
X644940Y1188681D2*
X832386D1*
X939261D2*
X1816654D1*
X1923492D2*
X2800921D1*
X2907760D2*
X3785152D1*
X3891992D2*
X4079474D1*
X644940Y1163812D2*
X817387D1*
X954261D2*
X1309646D1*
X1492811D2*
X1801618D1*
X1938529D2*
X2785886D1*
X2922795D2*
X3770152D1*
X3907028D2*
X4079474D1*
X644940Y1138944D2*
X813547D1*
X958101D2*
X1309646D1*
X1492811D2*
X1797814D1*
X1942332D2*
X2782046D1*
X2926600D2*
X3766314D1*
X3910866D2*
X4079474D1*
X644940Y1114075D2*
X818894D1*
X952753D2*
X1309646D1*
X1492811D2*
X1803161D1*
X1936986D2*
X2787428D1*
X2921252D2*
X3771660D1*
X3905520D2*
X4079474D1*
X644940Y1089206D2*
X836476D1*
X935171D2*
X1309646D1*
X1492811D2*
X1820744D1*
X1919438D2*
X2804975D1*
X2903669D2*
X3789243D1*
X3887937D2*
X4079474D1*
X644940Y1064337D2*
X830341D1*
X941307D2*
X1184446D1*
X1367647D2*
X1814608D1*
X1925573D2*
X2798840D1*
X2909806D2*
X3783106D1*
X3894073D2*
X4079474D1*
X644940Y1039469D2*
X816633D1*
X955014D2*
X1184446D1*
X1367647D2*
X1800865D1*
X1939282D2*
X2785131D1*
X2923513D2*
X3769399D1*
X3907781D2*
X4079474D1*
X644940Y1014600D2*
X813655D1*
X957993D2*
X1184446D1*
X1367647D2*
X1797921D1*
X1942260D2*
X2782154D1*
X2926492D2*
X3766421D1*
X3910759D2*
X4079474D1*
X644940Y989731D2*
X819899D1*
X951749D2*
X1184446D1*
X1367647D2*
X1804165D1*
X1935980D2*
X2788433D1*
X2920248D2*
X3772664D1*
X3904479D2*
X4079474D1*
X644940Y964862D2*
X839133D1*
X932514D2*
X1309646D1*
X3431705D2*
X3791899D1*
X3885281D2*
X4079474D1*
X644940Y939993D2*
X1309646D1*
X3458906D2*
X4079474D1*
X644940Y915125D2*
X1309646D1*
X3483773D2*
X4079474D1*
X644940Y890256D2*
X1309646D1*
X2020381D2*
X3411741D1*
X3508640D2*
X4079474D1*
X644940Y865387D2*
X1184446D1*
X1540967D2*
X1948348D1*
X2045248D2*
X3436609D1*
X3533509D2*
X4079474D1*
X644940Y840518D2*
X935625D1*
X1064497D2*
X1184446D1*
X1516100D2*
X1691669D1*
X1820505D2*
X1973217D1*
X2070151D2*
X2679165D1*
X2808003D2*
X3461476D1*
X3558377D2*
X3663541D1*
X3792377D2*
X4079474D1*
X644940Y815650D2*
X935625D1*
X1064497D2*
X1184446D1*
X1491232D2*
X1691669D1*
X1820505D2*
X1998084D1*
X2095020D2*
X2679165D1*
X2808003D2*
X3486345D1*
X3583244D2*
X3663541D1*
X3792377D2*
X4079474D1*
X644940Y790781D2*
X935625D1*
X1064497D2*
X1184446D1*
X1367647D2*
X1691669D1*
X1820505D2*
X2022987D1*
X2119887D2*
X2679165D1*
X2808003D2*
X3511213D1*
X3608112D2*
X3663541D1*
X3792377D2*
X4079474D1*
X644940Y765912D2*
X935625D1*
X1064497D2*
X1309646D1*
X1641945D2*
X1691669D1*
X1820505D2*
X2047856D1*
X2144755D2*
X2679165D1*
X2808003D2*
X3536080D1*
X3632979D2*
X3663541D1*
X3792377D2*
X4079474D1*
X644940Y741043D2*
X833534D1*
X1064497D2*
X1309646D1*
X1670402D2*
X1691669D1*
X1922381D2*
X2072723D1*
X2169622D2*
X2679165D1*
X2906612D2*
X3560948D1*
X3890879D2*
X4079474D1*
X644940Y716175D2*
X817818D1*
X1099304D2*
X1309646D1*
X1938097D2*
X2097591D1*
X2922365D2*
X3585815D1*
X3906596D2*
X4079474D1*
X644940Y691306D2*
X813547D1*
X1124244D2*
X1309646D1*
X1492811D2*
X1623238D1*
X1942367D2*
X2122458D1*
X2926635D2*
X3610684D1*
X3910866D2*
X4079474D1*
X644940Y666437D2*
X818427D1*
X1367647D2*
X1648428D1*
X1937488D2*
X2147650D1*
X2921719D2*
X3635874D1*
X3905987D2*
X4079474D1*
X644940Y641568D2*
X835220D1*
X1064497D2*
X1077045D1*
X1367647D2*
X1691669D1*
X1920694D2*
X2679165D1*
X2904961D2*
X3663541D1*
X3889193D2*
X4079474D1*
X644940Y616699D2*
X1101948D1*
X1367647D2*
X4079474D1*
X644940Y591831D2*
X1184446D1*
X1367647D2*
X4079474D1*
X644940Y566962D2*
X4079474D1*
X644940Y542093D2*
X4079474D1*
X644940Y517224D2*
X4079474D1*
X644940Y492356D2*
X4079474D1*
X644940Y467487D2*
X4079474D1*
X644940Y442618D2*
X4079474D1*
X1196136Y687319D2*
X1312150D1*
X1312147Y784344D1*
X1186950Y784335D1*
Y887319D1*
X1312150D1*
X1312147Y984344D1*
X1186950Y984335D1*
Y1087319D1*
X1312150D1*
X1312147Y1187319D1*
X1490328D1*
Y1084335D1*
X1365129D1*
X1365131Y987310D1*
X1490328Y987319D1*
Y968336D1*
X1821979Y968319D1*
X1817003Y973567D1*
X1810566Y982428D1*
X1805593Y992186D1*
X1802209Y1002604D1*
X1800495Y1013421D1*
Y1024374D1*
X1802209Y1035192D1*
X1805593Y1045609D1*
X1810566Y1055367D1*
X1817003Y1064228D1*
X1824748Y1071974D1*
X1833609Y1078411D1*
X1836087Y1079983D1*
X1829867Y1083892D1*
X1824094Y1088434D1*
X1818831Y1093558D1*
X1814134Y1099206D1*
X1810058Y1105316D1*
X1806646Y1111822D1*
X1803936Y1118650D1*
X1801959Y1125724D1*
X1800736Y1132967D1*
X1800282Y1140299D1*
X1800601Y1147638D1*
X1801689Y1154903D1*
X1803535Y1162013D1*
X1806118Y1168890D1*
X1809408Y1175457D1*
X1813371Y1181642D1*
X1817963Y1187375D1*
X1823131Y1192596D1*
X1828819Y1197244D1*
X1834965Y1201268D1*
X1841499Y1204625D1*
X1848349Y1207276D1*
X1855441Y1209192D1*
X1862694Y1210352D1*
X1870029Y1210744D1*
X1877365Y1210362D1*
X1884619Y1209213D1*
X1891714Y1207306D1*
X1898568Y1204665D1*
X1905108Y1201318D1*
X1911259Y1197303D1*
X1916953Y1192663D1*
X1922129Y1187450D1*
X1926728Y1181722D1*
X1930699Y1175543D1*
X1934000Y1168980D1*
X1936592Y1162108D1*
X1938449Y1155000D1*
X1939547Y1147738D1*
X1939854Y1139108D1*
X1939274Y1131785D1*
X1937928Y1124564D1*
X1935831Y1117524D1*
X1933005Y1110743D1*
X1929483Y1104297D1*
X1925303Y1098257D1*
X1920510Y1092690D1*
X1915160Y1087657D1*
X1909310Y1083214D1*
X1903962Y1079928D1*
X1911106Y1075366D1*
X1919434Y1068253D1*
X1926547Y1059925D1*
X1932270Y1050585D1*
X1936462Y1040467D1*
X1939018Y1029816D1*
X1939878Y1018898D1*
X1939018Y1007979D1*
X1936462Y997328D1*
X1932270Y987210D1*
X1926547Y977870D1*
X1919434Y969542D1*
X1918098Y968307D1*
X2806211Y968319D1*
X2801255Y973567D1*
X2794818Y982428D1*
X2789845Y992186D1*
X2786461Y1002604D1*
X2784747Y1013421D1*
Y1024374D1*
X2786461Y1035192D1*
X2789845Y1045609D1*
X2794818Y1055367D1*
X2801255Y1064228D1*
X2809000Y1071974D1*
X2817861Y1078411D1*
X2820339Y1079983D1*
X2814119Y1083892D1*
X2808346Y1088434D1*
X2803083Y1093558D1*
X2798386Y1099206D1*
X2794310Y1105316D1*
X2790898Y1111822D1*
X2788188Y1118650D1*
X2786211Y1125724D1*
X2784988Y1132967D1*
X2784534Y1140299D1*
X2784853Y1147638D1*
X2785941Y1154903D1*
X2787787Y1162013D1*
X2790370Y1168890D1*
X2793660Y1175457D1*
X2797623Y1181642D1*
X2802215Y1187375D1*
X2807383Y1192596D1*
X2813071Y1197244D1*
X2819217Y1201268D1*
X2825751Y1204625D1*
X2832601Y1207276D1*
X2839693Y1209192D1*
X2846946Y1210352D1*
X2854281Y1210744D1*
X2861617Y1210362D1*
X2868871Y1209213D1*
X2875966Y1207306D1*
X2882820Y1204665D1*
X2889360Y1201318D1*
X2895510Y1197303D1*
X2901205Y1192663D1*
X2906381Y1187450D1*
X2910980Y1181722D1*
X2914951Y1175543D1*
X2918252Y1168980D1*
X2920844Y1162108D1*
X2922701Y1155000D1*
X2923799Y1147738D1*
X2924106Y1139108D1*
X2923526Y1131785D1*
X2922180Y1124564D1*
X2920083Y1117524D1*
X2917257Y1110743D1*
X2913735Y1104297D1*
X2909555Y1098257D1*
X2904762Y1092690D1*
X2899412Y1087657D1*
X2893562Y1083214D1*
X2888214Y1079928D1*
X2895358Y1075366D1*
X2903686Y1068253D1*
X2910799Y1059925D1*
X2916522Y1050585D1*
X2920714Y1040467D1*
X2923270Y1029816D1*
X2924130Y1018898D1*
X2923270Y1007979D1*
X2920714Y997328D1*
X2916522Y987210D1*
X2910799Y977870D1*
X2903686Y969542D1*
X2902350Y968307D1*
X3417164Y968219D1*
X3422199Y967421D1*
X3427049Y965845D1*
X3431592Y963531D1*
X3435717Y960534D1*
X3483060Y913332D1*
X3666031Y730361D1*
X3666035Y860203D1*
X3789886D1*
Y742109D1*
X3797555Y748594D1*
X3806895Y754318D1*
X3817013Y758509D1*
X3827664Y761066D1*
X3838583Y761925D1*
X3849501Y761066D1*
X3860152Y758509D1*
X3870270Y754318D1*
X3879610Y748594D1*
X3887938Y741482D1*
X3895051Y733154D1*
X3900774Y723814D1*
X3904966Y713696D1*
X3907522Y703045D1*
X3908382Y692126D1*
X3907522Y681207D1*
X3904966Y670556D1*
X3900774Y660438D1*
X3895051Y651098D1*
X3887938Y642770D1*
X3879610Y635657D1*
X3870270Y629934D1*
X3860152Y625743D1*
X3849501Y623186D1*
X3838583Y622327D1*
X3827664Y623186D1*
X3817013Y625743D1*
X3806895Y629934D1*
X3797555Y635657D1*
X3789871Y642175D1*
X3789886Y633991D1*
X3666035D1*
Y659504D1*
X3655913Y659587D1*
X3650878Y660385D1*
X3646029Y661961D1*
X3641486Y664274D1*
X3637361Y667272D1*
X3590017Y714474D1*
X3401159Y903332D1*
X2004833Y903335D1*
X2183676Y724476D1*
X2681680Y724471D1*
X2681656Y860203D1*
X2805507D1*
Y742037D1*
X2813303Y748594D1*
X2822643Y754318D1*
X2832761Y758509D1*
X2843412Y761066D1*
X2854331Y761925D1*
X2865249Y761066D1*
X2875900Y758509D1*
X2886018Y754318D1*
X2895358Y748594D1*
X2903686Y741482D1*
X2910799Y733154D1*
X2916522Y723814D1*
X2920714Y713696D1*
X2923270Y703045D1*
X2924130Y692126D1*
X2923270Y681207D1*
X2920714Y670556D1*
X2916522Y660438D1*
X2910799Y651098D1*
X2903686Y642770D1*
X2895358Y635657D1*
X2886018Y629934D1*
X2875900Y625743D1*
X2865249Y623186D1*
X2854331Y622327D1*
X2843412Y623186D1*
X2832761Y625743D1*
X2822643Y629934D1*
X2813303Y635657D1*
X2805493Y642291D1*
X2805507Y633991D1*
X2681656D1*
Y659504D1*
X2167673Y659587D1*
X2162638Y660385D1*
X2157789Y661961D1*
X2153245Y664274D1*
X2149121Y667272D1*
X2101777Y714474D1*
X1943367Y872883D1*
X1545983Y872888D1*
X1484049Y811119D1*
X1479924Y808122D1*
X1475381Y805808D1*
X1470531Y804232D1*
X1465496Y803434D1*
X1398642Y803335D1*
X1365163D1*
X1365131Y787310D1*
X1490328Y787319D1*
Y768336D1*
X1629724Y768219D1*
X1634760Y767421D1*
X1639609Y765845D1*
X1644152Y763531D1*
X1648277Y760534D1*
X1684482Y724471D1*
X1694168D1*
X1694167Y860203D1*
X1818017D1*
Y738592D1*
X1824748Y745202D1*
X1833609Y751639D1*
X1843367Y756612D1*
X1853785Y759996D1*
X1864602Y761710D1*
X1875555D1*
X1886373Y759996D1*
X1896790Y756612D1*
X1906549Y751639D1*
X1915409Y745202D1*
X1923155Y737457D1*
X1929592Y728596D1*
X1934564Y718837D1*
X1937949Y708420D1*
X1939663Y697602D1*
Y686650D1*
X1937949Y675832D1*
X1934564Y665415D1*
X1929592Y655656D1*
X1923155Y646795D1*
X1915409Y639050D1*
X1906549Y632613D1*
X1896790Y627640D1*
X1886373Y624256D1*
X1875555Y622542D1*
X1864602D1*
X1853785Y624256D1*
X1843367Y627640D1*
X1833609Y632613D1*
X1824748Y639050D1*
X1818005Y645710D1*
X1818017Y633991D1*
X1694167D1*
Y659504D1*
X1668474Y659587D1*
X1663437Y660385D1*
X1658588Y661961D1*
X1654046Y664274D1*
X1649921Y667272D1*
X1613717Y703335D1*
X1490349D1*
X1490328Y684335D1*
X1365129D1*
X1365131Y584335D1*
X1186950D1*
Y603318D1*
X1128706Y603434D1*
X1123669Y604232D1*
X1118820Y605808D1*
X1114278Y608122D1*
X1110152Y611119D1*
X1061972Y659159D1*
X1061986Y633991D1*
X938135D1*
Y645940D1*
X931157Y639050D1*
X922297Y632613D1*
X912538Y627640D1*
X902121Y624256D1*
X891303Y622542D1*
X880350D1*
X869533Y624256D1*
X859115Y627640D1*
X849357Y632613D1*
X840496Y639050D1*
X832751Y646795D1*
X826314Y655656D1*
X821341Y665415D1*
X817957Y675832D1*
X816243Y686650D1*
Y697602D1*
X817957Y708420D1*
X821341Y718837D1*
X826314Y728596D1*
X832751Y737457D1*
X840496Y745202D1*
X849357Y751639D1*
X859115Y756612D1*
X869533Y759996D1*
X880350Y761710D1*
X891303D1*
X902121Y759996D1*
X912538Y756612D1*
X922297Y751639D1*
X931157Y745202D1*
X938133Y738290D1*
X938135Y860203D1*
X1061986D1*
Y724453D1*
X1077652Y724371D1*
X1082688Y723573D1*
X1087537Y721997D1*
X1092080Y719684D1*
X1096205Y716686D1*
X1144690Y668343D1*
X1186983Y668319D1*
X1186950Y687319D1*
X1196136D1*
X955411Y1013421D2*
X953697Y1002604D1*
X950312Y992186D1*
X945340Y982428D1*
X938903Y973567D1*
X931157Y965822D1*
X922297Y959385D1*
X912538Y954412D1*
X902121Y951028D1*
X891303Y949314D1*
X880350D1*
X869533Y951028D1*
X859115Y954412D1*
X849357Y959385D1*
X840496Y965822D1*
X832751Y973567D1*
X826314Y982428D1*
X821341Y992186D1*
X817957Y1002604D1*
X816243Y1013421D1*
Y1024374D1*
X817957Y1035192D1*
X821341Y1045609D1*
X826314Y1055367D1*
X832751Y1064228D1*
X840496Y1071974D1*
X849357Y1078411D1*
X851835Y1079983D1*
X845615Y1083892D1*
X839843Y1088434D1*
X834579Y1093558D1*
X829882Y1099206D1*
X825806Y1105316D1*
X822394Y1111822D1*
X819684Y1118650D1*
X817707Y1125724D1*
X816484Y1132967D1*
X816030Y1140299D1*
X816349Y1147638D1*
X817437Y1154903D1*
X819283Y1162013D1*
X821866Y1168890D1*
X825156Y1175457D1*
X829119Y1181642D1*
X833711Y1187375D1*
X838879Y1192596D1*
X844567Y1197244D1*
X850713Y1201268D1*
X857247Y1204625D1*
X864097Y1207276D1*
X871189Y1209192D1*
X878442Y1210352D1*
X885777Y1210744D1*
X893113Y1210362D1*
X900367Y1209213D1*
X907462Y1207306D1*
X914316Y1204665D1*
X920856Y1201318D1*
X927007Y1197303D1*
X932701Y1192663D1*
X937877Y1187450D1*
X942476Y1181722D1*
X946448Y1175543D1*
X949748Y1168980D1*
X952340Y1162108D1*
X954197Y1155000D1*
X955295Y1147738D1*
X955602Y1139108D1*
X955022Y1131785D1*
X953676Y1124564D1*
X951579Y1117524D1*
X948753Y1110743D1*
X945231Y1104297D1*
X941051Y1098257D1*
X936259Y1092690D1*
X930908Y1087657D1*
X925058Y1083214D1*
X919710Y1079928D1*
X926854Y1075366D1*
X935182Y1068253D1*
X942295Y1059925D1*
X948018Y1050585D1*
X952210Y1040467D1*
X954766Y1029816D1*
X955626Y1018898D1*
X955411Y1013421D1*
X3908167D2*
X3906453Y1002604D1*
X3903068Y992186D1*
X3898096Y982428D1*
X3891659Y973567D1*
X3883913Y965822D1*
X3875052Y959385D1*
X3865294Y954412D1*
X3854877Y951028D1*
X3844059Y949314D1*
X3833106D1*
X3822289Y951028D1*
X3811871Y954412D1*
X3802113Y959385D1*
X3793252Y965822D1*
X3785507Y973567D1*
X3779070Y982428D1*
X3774097Y992186D1*
X3770713Y1002604D1*
X3768999Y1013421D1*
Y1024374D1*
X3770713Y1035192D1*
X3774097Y1045609D1*
X3779070Y1055367D1*
X3785507Y1064228D1*
X3793252Y1071974D1*
X3802113Y1078411D1*
X3804591Y1079983D1*
X3798371Y1083892D1*
X3792598Y1088434D1*
X3787335Y1093558D1*
X3782638Y1099206D1*
X3778562Y1105316D1*
X3775150Y1111822D1*
X3772440Y1118650D1*
X3770463Y1125724D1*
X3769240Y1132967D1*
X3768786Y1140299D1*
X3769105Y1147638D1*
X3770193Y1154903D1*
X3772039Y1162013D1*
X3774622Y1168890D1*
X3777912Y1175457D1*
X3781875Y1181642D1*
X3786467Y1187375D1*
X3791635Y1192596D1*
X3797323Y1197244D1*
X3803469Y1201268D1*
X3810003Y1204625D1*
X3816853Y1207276D1*
X3823945Y1209192D1*
X3831198Y1210352D1*
X3838533Y1210744D1*
X3845869Y1210362D1*
X3853123Y1209213D1*
X3860218Y1207306D1*
X3867072Y1204665D1*
X3873612Y1201318D1*
X3879762Y1197303D1*
X3885457Y1192663D1*
X3890633Y1187450D1*
X3895232Y1181722D1*
X3899203Y1175543D1*
X3902504Y1168980D1*
X3905096Y1162108D1*
X3906953Y1155000D1*
X3908051Y1147738D1*
X3908358Y1139108D1*
X3907778Y1131785D1*
X3906432Y1124564D1*
X3904335Y1117524D1*
X3901509Y1110743D1*
X3897987Y1104297D1*
X3893807Y1098257D1*
X3889014Y1092690D1*
X3883664Y1087657D1*
X3877814Y1083214D1*
X3872466Y1079928D1*
X3879610Y1075366D1*
X3887938Y1068253D1*
X3895051Y1059925D1*
X3900774Y1050585D1*
X3904966Y1040467D1*
X3907522Y1029816D1*
X3908382Y1018898D1*
X3908167Y1013421D1*
X642445Y433760D2*
X4082016D1*
X4081988Y1337849D1*
X642409Y1333971D1*
X642421Y433743D1*
X1401238Y1187283D2*
D15*
Y1084370D1*
X1312182Y1135827D2*
X1490293D1*
X885827Y1210709D2*
Y1140945D1*
X816063D2*
X955591D1*
X1000060Y860168D2*
Y802215D1*
X938171D2*
X1061950D1*
X1870079Y1210709D2*
Y1140945D1*
X1800315D2*
X1939843D1*
X1756092Y860168D2*
Y802215D1*
X1694202D2*
X1817982D1*
X2854331Y1210709D2*
Y1140945D1*
X2784567D2*
X2924094D1*
X2743581Y860168D2*
Y802215D1*
X2681692D2*
X2805471D1*
X3838583Y1210709D2*
Y1140945D1*
X3768819D2*
X3908346D1*
X3727961Y860168D2*
Y802215D1*
X3666071D2*
X3789850D1*
D16*
X1000060D3*
Y691979D3*
X1756092Y802215D3*
Y691979D3*
X2743581Y802215D3*
Y691979D3*
X3727961Y802215D3*
Y691979D3*
D18*
X1276041Y635827D3*
X1401238Y735827D3*
X1276041Y835827D3*
X1401238Y935827D3*
X1276041Y1035827D3*
X1401238Y1135827D3*
D34*
X885827Y692126D3*
Y1018898D3*
Y1140945D3*
X1870079Y692126D3*
Y1018898D3*
Y1140945D3*
X2854331Y692126D3*
Y1018898D3*
Y1140945D3*
X3838583Y692126D3*
Y1018898D3*
Y1140945D3*
M02*
